<?xml version="1.0" encoding="UTF-8"?>
<svg version="1.1" xmlns="http://www.w3.org/2000/svg" width="1024" height="1024">
<path d="M0 0 C337.92 0 675.84 0 1024 0 C1024 337.92 1024 675.84 1024 1024 C686.08 1024 348.16 1024 0 1024 C0 686.08 0 348.16 0 0 Z " fill="#EF538F" transform="translate(0,0)"/>
<path d="M0 0 C337.92 0 675.84 0 1024 0 C1024 337.92 1024 675.84 1024 1024 C686.08 1024 348.16 1024 0 1024 C0 686.08 0 348.16 0 0 Z M460.91796875 30.08203125 C455.16636897 33.50869362 449.36442467 36.84698488 443.5625 40.1875 C442.4576123 40.82421631 441.35272461 41.46093262 440.21435547 42.11694336 C436.80991193 44.07855597 433.4049998 46.03935315 430 48 C416.32563197 55.87537468 402.66262687 63.76856044 389.03857422 71.73071289 C380.61430661 76.65051282 372.16446104 81.52522138 363.7109375 86.39453125 C356.4604851 90.57349128 349.22511731 94.77740506 342 99 C332.5900967 104.49945536 323.15529437 109.95449196 313.7109375 115.39453125 C306.4604851 119.57349128 299.22511731 123.77740506 292 128 C282.5900967 133.49945536 273.15529437 138.95449196 263.7109375 144.39453125 C255.46773604 149.14568436 247.24620501 153.93298784 239.0324707 158.73486328 C231.76794811 162.97830095 224.48078008 167.18122717 217.1875 171.375 C208.29098531 176.49278749 199.44358599 181.6866656 190.625 186.9375 C178.55527986 194.1201531 166.38140187 201.10514427 154.17456055 208.05055237 C143.75379629 213.98277654 133.37664318 219.99104815 123 226 C121.91541504 226.62745117 120.83083008 227.25490234 119.71337891 227.90136719 C116.49476806 229.76474831 113.27828562 231.63174818 110.0625 233.5 C108.63405762 234.32685303 108.63405762 234.32685303 107.17675781 235.17041016 C85.03656241 248.06142757 69.75100353 261.66104745 62.45252037 287.08999157 C60.42569969 295.34536232 60.58368226 303.53407647 60.61904907 311.97029114 C60.61558765 313.77662284 60.61081984 315.58295243 60.60486734 317.38927764 C60.59239392 322.32715366 60.59851108 327.26485477 60.60782599 332.20273125 C60.61463132 337.53824722 60.60412781 342.87373372 60.59588623 348.20924377 C60.58256171 358.65218777 60.58542118 369.09506699 60.59412415 379.5380135 C60.60090641 388.02873708 60.60181507 396.51944255 60.5985527 405.01016808 C60.598093 406.21981958 60.59763331 407.42947108 60.59715968 408.67577868 C60.59620047 411.13340031 60.59522783 413.59102193 60.5942419 416.04864355 C60.58569147 439.08309708 60.59551614 462.11751477 60.611643 485.15196242 C60.62504076 504.89925918 60.62272187 524.64650302 60.60888672 544.39379883 C60.59281599 567.34263549 60.58652078 590.29144073 60.59572351 613.24028224 C60.59667912 615.6896497 60.59762223 618.13901716 60.5985527 620.58838463 C60.59901553 621.79341439 60.59947836 622.99844415 60.59995521 624.23998997 C60.602541 632.71500704 60.59818286 641.19000411 60.59111404 649.66501808 C60.58268203 660.00137284 60.5850147 670.33765928 60.60095628 680.67400626 C60.60881688 685.94370454 60.61196848 691.21328912 60.60200882 696.48298645 C60.59301517 701.31482607 60.59807115 706.14644746 60.61394148 710.97826751 C60.61726967 712.71840427 60.61563988 714.45855979 60.60831411 716.19868431 C60.53755427 734.41602713 63.06920278 750.87292649 73.6875 766.1875 C74.06076416 766.73349854 74.43402832 767.27949707 74.81860352 767.84204102 C81.4449996 776.9416408 90.27391336 783.21364038 100 788.625 C101.03253906 789.21345703 102.06507812 789.80191406 103.12890625 790.40820312 C105.30981843 791.65087691 107.49346328 792.88876593 109.6796875 794.12207031 C115.14115094 797.21100978 120.56816769 800.35935255 126 803.5 C128.18483027 804.75922834 130.36972597 806.01834317 132.5546875 807.27734375 C143.71553734 813.71655363 154.83466789 820.2274577 165.95898438 826.72949219 C181.60798588 835.87440968 197.29376434 844.95376753 213 854 C226.6741218 861.87580724 240.33736974 869.76855846 253.96142578 877.73071289 C261.29312479 882.01244917 268.64282981 886.26220007 276 890.5 C284.34798459 895.30851844 292.68243184 900.13905683 301 905 C313.63743454 912.38414893 326.31675298 919.69490135 339 927 C352.67554314 934.87662589 366.33960958 942.77120092 379.96582031 950.73291016 C391.61659185 957.53587623 403.30903744 964.26642186 415 971 C419.37542829 973.52009089 423.7504831 976.04082736 428.125 978.5625 C429.19669434 979.18012207 430.26838867 979.79774414 431.37255859 980.43408203 C437.74258182 984.10891019 444.09849779 987.80684129 450.4440918 991.52368164 C455.28969272 994.36012152 460.14212775 997.18463239 465 1000 C465.86189941 1000.49967285 466.72379883 1000.9993457 467.61181641 1001.51416016 C487.72196203 1013.11390256 507.05997548 1018.84021672 530.6328125 1014.26953125 C541.90315073 1011.06431185 551.95176996 1004.88035517 562 999 C563.89821318 997.89935262 565.79665602 996.79910125 567.6953125 995.69921875 C571.71151905 993.36654995 575.72091047 991.02261723 579.7265625 988.671875 C586.13246888 984.91551096 592.56415067 981.20476227 599 977.5 C607.34812901 972.69173559 615.68248425 967.86102833 624 963 C632.31751792 958.1389704 640.65205653 953.30858897 649 948.5 C661.36022518 941.37913592 673.68467327 934.19816622 686 927 C689.95785474 924.68667962 693.91610663 922.37404251 697.875 920.0625 C698.86218018 919.48604736 699.84936035 918.90959473 700.86645508 918.31567383 C708.16611315 914.05798365 715.48697663 909.83798793 722.8125 905.625 C731.8146252 900.4471087 740.76486777 895.18860635 749.6875 889.875 C758.89836207 884.39199864 768.16751747 879.03411643 777.51513672 873.78808594 C785.32871814 869.39776479 793.07483464 864.89851228 800.80932617 860.37060547 C808.1896094 856.05128294 815.58946255 851.76719085 823 847.5 C831.34805648 842.69160872 839.6824834 837.86102883 848 833 C856.31751792 828.1389704 864.65205653 823.30858897 873 818.5 C882.37585335 813.09846593 891.74345254 807.6833057 901.07519531 802.20581055 C906.16249487 799.2219299 911.26749552 796.27908324 916.4140625 793.3984375 C936.85195004 781.88787422 953.68693038 768.98802045 960.77193886 745.4336623 C963.27880097 735.78851398 963.42478167 726.64180405 963.38768005 716.75759888 C963.39185946 714.93390446 963.39734029 713.11021265 963.40399987 711.28652561 C963.41839355 706.30530831 963.41422883 701.32425733 963.40683305 696.34303117 C963.4020886 690.95913043 963.4146225 685.57526502 963.42485046 680.19137573 C963.44201868 669.65566139 963.44288259 659.12000675 963.43763756 648.58428206 C963.43359101 640.01825744 963.43504518 631.45225043 963.44038582 622.88622665 C963.44113424 621.6656092 963.44188266 620.44499174 963.44265376 619.18738588 C963.44418529 616.70745779 963.44572364 614.2275297 963.44726873 611.74760161 C963.46098658 588.50808209 963.45556107 565.26859626 963.44408352 542.02907752 C963.43415151 520.7845315 963.44709257 499.54007258 963.47101771 478.29553999 C963.49542016 456.46207735 963.50501378 434.62865525 963.49836498 412.79517925 C963.49487537 400.54516051 963.49708789 388.29520875 963.51461601 376.04520035 C963.52935226 365.61736191 963.52995473 355.18963761 963.5125451 344.76180138 C963.50404462 339.44548172 963.50186242 334.12936586 963.51719666 328.81305695 C963.53108182 323.93864367 963.52623145 319.06460805 963.50695742 314.19021641 C963.50320885 312.43463075 963.50608611 310.67901457 963.51656907 308.92345621 C963.63523158 287.51511414 958.08108153 268.90993454 943 253 C935.6317055 246.25399995 927.65838271 241.18064789 918.9375 236.375 C917.70717181 235.68617834 916.47753059 234.9961284 915.24853516 234.30493164 C912.73046844 232.88940722 910.21005093 231.47821517 907.68798828 230.06982422 C902.05155969 226.91493487 896.46449388 223.67457792 890.875 220.4375 C888.73839564 219.20292701 886.60167675 217.96855222 884.46484375 216.734375 C883.4063623 216.12271484 882.34788086 215.51105469 881.25732422 214.88085938 C877.90339437 212.94421753 874.5476497 211.01075427 871.19140625 209.078125 C861.28180717 203.37058941 851.37823403 197.65594243 841.53320312 191.83764648 C834.07638987 187.43909554 826.56860878 183.12909741 819.06640625 178.80859375 C811.6971914 174.56236025 804.34273966 170.2918359 797 166 C788.6825099 161.13892419 780.34798366 156.30851791 772 151.5 C762.65908621 146.11954491 753.33854121 140.70560871 744.0324707 135.26513672 C736.76794893 131.02169954 729.4808447 126.81865952 722.1875 122.625 C713.22505057 117.47093785 704.31773587 112.23181813 695.4375 106.9375 C685.61447047 101.08469732 675.7022813 95.42027357 665.70849609 89.86474609 C659.28001413 86.28835876 652.90588539 82.63922956 646.5793457 78.88598633 C640.26889323 75.1451495 633.9187482 71.47490745 627.5625 67.8125 C625.90166382 66.85549194 625.90166382 66.85549194 624.20727539 65.87915039 C621.93662932 64.57110523 619.66587642 63.26324552 617.39501953 61.95556641 C613.00527393 59.42702748 608.61727284 56.89547216 604.22949219 54.36352539 C602.0727214 53.11899625 599.91581988 51.87469364 597.75878906 50.63061523 C592.30221588 47.48344434 586.84707336 44.3338378 581.39453125 41.1796875 C577.05048786 38.66684624 572.70260461 36.16085767 568.3515625 33.66015625 C564.12520005 31.23093689 559.91394431 28.77797521 555.7109375 26.30859375 C541.55951073 17.97492509 541.55951073 17.97492509 526 13 C525.2471875 12.81566406 524.494375 12.63132812 523.71875 12.44140625 C499.93305678 8.57964859 480.77132911 18.23542973 460.91796875 30.08203125 Z " fill="#FEFEFE" transform="translate(0,0)"/>
<path d="M0 0 C1.54537949 0.00323273 1.54537949 0.00323273 3.12197876 0.00653076 C18.88462355 0.05932365 34.32466237 0.49735267 49.875 3.3125 C50.97650391 3.51117676 52.07800781 3.70985352 53.21289062 3.91455078 C86.19452408 10.074383 118.29833276 20.31885935 147.875 36.3125 C148.97013916 36.89813721 148.97013916 36.89813721 150.08740234 37.49560547 C169.26382096 47.7849011 186.42518651 60.0979514 202.875 74.3125 C203.96941406 75.25416016 203.96941406 75.25416016 205.0859375 76.21484375 C207.02869335 77.89988709 208.95411121 79.60257588 210.875 81.3125 C211.76058594 82.09367187 212.64617188 82.87484375 213.55859375 83.6796875 C218.3706789 87.97595891 222.94163589 92.27620446 227.08984375 97.21875 C229.15183763 99.63719358 231.32542498 101.9323149 233.5 104.25 C266.875 140.91193182 266.875 140.91193182 266.875 152.3125 C266.21306641 152.6935791 265.55113281 153.0746582 264.86914062 153.46728516 C252.85398337 160.38654382 240.8455646 167.31627176 228.875 174.3125 C219.4651056 179.81197067 210.03029431 185.266992 200.5859375 190.70703125 C192.356669 195.45015379 184.14878219 200.22893927 175.94921875 205.02319336 C170.60056244 208.14781816 165.24388571 211.25791913 159.875 214.34765625 C159.28912109 214.68493744 158.70324219 215.02221863 158.09960938 215.36972046 C155.2681652 216.99930007 152.4356259 218.62693228 149.6015625 220.25195312 C148.57804687 220.84041016 147.55453125 221.42886719 146.5 222.03515625 C145.53320312 222.58961426 144.56640625 223.14407227 143.5703125 223.71533203 C140.49019493 225.54052489 137.52273296 227.50206594 134.59375 229.56030273 C132.875 230.3125 132.875 230.3125 130.79101562 230.10668945 C127.60954329 228.78796755 126.19362888 225.85020354 124.375 223.0625 C119.18473028 215.47769496 113.3492569 208.82213535 106.875 202.3125 C106.15207764 201.58353516 106.15207764 201.58353516 105.41455078 200.83984375 C77.85760661 173.44154098 39.28973619 160.44196449 0.9375 159.9375 C-41.92204359 160.06552386 -79.30122089 177.58382589 -109.8046875 206.88671875 C-137.02434531 235.28038736 -150.33677205 273.91143002 -150.375 312.6875 C-150.37600708 313.39703827 -150.37701416 314.10657654 -150.37805176 314.83761597 C-150.36713912 326.22799978 -149.6841044 337.18572164 -147.125 348.3125 C-146.98046387 348.96379883 -146.83592773 349.61509766 -146.68701172 350.28613281 C-140.91102143 375.70560724 -128.92044756 397.50799602 -112.125 417.3125 C-111.32707031 418.25738281 -110.52914062 419.20226562 -109.70703125 420.17578125 C-85.86863356 447.66607593 -49.34991976 465.4723611 -13.125 468.3125 C2.10063993 469.12946184 16.96847066 468.58144751 31.875 465.3125 C32.64859863 465.14621094 33.42219727 464.97992187 34.21923828 464.80859375 C63.28075689 458.36506263 88.54573122 443.87429884 109.875 423.3125 C110.51824219 422.72082031 111.16148437 422.12914062 111.82421875 421.51953125 C120.43212794 413.39318342 127.078304 403.47390923 132.91943359 393.25 C134.6620541 390.21567528 136.33690147 387.71191198 138.875 385.3125 C153.61794195 393.58668497 168.27256041 401.99936097 182.85888672 410.54638672 C187.86038629 413.47506147 192.86798413 416.39326989 197.875 419.3125 C199.87502952 420.47911606 201.87502951 421.64578274 203.875 422.8125 C204.865 423.39 205.855 423.9675 206.875 424.5625 C209.875 426.3125 212.875 428.0625 215.875 429.8125 C216.86556396 430.39032227 217.85612793 430.96814453 218.87670898 431.56347656 C220.871036 432.72684752 222.86533949 433.89025879 224.85961914 435.05371094 C229.94622098 438.02113778 235.03326521 440.98780184 240.12109375 443.953125 C251.72052538 450.71461187 263.30971534 457.49275334 274.875 464.3125 C270.89191573 471.93479193 266.5127162 479.11439859 261.625 486.1875 C260.96532227 487.14712646 260.30564453 488.10675293 259.62597656 489.09545898 C243.69015396 512.13396093 225.21051865 534.07579625 203.875 552.3125 C202.92753906 553.1375 201.98007812 553.9625 201.00390625 554.8125 C138.63994657 608.78655823 56.07409361 633.97376176 -25.76599121 628.12371826 C-36.64705306 627.14817297 -47.39717709 625.34388052 -58.125 623.3125 C-59.17574707 623.12026855 -60.22649414 622.92803711 -61.30908203 622.72998047 C-110.52200192 613.50101158 -156.94163449 589.22695475 -195.125 557.3125 C-196.15751765 556.46870787 -197.19007099 555.6249594 -198.22265625 554.78125 C-212.78284997 542.73830101 -226.6066663 529.31055975 -238.125 514.3125 C-239.02092528 513.22471179 -239.9209661 512.14030533 -240.82421875 511.05859375 C-270.2053415 475.64419596 -289.18141203 434.6894454 -300.37426758 390.28979492 C-300.87719939 388.29524095 -301.39016623 386.30319204 -301.9128418 384.3137207 C-303.73336936 377.29592662 -305.10375301 370.29235741 -306.1875 363.125 C-306.35668945 362.00931641 -306.52587891 360.89363281 -306.70019531 359.74414062 C-309.28499793 342.0240487 -310.66413165 324.2188065 -310.125 306.3125 C-310.10566406 305.54728027 -310.08632813 304.78206055 -310.06640625 303.99365234 C-308.41182362 244.48950804 -289.3102812 184.23061694 -255.125 135.3125 C-254.54298828 134.47356201 -254.54298828 134.47356201 -253.94921875 133.61767578 C-246.3630682 122.70505843 -238.19300306 112.46311179 -229.23046875 102.63671875 C-227.38522445 100.59976075 -225.5941833 98.52979153 -223.8125 96.4375 C-216.57934923 88.14460854 -208.613878 80.31184745 -200.125 73.3125 C-199.61662598 72.89033203 -199.10825195 72.46816406 -198.58447266 72.03320312 C-156.77164263 37.44420671 -106.57373255 14.64080064 -53.4375 4.0625 C-52.69185791 3.91119629 -51.94621582 3.75989258 -51.17797852 3.60400391 C-34.26213654 0.44599944 -17.1597963 -0.06494332 0 0 Z " fill="#FEFEFE" transform="translate(511.125,197.6875)"/>
<path d="M0 0 C6.81179448 4.01372524 13.67569268 7.9331217 20.546875 11.84375 C30.2224236 17.3550799 39.85971419 22.9280061 49.46875 28.5546875 C57.13261474 33.03541265 64.83373335 37.44869224 72.546875 41.84375 C82.26812006 47.38360933 91.95582368 52.97749932 101.61376953 58.62719727 C108.86899216 62.86992267 116.14039996 67.08374497 123.421875 71.28125 C124.50082031 71.90322266 125.57976563 72.52519531 126.69140625 73.16601562 C129.97630492 75.05904126 133.26152603 76.95150598 136.546875 78.84375 C154.23320638 89.03044709 171.88486301 99.27397335 189.50585938 109.57324219 C201.92770091 116.83228142 214.36845921 124.05679171 226.83544922 131.23803711 C235.07656691 135.98789532 243.2955441 140.77470041 251.5078125 145.57421875 C258.83971223 149.85597122 266.18954738 154.10585939 273.546875 158.34375 C281.89485959 163.15226844 290.22930684 167.98280683 298.546875 172.84375 C306.82465245 177.6805182 315.11690174 182.49132979 323.421875 187.28125 C324.49123291 187.8995166 325.56059082 188.5177832 326.66235352 189.15478516 C331.7001325 192.06449447 336.74377297 194.96193975 341.8145752 197.81367493 C343.57309185 198.80356167 345.32911676 199.79773356 347.08447266 200.79321289 C349.27073941 202.03140662 351.46149022 203.26173378 353.65771484 204.48217773 C360.95380743 208.62920226 367.20886697 213.34961273 373.546875 218.84375 C370.6508565 221.97566454 367.77191092 224.06519898 364.06640625 226.1640625 C362.99414795 226.77620605 361.92188965 227.38834961 360.81713867 228.01904297 C359.10554565 228.98414795 359.10554565 228.98414795 357.359375 229.96875 C356.16664171 230.64784232 354.97434353 231.3276994 353.7824707 232.00830078 C351.4267804 233.35329113 349.06981714 234.69600257 346.71191406 236.03710938 C342.86659445 238.23206195 339.044851 240.46401297 335.234375 242.71875 C333.90632496 243.50273116 332.57819599 244.28657862 331.25 245.0703125 C330.52876953 245.49602539 329.80753906 245.92173828 329.06445312 246.36035156 C323.54297923 249.61369479 318.01318656 252.85289767 312.484375 256.09375 C311.85885742 256.46043793 311.23333984 256.82712585 310.58886719 257.20492554 C299.22395526 263.86656693 287.84792693 270.50903038 276.46630859 277.14208984 C273.49932232 278.87146719 270.53278126 280.60160563 267.56640625 282.33203125 C266.5727002 282.91170654 265.57899414 283.49138184 264.55517578 284.08862305 C262.5599637 285.25268567 260.56484551 286.41690925 258.56982422 287.58129883 C253.4360296 290.57720404 248.29999205 293.56915683 243.16015625 296.5546875 C241.05983939 297.7759446 238.95957802 298.99729714 236.859375 300.21875 C235.85551758 300.80156738 234.85166016 301.38438477 233.81738281 301.98486328 C227.42645132 305.70774636 221.13024312 309.5420424 214.9375 313.5859375 C212.546875 314.84375 212.546875 314.84375 208.546875 314.84375 C206.87239314 312.55251607 205.49604308 310.36496398 204.109375 307.90625 C198.61705674 298.65027142 192.23387357 290.26101218 185.546875 281.84375 C184.33837891 280.31234375 184.33837891 280.31234375 183.10546875 278.75 C178.32211517 272.79433973 173.24334143 267.15878518 168.046875 261.56640625 C166.08420989 259.42894128 164.20252574 257.27007712 162.359375 255.03125 C159.75728185 251.95604901 156.86075817 249.38119526 153.79296875 246.77734375 C151.27583945 244.61042374 148.85456353 242.3549715 146.421875 240.09375 C132.40000213 227.33074693 116.8751425 216.45299902 100.546875 206.84375 C99.57935303 206.26971436 99.57935303 206.26971436 98.59228516 205.68408203 C68.07718298 187.71399694 34.31277876 176.33208549 -0.328125 169.53125 C-1.54983398 169.28882568 -2.77154297 169.04640137 -4.03027344 168.79663086 C-21.83328316 165.43929536 -39.42117152 164.46467263 -57.515625 164.53125 C-59.0622583 164.53398422 -59.0622583 164.53398422 -60.64013672 164.53677368 C-76.41549866 164.58365145 -91.88772617 165.03978975 -107.453125 167.84375 C-108.40864258 168.01535645 -109.36416016 168.18696289 -110.34863281 168.36376953 C-165.91142491 178.74352986 -220.43016789 203.33481711 -262.23046875 241.8046875 C-264.24874603 243.65625295 -266.30661635 245.44208 -268.390625 247.21875 C-276.32803046 254.14389525 -283.71093741 261.75578979 -290.453125 269.84375 C-290.88786133 270.35405762 -291.32259766 270.86436523 -291.77050781 271.39013672 C-309.65773663 292.42869882 -324.61327784 315.83148924 -336.46289062 340.76855469 C-337.13502152 342.17711302 -337.81634717 343.58131338 -338.50585938 344.98144531 C-353.1534432 374.78940987 -361.59186604 407.96432924 -365.453125 440.84375 C-365.58908081 441.95931274 -365.58908081 441.95931274 -365.7277832 443.09741211 C-366.77400803 451.98597598 -367.1160976 460.90474625 -367.453125 469.84375 C-367.48325684 470.55080078 -367.51338867 471.25785156 -367.54443359 471.98632812 C-368.43404302 495.17283624 -365.57657733 519.26827267 -360.453125 541.84375 C-360.24848633 542.79024414 -360.04384766 543.73673828 -359.83300781 544.71191406 C-353.98674713 571.68860574 -345.4732802 598.3503497 -332.29980469 622.69506836 C-331.453125 624.84375 -331.453125 624.84375 -332.453125 627.84375 C-334.94878556 629.39857402 -337.4176829 630.79183334 -340.015625 632.15625 C-341.6745248 633.05219659 -343.33200618 633.95077299 -344.98828125 634.8515625 C-345.87660645 635.33399414 -346.76493164 635.81642578 -347.68017578 636.31347656 C-352.4879042 638.96665862 -357.21798629 641.75120264 -361.953125 644.53125 C-370.36986173 649.46387735 -378.80745697 654.35752115 -387.265625 659.21875 C-396.26790646 664.39636079 -405.21805792 669.65504662 -414.140625 674.96875 C-422.35736727 679.86110766 -430.61064612 684.66899742 -438.953125 689.34375 C-450.79991844 695.98416225 -462.4664885 702.91500848 -474.13183594 709.8671875 C-479.46073104 713.03851466 -484.80058224 716.19124222 -490.140625 719.34375 C-491.95703786 720.41665547 -493.77344482 721.48957094 -495.58984375 722.5625 C-496.87758849 723.32294322 -498.16534219 724.08337126 -499.453125 724.84375 C-502.38599351 721.17184719 -503.74383451 717.49123951 -505.078125 713.03125 C-505.40296875 712.00161133 -505.40296875 712.00161133 -505.734375 710.95117188 C-507.8478609 704.0562503 -508.57755856 697.40592501 -508.58734608 690.18390656 C-508.59087442 689.0692706 -508.59087442 689.0692706 -508.59447405 687.93211675 C-508.60112208 685.44630676 -508.6007071 682.96054955 -508.60029602 680.47473145 C-508.60359725 678.67271709 -508.60732337 676.87070346 -508.6114375 675.06869078 C-508.62143596 670.11957498 -508.62517081 665.17047132 -508.62782681 660.22134686 C-508.63173621 654.88234125 -508.64131404 649.5433452 -508.65003967 644.2043457 C-508.66978514 631.31275366 -508.67986743 618.42116085 -508.68876746 605.52955747 C-508.69315312 599.45569384 -508.69851917 593.38183108 -508.70375633 587.30796814 C-508.72076597 567.11254304 -508.73525995 546.91711848 -508.74250507 526.72168732 C-508.7444149 521.483078 -508.74633524 516.24446868 -508.74829102 511.00585938 C-508.74877476 509.70386327 -508.7492585 508.40186717 -508.7497569 507.06041664 C-508.75805657 485.97069215 -508.78339365 464.88102439 -508.81587169 443.79132468 C-508.84895789 422.12982179 -508.86695521 400.46834772 -508.87014931 378.80681944 C-508.87231285 366.64836323 -508.88103888 354.48998978 -508.90661049 342.33155823 C-508.92833868 331.97678118 -508.9363574 321.62210699 -508.92664371 311.26730973 C-508.92210533 305.98747763 -508.92395856 300.70785768 -508.94340515 295.42805481 C-508.96108223 290.58672214 -508.96000228 285.74575569 -508.94450786 280.90441889 C-508.9421387 279.1607613 -508.9464191 277.41707805 -508.95833651 275.67345959 C-509.04666135 261.88766185 -507.33319508 249.10474974 -500.890625 236.65625 C-500.55546875 235.99826416 -500.2203125 235.34027832 -499.875 234.66235352 C-496.13876191 227.70833096 -491.17553881 222.25081574 -485.453125 216.84375 C-484.90269531 216.30645264 -484.35226562 215.76915527 -483.78515625 215.21557617 C-477.98098355 209.79850042 -471.36508458 206.10482005 -464.453125 202.28125 C-462.56966601 201.22489509 -460.68815631 200.1651193 -458.80661011 199.10536194 C-457.53373965 198.38886211 -456.26023939 197.67347999 -454.9861145 196.95921326 C-449.05963194 193.63537424 -443.18893155 190.21947186 -437.328125 186.78125 C-429.09355458 181.96258248 -420.84384304 177.17130224 -412.578125 172.40625 C-411.49700439 171.78282715 -410.41588379 171.1594043 -409.30200195 170.51708984 C-403.86378943 167.382382 -398.42331542 164.25165417 -392.98046875 161.125 C-381.96772023 154.79300251 -370.99371428 148.40449114 -360.078125 141.90625 C-349.69128037 135.72392668 -339.23296348 129.68309117 -328.72753906 123.70556641 C-320.24871817 118.87986628 -311.81021706 113.98896851 -303.38989258 109.06201172 C-296.09357926 104.79468777 -288.77784303 100.5621143 -281.453125 96.34375 C-272.11074776 90.96255735 -262.78918897 85.54711771 -253.48120117 80.10668945 C-246.25798545 75.88807626 -239.01543193 71.70397022 -231.765625 67.53125 C-222.50864851 62.20275933 -213.28520918 56.82020876 -204.078125 51.40625 C-193.8868261 45.4140318 -183.65252544 39.5032143 -173.37902832 33.65313721 C-164.3511583 28.51182149 -155.36028179 23.31150966 -146.39379883 18.06396484 C-137.96943421 13.13593885 -129.51624301 8.25897692 -121.05151367 3.40063477 C-115.7962354 0.37755404 -110.56491336 -2.67575156 -105.37890625 -5.81640625 C-65.81159428 -29.75378432 -38.31409768 -22.60213297 0 0 Z " fill="#FE88B7" transform="translate(569.453125,34.15625)"/>
<path d="M0 0 C1.3751113 2.24935424 2.60425134 4.47551467 3.8125 6.8125 C12.16248992 22.27322129 22.86978734 36.43835139 34 50 C34.43924805 50.54221191 34.87849609 51.08442383 35.33105469 51.64306641 C46.63244122 65.53452451 59.26970119 78.99527882 73.4375 89.98828125 C75.80955073 91.85048571 78.05975896 93.81137921 80.31298828 95.81420898 C123.93225968 134.16344337 182.2583278 154.61776275 239 162 C239.68984482 162.09031494 240.37968964 162.18062988 241.09043884 162.27368164 C246.67484148 162.9560352 252.18559278 163.17429453 257.80859375 163.203125 C259.1829937 163.21351051 259.1829937 163.21351051 260.5851593 163.22410583 C263.53598341 163.24133076 266.48662794 163.24769641 269.4375 163.25 C270.94757629 163.25200912 270.94757629 163.25200912 272.48815918 163.25405884 C288.20700644 163.24952088 303.45912734 162.51868282 319 160 C320.50894132 159.78005798 322.01804618 159.56123384 323.52734375 159.34375 C350.94008365 155.17052396 378.06468961 145.98960936 403 134 C404.19351074 133.43394043 404.19351074 133.43394043 405.41113281 132.85644531 C432.60970656 119.89918486 456.4892521 103.282761 478.734375 83.046875 C480.81761127 81.16477879 482.93218933 79.32837688 485.0625 77.5 C492.28071396 71.19861563 498.79610859 64.28831145 505 57 C506.19882813 55.63488281 506.19882813 55.63488281 507.421875 54.2421875 C519.21902825 40.71003088 529.22964998 25.93515975 538.84570312 10.8046875 C541.17341136 7.16542792 543.58265569 3.58011752 546 0 C553.76501342 4.17293044 561.40568943 8.52493951 569 13 C570.3137162 13.77228152 571.62752305 14.54440887 572.94140625 15.31640625 C574.35677846 16.14842452 575.77214283 16.98045613 577.1875 17.8125 C577.91485352 18.23990479 578.64220703 18.66730957 579.39160156 19.10766602 C582.906124 21.17428245 586.41712412 23.24622433 589.91796875 25.3359375 C599.27176932 30.90348177 608.7542945 36.21947854 618.28125 41.484375 C625.87185944 45.68094542 633.41225933 49.93891344 640.86694336 54.37207031 C646.23079836 57.56007757 651.63909802 60.664488 657.0625 63.75 C664.80289119 68.15459501 672.50305131 72.62358545 680.1875 77.125 C687.49736563 81.39545099 694.8134387 85.65363657 702.1875 89.8125 C703.27357544 90.43439209 703.27357544 90.43439209 704.3815918 91.06884766 C707.90980258 93.04085565 710.9172528 94.51641247 715 95 C713.10089267 101.64205559 709.46930317 105.8594828 705 111 C704.16082031 111.96679688 704.16082031 111.96679688 703.3046875 112.953125 C695.5681283 121.25030443 684.75084245 126.37860148 675 131.9375 C672.69451612 133.25905698 670.38957755 134.58148881 668.0859375 135.90625 C667.49960541 136.24341537 666.91327332 136.58058075 666.30917358 136.92796326 C660.04541918 140.53770009 653.83528039 144.23669469 647.625 147.9375 C635.55556927 155.1206241 623.38139095 162.10515048 611.17456055 169.05055237 C595.73414408 177.84031188 580.3739869 186.77012897 565.03369141 195.7331543 C557.74348742 199.99005508 550.43844604 204.22066444 543.125 208.4375 C542.04404053 209.06084229 540.96308105 209.68418457 539.84936523 210.32641602 C534.41096863 213.46116816 528.97034791 216.59200536 523.52734375 219.71875 C512.51459523 226.05074749 501.54058928 232.43925886 490.625 238.9375 C480.23955354 245.11899112 469.78239198 251.15853085 459.27880859 257.13598633 C448.78334836 263.11024791 438.34852473 269.18492884 427.92675781 275.28662109 C411.30596436 285.01674526 394.64656069 294.6780076 377.95947266 304.29394531 C367.68995265 310.21404148 357.43490326 316.15837905 347.20117188 322.14013672 C313.33041443 341.93033642 313.33041443 341.93033642 303.375 347.0625 C302.39273437 347.56910156 301.41046875 348.07570313 300.3984375 348.59765625 C291.15146908 352.41335931 282.59450863 353.52733436 272.625 353.4375 C271.42834717 353.42847656 270.23169434 353.41945313 268.9987793 353.41015625 C260.58713071 353.24462466 253.69033186 352.60742718 246 349 C244.8759375 348.49855469 243.751875 347.99710938 242.59375 347.48046875 C230.44631289 341.83113233 218.97535776 334.73777983 207.41992188 327.9921875 C201.91689868 324.78654292 196.39470791 321.6142954 190.875 318.4375 C181.57697486 313.07753563 172.30062856 307.68141764 163.03417969 302.26708984 C151.38340815 295.46412377 139.69096256 288.73357814 128 282 C114.3258782 274.12419276 100.66263026 266.23144154 87.03857422 258.26928711 C79.70687521 253.98755083 72.35717019 249.73779993 65 245.5 C56.65201541 240.69148156 48.31756816 235.86094317 40 231 C27.36256546 223.61585107 14.68324702 216.30509865 2 209 C-11.6741218 201.12419276 -25.33736974 193.23144154 -38.96142578 185.26928711 C-46.29312479 180.98755083 -53.64282981 176.73779993 -61 172.5 C-70.34091379 167.11954491 -79.66145879 161.70560871 -88.9675293 156.26513672 C-95.15275505 152.65215051 -101.35190726 149.0644975 -107.56225586 145.49487305 C-111.91418847 142.99119605 -116.2595557 140.47624331 -120.60449219 137.96044922 C-122.93319259 136.61593784 -125.26388905 135.27579839 -127.59863281 133.94189453 C-130.63492037 132.20681511 -133.66293246 130.45798872 -136.68637085 128.70062256 C-138.37062096 127.72619313 -140.06273264 126.76539067 -141.75512695 125.80517578 C-152.14343842 119.73927642 -166.22887316 110.2623049 -169.57763672 97.86083984 C-169.78670654 96.93972412 -169.78670654 96.93972412 -170 96 C-149.31341574 83.73968531 -128.55242521 71.61254594 -107.71630859 59.6081543 C-97.44491332 53.68742092 -87.20363852 47.71577622 -76.96777344 41.73388672 C-70.98119325 38.23629767 -64.99147927 34.74407553 -59.00170898 31.25195312 C-53.98664859 28.3276244 -48.97367709 25.39982728 -43.96484375 22.46484375 C-38.99764718 19.55550296 -34.02401964 16.65747893 -29.04492188 13.76855469 C-26.94819452 12.55073133 -24.85324226 11.32984832 -22.75976562 10.10644531 C-19.57487674 8.24811867 -16.38229002 6.4037404 -13.1875 4.5625 C-12.20837646 3.98814209 -11.22925293 3.41378418 -10.22045898 2.82202148 C-9.31626221 2.30454346 -8.41206543 1.78706543 -7.48046875 1.25390625 C-6.28780396 0.56276733 -6.28780396 0.56276733 -5.07104492 -0.14233398 C-3 -1 -3 -1 0 0 Z " fill="#E84589" transform="translate(240,662)"/>
<path d="M0 0 C0.76957031 0.6703125 1.53914062 1.340625 2.33203125 2.03125 C3.17378906 2.7634375 4.01554688 3.495625 4.8828125 4.25 C7.39747882 6.47847516 9.87249257 8.7421744 12.33203125 11.03125 C13.01007813 11.65515625 13.688125 12.2790625 14.38671875 12.921875 C21.33584252 19.56400936 27.19760959 27.30706771 32.50390625 35.3046875 C34.20768304 38.03591944 34.20768304 38.03591944 36.33203125 40.03125 C35.74639404 40.34126953 35.16075684 40.65128906 34.55737305 40.97070312 C21.32382942 47.99994404 8.33995961 55.31554828 -4.51806641 63.01123047 C-13.08311791 68.1257723 -21.74342221 73.04020908 -30.46459961 77.88256836 C-38.58972177 82.40251662 -46.62312193 87.06554686 -54.63818359 91.77734375 C-61.86130264 96.01105522 -69.15603395 100.10089429 -76.48046875 104.15625 C-84.73796413 108.73711525 -92.78717602 113.53105117 -100.72583008 118.64208984 C-107.11816817 122.73909915 -113.65990888 126.51853853 -120.27050781 130.25048828 C-127.62892212 134.41256622 -134.90501876 138.70518048 -142.16796875 143.03125 C-150.23241175 147.83204859 -158.3188743 152.58479528 -166.48046875 157.21875 C-173.41431466 161.15633481 -180.30828545 165.15326685 -187.16796875 169.21875 C-188.04791504 169.74009521 -188.92786133 170.26144043 -189.83447266 170.79858398 C-191.71859733 171.91502204 -193.60271144 173.03147791 -195.48681641 174.14794922 C-201.11467128 177.47974296 -206.74651144 180.80468701 -212.38378906 184.12051392 C-213.69187112 184.8905873 -214.99933257 185.6617159 -216.30615234 186.43392944 C-218.13744559 187.51590524 -219.97080522 188.59429492 -221.8046875 189.671875 C-222.86389404 190.29610352 -223.92310059 190.92033203 -225.0144043 191.56347656 C-227.66796875 193.03125 -227.66796875 193.03125 -230.66796875 194.03125 C-241.36926494 170.83996834 -246.89602502 148.31999531 -246.91796875 122.65625 C-246.91864349 121.94571472 -246.91931824 121.23517944 -246.92001343 120.50311279 C-246.90286891 109.11178426 -246.27905963 98.15067605 -243.66796875 87.03125 C-243.4963623 86.28278809 -243.32475586 85.53432617 -243.14794922 84.76318359 C-235.3086015 51.5633008 -215.95718003 20.62839332 -188.66796875 0.03125 C-187.82105469 -0.63132812 -186.97414063 -1.29390625 -186.1015625 -1.9765625 C-133.05336664 -42.29635369 -51.8543409 -43.34094164 0 0 Z " fill="#FE88B7" transform="translate(606.66796875,388.96875)"/>
<path d="M0 0 C1.79447536 0.96354525 3.57085038 1.96124099 5.33203125 2.984375 C6.36497314 3.58233887 7.39791504 4.18030273 8.4621582 4.79638672 C9.567771 5.4410791 10.67338379 6.08577148 11.8125 6.75 C12.9818629 7.42881021 14.15138042 8.10735414 15.32104492 8.78564453 C18.31327686 10.52207008 21.30306206 12.26265911 24.29199219 14.00476074 C26.87079811 15.50740545 29.45117444 17.00734912 32.03125 18.5078125 C43.48628365 25.17599928 54.91958604 31.88129984 66.35287476 38.58666992 C77.65410257 45.21448293 88.96357811 51.82796133 100.28662109 58.41845703 C102.8978108 59.94043714 105.50584204 61.46769971 108.11328125 62.99609375 C118.27342667 68.93610495 128.55204555 74.58204667 139 80 C138.34 80.33 137.68 80.66 137 81 C134.375 80.0625 134.375 80.0625 132 79 C131.53851562 79.85980469 131.07703125 80.71960938 130.6015625 81.60546875 C123.59529993 94.4025287 115.01659841 105.37633502 105 116 C104.32839844 116.73605469 103.65679688 117.47210937 102.96484375 118.23046875 C78.31856664 144.25878009 39.82013532 160.56346643 4.16088867 162.12426758 C-35.55548052 163.1479997 -72.75568573 152.58118304 -103 126 C-103.85078125 125.27039063 -104.7015625 124.54078125 -105.578125 123.7890625 C-119.51026762 111.60912187 -131.33021803 96.39509049 -140 80 C-140 79.01 -140 78.02 -140 77 C-138.73736328 76.30390625 -138.73736328 76.30390625 -137.44921875 75.59375 C-127.94882847 70.318824 -118.58769736 64.82302913 -109.24719238 59.27053833 C-92.86346587 49.5317636 -76.39225367 39.9479134 -59.875 30.4375 C-51.76834956 25.76819441 -43.68033266 21.06982902 -35.625 16.3125 C-34.73997803 15.79220215 -33.85495605 15.2719043 -32.94311523 14.73583984 C-28.37353651 12.0391359 -23.84820961 9.28864716 -19.36328125 6.453125 C-18.45175293 5.88424561 -17.54022461 5.31536621 -16.60107422 4.72924805 C-14.86769368 3.64457445 -13.14342596 2.54515342 -11.43017578 1.42895508 C-10.65786621 0.94837646 -9.88555664 0.46779785 -9.08984375 -0.02734375 C-8.41816162 -0.45781006 -7.74647949 -0.88827637 -7.05444336 -1.33178711 C-4.08246951 -2.29842911 -2.74319903 -1.39394419 0 0 Z " fill="#E84589" transform="translate(517,505)"/>
<path d="M0 0 C0 4.15310058 -1.45772455 5.74067251 -4 9 C-6.251309 10.85118341 -8.55337834 12.40028584 -11 14 C-9.42219077 10.28954753 -7.09296752 7.70093616 -4.375 4.75 C-3.55773437 3.85796875 -2.74046875 2.9659375 -1.8984375 2.046875 C-1.27195312 1.37140625 -0.64546875 0.6959375 0 0 Z " fill="#E72876" transform="translate(752,711)"/>
<path d="M0 0 C0.58203125 1.875 0.58203125 1.875 1 4 C-0.3125 6 -0.3125 6 -2 8 C-2.69580267 9.31836295 -3.37224433 10.64791086 -4 12 C-5 9 -5 9 -4.00390625 6.73828125 C-3.52824219 5.93777344 -3.05257813 5.13726562 -2.5625 4.3125 C-2.08941406 3.50425781 -1.61632812 2.69601562 -1.12890625 1.86328125 C-0.75636719 1.24839844 -0.38382812 0.63351562 0 0 Z " fill="#FE77AE" transform="translate(377,439)"/>
</svg>
