<?xml version="1.0" encoding="UTF-8"?>
<svg version="1.1" xmlns="http://www.w3.org/2000/svg" width="1024" height="1024">
<path d="M0 0 C337.92 0 675.84 0 1024 0 C1024 337.92 1024 675.84 1024 1024 C686.08 1024 348.16 1024 0 1024 C0 686.08 0 348.16 0 0 Z " fill="#EEECEA" transform="translate(0,0)"/>
<path d="M0 0 C187.11 0 374.22 0 567 0 C567 15.6329588 567 15.6329588 566.09375 21.71875 C565.28768591 27.50225097 564.67121278 33.27173568 564.21875 39.09375 C564.15856689 39.86436768 564.09838379 40.63498535 564.03637695 41.42895508 C563.85481967 43.78576957 563.67675194 46.14282052 563.5 48.5 C562.73508667 58.70095164 561.81361658 68.82175904 560.49121094 78.96728516 C559.66039444 85.55940652 559.15356292 92.18345792 558.59744263 98.80319214 C556.72447326 120.98409338 554.53270883 143.132091 552.32696915 165.28174591 C549.35843332 195.09127663 546.47102942 224.90504657 543.75488281 254.73883057 C542.95931035 263.47349093 542.13822036 272.20564759 541.3125 280.9375 C540.52391171 289.28878796 539.76726186 297.6412498 539.0625 306 C537.94663525 319.16696252 536.5858142 332.31017831 535.26063538 345.45732117 C535.12968727 346.75655266 535.12968727 346.75655266 534.99609375 348.08203125 C534.90915756 348.94443924 534.82222137 349.80684723 534.73265076 350.69538879 C533.89057023 359.06195837 533.08052476 367.43147453 532.27880859 375.80200195 C531.43625368 384.56796075 530.56879698 393.33120788 529.69140625 402.09375 C526.39545862 435.08701666 523.34227339 468.09421528 520.47029686 501.12691689 C520.08351844 505.57447942 519.69588081 510.02196697 519.30786133 514.46942139 C519.1060304 516.78403474 518.9046787 519.09868994 518.70385742 521.41339111 C518.43561728 524.49590392 518.16372509 527.57807076 517.890625 530.66015625 C517.81414734 531.54666367 517.73766968 532.43317108 517.65887451 533.34654236 C517.30569153 537.29231805 516.89699455 541.13158779 516 545 C513.27211854 545.87915722 510.54274422 546.7532302 507.8125 547.625 C507.08224609 547.86089844 506.35199219 548.09679687 505.59960938 548.33984375 C499.6678954 550.22830779 493.69555905 551.95162222 487.70703125 553.6484375 C475.04148724 557.24207552 462.43282033 561.02439503 449.82470703 564.81347656 C446.53020428 565.80353967 443.23495611 566.79109584 439.93950558 567.77799892 C427.59336555 571.47640356 415.25729399 575.19796885 402.97746277 579.11195374 C397.5763442 580.8304306 392.15166418 582.43064495 386.6875 583.9375 C379.61739582 585.92230979 372.61066332 588.04903939 365.625 590.3125 C356.67784131 593.21086394 347.66634528 595.8517992 338.625 598.4375 C327.96824708 601.48575277 317.40567223 604.73513583 306.92431641 608.34936523 C292.03382889 613.46467611 282.20657273 615.36440785 266.9375 610.8125 C265.83204834 610.49297363 264.72659668 610.17344727 263.58764648 609.84423828 C256.28509323 607.72003356 249.0227453 605.47842188 241.77734375 603.16796875 C237.74676681 601.92169935 233.69567647 600.79342996 229.625 599.6875 C222.03114418 597.62124727 214.51494349 595.33598214 207 593 C199.62983031 590.70976545 192.26070192 588.46075311 184.8125 586.4375 C170.82487189 582.63323897 156.9942959 578.28486769 143.1875 573.875 C136.42983013 571.71912265 129.63873768 569.7505753 122.796875 567.88085938 C116.77624169 566.23087482 110.79613305 564.46704713 104.82128906 562.65893555 C98.82656654 560.84587814 92.82543891 559.05557186 86.8203125 557.27734375 C85.59369652 556.91385834 85.59369652 556.91385834 84.34230042 556.54302979 C79.34640397 555.06260211 79.34640397 555.06260211 74.34970093 553.5848999 C57.89468929 548.72262064 57.89468929 548.72262064 50 546 C48.57231023 535.88918662 47.44432894 525.79161192 46.5625 515.6171875 C46.43593812 514.1867503 46.30905871 512.75634116 46.18188477 511.32595825 C45.85100615 507.59603358 45.52393534 503.86578568 45.19787598 500.13543701 C44.67881572 494.20595011 44.1534755 488.2770132 43.62919235 482.34798622 C43.50137703 480.90222278 43.37365337 479.45645124 43.24602127 478.01067162 C41.69259566 460.41789935 39.99016402 442.84157234 38.25048828 425.26635742 C35.9308093 401.81603199 33.7164358 378.3586889 31.6171875 354.88769531 C31.02531899 348.27449568 30.42861656 341.6617368 29.83164978 335.04899597 C24.70051856 278.20910935 24.70051856 278.20910935 22.28515625 250.26171875 C22.21681328 249.47162981 22.14847031 248.68154087 22.07805634 247.86750984 C21.42614764 240.33015919 20.77600497 232.79266659 20.1329422 225.2545557 C18.75039191 208.71175528 18.75039191 208.71175528 17.01953125 192.203125 C16.05595178 183.98863313 15.33355441 175.75461987 14.6171875 167.515625 C14.52331285 166.43623405 14.52331285 166.43623405 14.42754173 165.33503723 C14.36397295 164.60399277 14.30040417 163.8729483 14.23490906 163.11975098 C14.10293807 161.6026167 13.97092336 160.08548623 13.83886719 158.56835938 C13.73805831 157.41017071 13.73805831 157.41017071 13.6352129 156.22858429 C12.82919777 146.99878265 11.98190402 137.77279726 11.1328125 128.546875 C11.05220329 127.67049944 10.97159409 126.79412388 10.88854218 125.89119148 C10.47258942 121.37005123 10.05607975 116.84896257 9.63916016 112.32791138 C9.20281056 107.59573779 8.76750179 102.86346912 8.33252335 98.13116932 C6.75359711 80.95404593 5.17286074 63.77713519 3.55462265 46.6036644 C3.25424202 43.41390756 2.95512281 40.22403234 2.65576172 37.03417969 C2.23181332 32.5175017 1.80314245 28.00130783 1.37158203 23.48535156 C1.18504094 21.50197009 0.9986683 19.51857275 0.8125 17.53515625 C0.72853973 16.67159012 0.64457947 15.80802399 0.55807495 14.91828918 C0.48348053 14.11517807 0.40888611 13.31206696 0.33203125 12.48461914 C0.26733643 11.80548965 0.2026416 11.12636017 0.13598633 10.426651 C-0.05849038 6.95624992 0 3.47584591 0 0 Z " fill="#EA4376" transform="translate(229,283)"/>
<path d="M0 0 C116.16 0 232.32 0 352 0 C352 10.12472746 352 10.12472746 351.61604309 14.16500854 C351.5307132 15.08498627 351.4453833 16.00496399 351.35746765 16.95281982 C351.26246475 17.93115784 351.16746185 18.90949585 351.06958008 19.91748047 C350.92069336 21.50367691 350.92069336 21.50367691 350.76879883 23.12191772 C350.55296316 25.41523524 350.33518471 27.70837057 350.11567116 30.00133896 C349.76182829 33.6976542 349.41312997 37.39442552 349.06559753 41.09133911 C348.38169942 48.35633447 347.6921209 55.62078044 347.00158691 62.88514709 C345.96087888 73.83702025 344.92536069 84.78938029 343.89453125 95.7421875 C343.77369297 97.02480217 343.65285469 98.30741684 343.52835464 99.62889862 C341.45314745 121.69939088 339.54554014 143.78135558 337.69760132 165.87190247 C336.34138135 182.07405021 334.89844705 198.2631698 333.33953857 214.44708252 C332.27523737 225.58388596 331.26810745 236.7262371 330.25144958 247.86747742 C330.0586066 249.98015381 329.86542403 252.092799 329.67224121 254.20544434 C327.73975532 275.35912694 325.91666598 296.51893475 324.29321289 317.69897461 C323.528257 327.53511707 322.58239549 337.25490986 321 347 C295.40846868 355.175419 269.74937567 363.1298046 244.05126953 370.96313477 C243.05862689 371.26571906 243.05862689 371.26571906 242.04593086 371.57441616 C239.40322928 372.37986912 236.76050208 373.18523705 234.11757278 373.98994255 C226.53940713 376.29763332 218.96840699 378.62611101 211.41098022 381.00097656 C207.70356511 382.16446217 203.99209029 383.31458191 200.27972412 384.4621582 C198.61867234 384.979466 196.95960399 385.50319482 195.30279541 386.03393555 C181.6224929 390.41271108 172.96974269 389.92859349 159.22924805 385.56533813 C155.65419617 384.43129437 152.06827277 383.3322615 148.484375 382.2265625 C147.28651367 381.85556175 147.28651367 381.85556175 146.06445312 381.47706604 C135.41343694 378.18542838 124.72306263 375.02526488 114.03405762 371.85964966 C110.59789063 370.84150523 107.16267216 369.82021033 103.72753906 368.79858398 C91.66609623 365.21918198 79.58654282 361.72188478 67.45776367 358.37690735 C59.5799144 356.19676858 51.78385925 353.8030259 44.01171875 351.2734375 C39.92521447 349.95186911 35.7948963 348.83338355 31.6171875 347.8359375 C30 347 30 347 29.4465332 345.44140625 C28.81965279 342.0139573 28.53152208 338.56980198 28.23828125 335.1015625 C28.09042769 333.43300117 27.94230167 331.76446397 27.79394531 330.09594727 C27.71583618 329.20658478 27.63772705 328.31722229 27.55725098 327.40090942 C25.67225364 306.02170215 23.36286686 284.69874072 20.9309082 263.37548828 C20.80289322 262.24736221 20.67487823 261.11923615 20.54298401 259.95692444 C20.3016863 257.83366134 20.05833923 255.71062979 19.81260681 253.58787537 C19.70525711 252.64436722 19.59790741 251.70085907 19.48730469 250.72875977 C19.39278015 249.90803482 19.29825562 249.08730988 19.2008667 248.24171448 C19.01508687 246.16837258 19 244.08164857 19 242 C42.76 242 66.52 242 91 242 C93.29854397 259.23907977 93.29854397 259.23907977 93.8515625 266.33984375 C93.94719986 267.50659386 93.94719986 267.50659386 94.04476929 268.69691467 C94.24177394 271.11016832 94.43351772 273.52380263 94.625 275.9375 C94.76006274 277.60354435 94.89547755 279.26956021 95.03125 280.93554688 C95.35820916 284.95671562 95.68046163 288.97823505 96 293 C109.01090935 296.82818619 122.03277859 300.60715403 135.10668945 304.21508789 C141.16872109 305.89665464 147.20223751 307.65298595 153.22265625 309.4765625 C155.33211922 310.10974963 157.44188442 310.74192034 159.55172729 311.37384033 C160.92058645 311.78725647 162.28792656 312.2057403 163.65359497 312.62957764 C165.56986775 313.22404969 167.49190103 313.79985335 169.4140625 314.375 C170.5170166 314.71273438 171.6199707 315.05046875 172.75634766 315.3984375 C180.23624285 316.78564673 187.35156705 313.80656435 194.42578125 311.578125 C196.07818062 311.0653299 196.07818062 311.0653299 197.76396179 310.54217529 C201.28172586 309.44980055 204.79724012 308.350404 208.3125 307.25 C234.81995411 298.97486319 234.81995411 298.97486319 245.54296875 295.984375 C246.28211014 295.77758118 247.02125153 295.57078735 247.78279114 295.35772705 C252.73964663 294 252.73964663 294 255 294 C255.06477539 292.13009399 255.06477539 292.13009399 255.13085938 290.22241211 C255.69096669 275.5620248 256.83946327 260.98186124 258.15673828 246.37182617 C258.50419875 242.51590466 258.84442383 238.65939318 259.18359375 234.80273438 C259.40323269 232.3280883 259.6232698 229.85347752 259.84375 227.37890625 C259.94482056 226.23724503 260.04589111 225.0955838 260.15002441 223.91932678 C260.24682495 222.84968185 260.34362549 221.78003693 260.44335938 220.67797852 C260.52694702 219.74728043 260.61053467 218.81658234 260.69665527 217.85768127 C261.04652489 214.56170884 261.53126035 211.28117756 262 208 C208.87 208 155.74 208 101 208 C99.02 182.26 99.02 182.26 97 156 C96.67 154.02 96.34 152.04 96 150 C96 146.37 96 142.74 96 139 C152.76 138.67 209.52 138.34 268 138 C269.65 118.53 271.3 99.06 273 79 C273.33 76.03 273.66 73.06 274 70 C185.23 70 96.46 70 5 70 C4.08037793 67.24113378 3.79471845 65.24938159 3.62695312 62.38012695 C3.57019409 61.44517899 3.51343506 60.51023102 3.45495605 59.54695129 C3.36897156 58.03290962 3.36897156 58.03290962 3.28125 56.48828125 C3.21844849 55.44608932 3.15564697 54.4038974 3.09094238 53.3301239 C2.8901214 49.99113186 2.69463768 46.65185778 2.5 43.3125 C2.30486034 39.99103019 2.10850184 36.66964868 1.90905762 33.34843445 C1.78508752 31.2817063 1.66362326 29.21482583 1.54504395 27.14778137 C1.30156485 23.06952818 1.03816203 19.03386977 0.45507812 14.98901367 C-0.11150598 10.02258785 0 4.99864011 0 0 Z " fill="#FAFAF7" transform="translate(333,392)"/>
<path d="M0 0 C75.9 0 151.8 0 230 0 C225.44314537 55.82146922 225.44314537 55.82146922 223.96136475 71.0039978 C223.44125024 76.33780854 222.9347527 81.67292902 222.42578125 87.0078125 C222.31528442 88.16317001 222.2047876 89.31852753 222.09094238 90.50889587 C220.55789017 106.57277841 219.08240367 122.64202783 217.60312271 138.71093369 C217.37978307 141.13557363 217.1560733 143.56017911 216.93222046 145.98477173 C215.46774708 161.84815252 214.01840584 177.71246419 212.6306057 193.58275414 C211.45616806 207.0114797 210.20853546 220.43076699 208.86569214 233.84384155 C207.13787201 251.11769499 205.48505128 268.39659055 203.9375 285.6875 C202.65414177 300.0256762 201.27824286 314.35065621 199.81509399 328.67153931 C198.28156635 343.72780494 196.94371154 358.79858919 195.625 373.875 C193.08082561 402.95257649 190.08740107 431.97556653 187 461 C180.33746133 463.23381467 173.65522234 465.37533292 166.9375 467.4375 C165.2973291 467.94204712 165.2973291 467.94204712 163.62402344 468.45678711 C152.13464927 471.97926568 140.61872873 475.41276677 129.10449219 478.85290527 C119.52199306 481.71743249 109.95218288 484.60347486 100.4375 487.6875 C91.31344707 490.63867851 82.11762733 493.30218161 72.89916992 495.94189453 C63.46011113 498.65759348 54.05840234 501.48898086 44.6640625 504.35546875 C42.77048508 504.9329184 42.77048508 504.9329184 40.83865356 505.52203369 C35.68803782 507.09348953 30.53777075 508.66603573 25.39044189 510.24822998 C21.74569542 511.36808607 18.09951127 512.48315339 14.453125 513.59765625 C13.34200348 513.94096481 12.23088196 514.28427338 11.08609009 514.63798523 C10.06413544 514.94960098 9.04218079 515.26121674 7.98925781 515.58227539 C7.09458801 515.85713272 6.19991821 516.13199005 5.27813721 516.41517639 C3 517 3 517 0 517 C-0.33 495.22 -0.66 473.44 -1 451 C3.45886719 449.64648438 7.91773438 448.29296875 12.51171875 446.8984375 C52.88085354 434.64474686 52.88085354 434.64474686 93.1875 422.1875 C94.08566437 421.90741089 94.98382874 421.62732178 95.90921021 421.33874512 C102.33848851 419.33343468 108.76684095 417.32516591 115.19403076 415.31317139 C119.6694924 413.91216953 124.14674301 412.51704869 128.625 411.125 C129.66938232 410.79653076 130.71376465 410.46806152 131.78979492 410.12963867 C132.71767822 409.84193604 133.64556152 409.5542334 134.6015625 409.2578125 C135.38869629 409.0117627 136.17583008 408.76571289 136.98681641 408.51220703 C139 408 139 408 142 408 C142.05156754 407.23817413 142.10313507 406.47634827 142.15626526 405.69143677 C142.92373804 394.63674811 143.84750933 383.59669099 144.77734375 372.5546875 C144.95051625 370.49268856 145.1236571 368.43068696 145.29676819 366.36868286 C145.65841057 362.06377032 146.02075473 357.75891752 146.38354492 353.45410156 C146.84350396 347.99509003 147.30122252 342.53589327 147.75833797 337.07664299 C148.1150251 332.82090045 148.47318258 328.56528254 148.83172798 324.3096962 C149.00083907 322.29994018 149.16946047 320.29014288 149.33753777 318.28030014 C150.2168684 307.77304508 151.15438808 297.27648074 152.22472095 286.78692341 C153.24610346 276.70300174 154.12080084 266.60616199 155.00502014 256.50945282 C155.33105279 252.78754783 155.65867132 249.06578525 155.98669434 245.34405518 C156.39681912 240.69054865 156.80673754 236.03702418 157.21622014 231.38346112 C160.9151251 189.35008049 164.65343993 147.32116936 168.625 105.3125 C168.70934547 104.41920612 168.79369095 103.52591225 168.88059235 102.60554886 C169.43120737 96.77458209 169.98408631 90.94383449 170.5390625 85.11328125 C170.6078511 84.38918312 170.67663971 83.66508499 170.74751282 82.91904449 C170.93975417 80.89818248 171.13318103 78.87743334 171.32666016 76.85668945 C171.43338043 75.74066849 171.54010071 74.62464752 171.65005493 73.47480774 C172.06915572 69.31331267 172.53811512 65.15696392 173 61 C115.91 61 58.82 61 0 61 C0 40.87 0 20.74 0 0 Z " fill="#F85788" transform="translate(512,331)"/>
<path d="M0 0 C7.41363062 6.98923673 11.37111539 15.27581782 13.1875 25.25 C13.1875 26.57 13.1875 27.89 13.1875 29.25 C8.43717759 29.44826372 3.68927568 29.59314101 -1.06420898 29.68945312 C-2.67954458 29.7296058 -4.29459078 29.78414477 -5.90893555 29.85351562 C-19.43488472 30.42004753 -19.43488472 30.42004753 -22.84765625 27.52148438 C-24.04681929 25.47508659 -24.91276141 23.43892871 -25.8125 21.25 C-31.80744604 16.91235986 -39.6429909 16.24395598 -46.8125 17.25 C-49.79234167 18.58170309 -49.79234167 18.58170309 -51.8125 20.25 C-52.4725 20.25 -53.1325 20.25 -53.8125 20.25 C-54.45722564 25.81555973 -54.45722564 25.81555973 -52 30.5 C-45.49142986 34.07333262 -38.82577878 36.09814569 -31.57446289 37.54614258 C-17.95754818 40.27834381 -2.25027513 44.3978444 7.1875 55.25 C7.91259766 56.00410156 7.91259766 56.00410156 8.65234375 56.7734375 C14.57724117 63.26506423 15.72569054 69.55158457 15.625 78 C15.61742676 78.88526367 15.60985352 79.77052734 15.60205078 80.68261719 C15.3121018 92.21708399 11.58233912 100.61947885 3.59765625 108.8984375 C-8.85482459 120.44261974 -25.74314786 122.96528493 -42.078125 122.5625 C-58.48461139 121.74828231 -74.47463683 116.5889476 -85.8125 104.25 C-87.78877366 101.70412366 -89.37010736 99.12912883 -90.8125 96.25 C-91.13089844 95.62480469 -91.44929687 94.99960938 -91.77734375 94.35546875 C-94.49289419 88.2110666 -93.8125 84.65820047 -93.8125 77.25 C-81.9325 77.25 -70.0525 77.25 -57.8125 77.25 C-56.1625 80.55 -54.5125 83.85 -52.8125 87.25 C-45.61770511 92.12389331 -37.32677459 92.52386286 -28.8125 91.25 C-25.11496449 89.20400145 -23.16063955 87.77220933 -20.8125 84.25 C-19.97850125 81.33681086 -19.97850125 81.33681086 -20.8125 78.25 C-27.54284137 73.08951493 -34.9982101 71.08114815 -43.0625 68.75 C-78.83397288 58.28120287 -78.83397288 58.28120287 -88.625 41.0625 C-92.23986434 32.50097919 -91.84704944 22.31119628 -88.84375 13.62109375 C-84.43546086 3.48536835 -77.00096562 -4.17945412 -66.875 -8.625 C-45.10340433 -16.7279623 -18.26890555 -15.0217745 0 0 Z " fill="#05100E" transform="translate(676.8125,126.75)"/>
<path d="M0 0 C1.11181641 -0.020625 2.22363281 -0.04125 3.36914062 -0.0625 C16.82426673 -0.12548479 30.29328188 3.54819042 40.5 12.75 C47.56195993 20.358597 52.38188541 30.94757305 52.1875 41.25 C47.45548827 41.44853527 42.72592283 41.59326787 37.99072266 41.68945312 C36.38222005 41.72956057 34.77400692 41.78406573 33.16650391 41.85351562 C19.7465666 42.41856562 19.7465666 42.41856562 15.85498047 39.50170898 C14.36734434 37.47820393 13.30419135 35.48992804 12.1875 33.25 C6.17590493 28.8128703 -0.53007542 28.45019614 -7.8125 29.25 C-10.61693415 30.44568898 -12.64724759 32.08474759 -14.8125 34.25 C-15.31345023 37.12306228 -15.31345023 37.12306228 -14.8125 40.25 C-11.42884473 43.5122892 -8.33777333 44.98983241 -3.8515625 46.2578125 C-2.70719727 46.58813477 -1.56283203 46.91845703 -0.38378906 47.25878906 C0.79473633 47.58588867 1.97326172 47.91298828 3.1875 48.25 C6.58892042 49.21612429 9.98997564 50.18350886 13.390625 51.15234375 C15.67706765 51.80225724 17.96617954 52.44285048 20.2578125 53.07421875 C32.89666515 56.71223712 43.4334379 61.75184922 50.85546875 72.8359375 C55.94458039 82.05901959 55.56675032 93.98242995 53.34765625 104.06640625 C49.29514727 115.62356148 42.021349 122.85781031 31.1875 128.25 C20.63975727 133.29891951 10.64111371 134.41935294 -0.9375 134.5 C-1.86788086 134.5093457 -2.79826172 134.51869141 -3.75683594 134.52832031 C-18.97321234 134.45809919 -33.33573927 129.3865469 -44.8125 119.25 C-52.46745278 111.32393431 -55.91181219 101.19420305 -55.8125 90.25 C-54.8125 89.25 -54.8125 89.25 -51.48608398 89.13647461 C-50.01024444 89.13663371 -48.53439931 89.14232686 -47.05859375 89.15234375 C-46.28314713 89.1537587 -45.5077005 89.15517365 -44.70875549 89.15663147 C-42.22246506 89.16224655 -39.7362634 89.17480154 -37.25 89.1875 C-35.56836067 89.19251306 -33.88671994 89.1970763 -32.20507812 89.20117188 C-28.07418434 89.21222087 -23.94335724 89.22949555 -19.8125 89.25 C-19.32547607 90.18102539 -19.32547607 90.18102539 -18.82861328 91.13085938 C-18.39274902 91.94361328 -17.95688477 92.75636719 -17.5078125 93.59375 C-17.08000488 94.40005859 -16.65219727 95.20636719 -16.21142578 96.03710938 C-13.6430479 100.09989771 -10.34063433 101.74062189 -5.8125 103.25 C-3.37801182 103.39703064 -0.9387523 103.47105339 1.5 103.5 C2.79550781 103.52578125 4.09101562 103.5515625 5.42578125 103.578125 C10.34986665 103.14860976 13.68840257 101.74909743 17.1875 98.25 C17.43003813 96.03927023 17.43003813 96.03927023 17.3125 93.625 C17.29445313 92.80773437 17.27640625 91.99046875 17.2578125 91.1484375 C17.23460937 90.52195312 17.21140625 89.89546875 17.1875 89.25 C8.71932862 84.67868625 0.14628645 81.53235572 -9.15625 79.1015625 C-23.80347951 75.26626848 -39.08647979 70.3814091 -47.3125 56.5 C-47.8075 55.4275 -48.3025 54.355 -48.8125 53.25 C-49.16699219 52.528125 -49.52148438 51.80625 -49.88671875 51.0625 C-52.41359695 43.38590801 -52.0287294 31.80700641 -48.9140625 24.296875 C-42.36342328 12.12476524 -34.02714417 5.39609461 -20.8125 1.25 C-13.90247667 0.04924185 -7.00084313 0.03213238 0 0 Z " fill="#040F0E" transform="translate(515.8125,114.75)"/>
<path d="M0 0 C11.41631763 7.64042376 21.07935512 18.08606661 25.265625 31.43359375 C25.29783052 33.76670482 25.3009383 36.10052765 25.265625 38.43359375 C21.2458619 38.86485614 17.22568003 39.29195919 13.20507812 39.71533203 C11.83939902 39.85971674 10.47383631 40.00520705 9.10839844 40.15185547 C7.13768515 40.36331157 5.16650147 40.57036891 3.1953125 40.77734375 C2.01179199 40.90302734 0.82827148 41.02871094 -0.39111328 41.15820312 C-3.5401342 41.41759378 -6.57823881 41.5988077 -9.734375 41.43359375 C-11.2734375 39.859375 -11.2734375 39.859375 -12.359375 37.74609375 C-12.97232422 36.64974609 -12.97232422 36.64974609 -13.59765625 35.53125 C-13.97277344 34.83902344 -14.34789062 34.14679688 -14.734375 33.43359375 C-18.47713567 27.75492238 -23.4449673 25.53006298 -29.734375 23.43359375 C-36.6298838 22.90238418 -43.71312055 22.60800927 -49.734375 26.43359375 C-56.47686148 32.51565445 -60.06751574 40.58149772 -60.94287109 49.57592773 C-61.03739061 51.78263341 -61.06313262 53.97494873 -61.046875 56.18359375 C-61.04268555 56.96782715 -61.03849609 57.75206055 -61.03417969 58.56005859 C-60.90695346 65.16093451 -59.94737803 71.18736874 -57.734375 77.43359375 C-57.46753906 78.1915625 -57.20070313 78.94953125 -56.92578125 79.73046875 C-54.25297084 86.05018047 -49.44008919 89.6773025 -43.3359375 92.5703125 C-36.64440169 94.79077709 -29.65168565 94.26719571 -23.296875 91.30859375 C-16.8931572 87.66545301 -13.8355882 83.10120213 -10.734375 76.43359375 C-9.734375 75.43359375 -9.734375 75.43359375 -7.4765625 75.30078125 C-6.53039062 75.30335938 -5.58421875 75.3059375 -4.609375 75.30859375 C-3.67867188 75.30601562 -2.74796875 75.3034375 -1.7890625 75.30078125 C1.61440447 75.44875807 4.89344811 75.95185419 8.265625 76.43359375 C11.24204389 76.67711893 14.22097559 76.84021448 17.203125 76.99609375 C18.37198242 77.06086914 18.37198242 77.06086914 19.56445312 77.12695312 C21.46469617 77.23187452 23.36514169 77.33311825 25.265625 77.43359375 C23.90110799 92.67624719 15.06642753 103.87018684 3.79296875 113.55859375 C-11.90801533 125.40453946 -32.17934932 126.62738856 -51.12207031 124.1171875 C-54.87525371 123.34826082 -58.28180817 122.07100454 -61.734375 120.43359375 C-62.52972656 120.08296875 -63.32507813 119.73234375 -64.14453125 119.37109375 C-70.5828893 116.19056696 -75.64193364 111.42418629 -80.734375 106.43359375 C-81.3634375 105.840625 -81.9925 105.24765625 -82.640625 104.63671875 C-95.1546137 91.78143945 -98.8943853 74.26286693 -98.984375 56.99609375 C-99.005 56.01060547 -99.025625 55.02511719 -99.046875 54.00976562 C-99.0811611 47.54255089 -98.11162227 42.42592246 -95.734375 36.43359375 C-95.43015625 35.47710937 -95.1259375 34.520625 -94.8125 33.53515625 C-89.72635885 18.32471526 -79.39674567 6.11851615 -65.64453125 -2.1328125 C-60.55083492 -4.64205619 -55.22146705 -6.16640745 -49.734375 -7.56640625 C-48.79283569 -7.83118774 -48.79283569 -7.83118774 -47.83227539 -8.10131836 C-32.16873614 -11.57380088 -13.70394699 -7.85040392 0 0 Z " fill="#040F0D" transform="translate(423.734375,123.56640625)"/>
<path d="M0 0 C27.39 0 54.78 0 83 0 C82.37622368 10.60419736 81.7171181 21.1758388 80.84375 31.7578125 C80.68295959 33.72776688 80.68295959 33.72776688 80.5189209 35.73751831 C80.29497275 38.4784386 80.06963972 41.2192403 79.84326172 43.95996094 C79.55470802 47.45496365 79.26988156 50.95025898 78.98607635 54.4456501 C78.71150499 57.8207055 78.43372869 61.19549487 78.15625 64.5703125 C78.05517944 65.81515411 77.95410889 67.05999573 77.84997559 68.34255981 C77.38633538 73.92664592 76.88956627 79.46661344 76 85 C74.79214844 85.36609375 73.58429688 85.7321875 72.33984375 86.109375 C70.5390602 86.65624243 68.73827921 87.20311829 66.9375 87.75 C65.95193115 88.0485791 64.9663623 88.3471582 63.95092773 88.65478516 C57.84929746 90.50817983 51.7556674 92.38438117 45.66972351 94.28857422 C42.1767898 95.38101945 38.68229474 96.46842774 35.18777466 97.55578613 C33.44537655 98.09949941 31.70372812 98.64562126 29.96286011 99.19421387 C27.47843265 99.9768238 24.99147693 100.75088609 22.50390625 101.5234375 C21.76500153 101.75858063 21.0260968 101.99372375 20.26480103 102.23599243 C15.49189697 103.70697979 10.96767278 104.47303477 6 105 C3.03 105.495 3.03 105.495 0 106 C0 71.02 0 36.04 0 0 Z " fill="#F85688" transform="translate(512,601)"/>
<path d="M0 0 C88.77 0 177.54 0 269 0 C267.85072802 25.28398366 267.85072802 25.28398366 267.02734375 34.2109375 C266.93997452 35.20082672 266.85260529 36.19071594 266.7625885 37.21060181 C266.49194793 40.26581228 266.21490335 43.32039704 265.9375 46.375 C265.74891577 48.49084685 265.56076297 50.6067322 265.37304688 52.72265625 C264.9203065 57.81555902 264.46183733 62.90791445 264 68 C263.34 67.67 262.68 67.34 262 67 C259.22320275 66.90676021 256.47167768 66.87423498 253.69482422 66.88647461 C252.83621796 66.88632858 251.97761169 66.88618256 251.09298706 66.8860321 C248.24686176 66.88673037 245.40080141 66.89451875 242.5546875 66.90234375 C240.58456457 66.90420824 238.61444118 66.90563199 236.64431763 66.90663147 C231.45260341 66.91045424 226.26091706 66.92028249 221.06921387 66.93133545 C214.84342525 66.94335067 208.61762733 66.94795296 202.39183044 66.95378876 C192.92786757 66.96349436 183.46396586 66.98265261 174 67 C174 45.22 174 23.44 174 1 C116.58 1 59.16 1 0 1 C0 0.67 0 0.34 0 0 Z " fill="#F85788" transform="translate(338,462)"/>
<path d="M0 0 C11.55 0 23.1 0 35 0 C35.495 1.98 35.495 1.98 36 4 C24.45 3.67 12.9 3.34 1 3 C0.67 3.99 0.34 4.98 0 6 C0 4.02 0 2.04 0 0 Z " fill="#252726" transform="translate(461,204)"/>
<path d="M0 0 C0.66 0 1.32 0 2 0 C2.28639662 7.68497603 1.82473189 15.2250848 1.125 22.875 C1.04652832 23.77822998 0.96805664 24.68145996 0.88720703 25.61206055 C0.42982876 30.34078998 -0.24791291 34.53880345 -2 39 C-2.33 39 -2.66 39 -3 39 C-2.39469657 25.95411817 -1.31974085 12.99240019 0 0 Z " fill="#ECE2E5" transform="translate(756,702)"/>
<path d="M0 0 C1.30710937 0.50660156 1.30710937 0.50660156 2.640625 1.0234375 C9.68364745 3.66075976 16.26881842 5.64977786 23.76953125 6.640625 C26 7 26 7 27 8 C29.69235776 8.23678716 32.36498156 8.42198025 35.0625 8.5625 C36.20041992 8.62727539 36.20041992 8.62727539 37.36132812 8.69335938 C39.24065438 8.79973633 41.12030244 8.90039934 43 9 C43 9.33 43 9.66 43 10 C27.28243262 10.66883265 12.18587772 9.3556403 -2 2 C-1.34 1.34 -0.68 0.68 0 0 Z " fill="#1F2020" transform="translate(605,239)"/>
<path d="M0 0 C10.56 0 21.12 0 32 0 C28.45986775 2.36008817 26.98878045 2.23463644 22.80078125 2.1953125 C21.59228516 2.18886719 20.38378906 2.18242187 19.13867188 2.17578125 C17.2447168 2.15064453 17.2447168 2.15064453 15.3125 2.125 C14.03826172 2.11597656 12.76402344 2.10695312 11.45117188 2.09765625 C8.30059373 2.07405641 5.15039017 2.04113194 2 2 C2 4.31 2 6.62 2 9 C-0.05164237 5.53785351 0 4.40610765 0 0 Z " fill="#000302" transform="translate(583,205)"/>
<path d="M0 0 C3.31481316 3.31481316 3.97213772 6.15020054 4.125 10.8125 C4.08375 11.864375 4.0425 12.91625 4 14 C-1.08086796 14.84681133 -5.84828377 15.09038099 -11 15 C-9.22555028 12.75393573 -8.41647515 12.04918998 -5.51953125 11.70703125 C-4.62621094 11.74183594 -3.73289062 11.77664062 -2.8125 11.8125 C-1.91144531 11.83957031 -1.01039063 11.86664063 -0.08203125 11.89453125 C0.94857422 11.94673828 0.94857422 11.94673828 2 12 C1.77183594 11.30132812 1.54367187 10.60265625 1.30859375 9.8828125 C1.02113281 8.97273437 0.73367188 8.06265625 0.4375 7.125 C0.14746094 6.22007812 -0.14257812 5.31515625 -0.44140625 4.3828125 C-1 2 -1 2 0 0 Z " fill="#1A1D1D" transform="translate(445,148)"/>
<path d="M0 0 C0 0.66 0 1.32 0 2 C-0.67160156 1.79503906 -1.34320312 1.59007813 -2.03515625 1.37890625 C-13.21608393 -1.63633747 -24.48118966 -1.7328073 -36 -2 C-36 -2.33 -36 -2.66 -36 -3 C-32.37601438 -3.22927441 -28.7509511 -3.42948303 -25.125 -3.625 C-24.11179687 -3.68945312 -23.09859375 -3.75390625 -22.0546875 -3.8203125 C-14.37878265 -4.21394865 -6.58383211 -4.3892214 0 0 Z " fill="#B5B6B6" transform="translate(542,117)"/>
<path d="M0 0 C0.33 0 0.66 0 1 0 C1.98032703 7.06482038 1.90568627 13.55480456 1.0625 20.625 C0.96259766 21.53378906 0.86269531 22.44257812 0.75976562 23.37890625 C0.51569706 25.58714562 0.262359 27.79387234 0 30 C-0.66 29.67 -1.32 29.34 -2 29 C-2.32001346 19.23958934 -1.11306313 9.67967405 0 0 Z " fill="#EDDFE2" transform="translate(775,504)"/>
<path d="M0 0 C8.25 0 16.5 0 25 0 C24.67 0.99 24.34 1.98 24 3 C20.37501666 3.02893932 16.75006287 3.04677792 13.125 3.0625 C11.57619141 3.07506836 11.57619141 3.07506836 9.99609375 3.08789062 C9.00996094 3.09111328 8.02382813 3.09433594 7.0078125 3.09765625 C5.64100342 3.10551147 5.64100342 3.10551147 4.24658203 3.11352539 C2 3 2 3 0 2 C0 1.34 0 0.68 0 0 Z " fill="#1E1F1F" transform="translate(502,246)"/>
<path d="M0 0 C3.72910066 -0.0582462 7.45808364 -0.09367917 11.1875 -0.125 C12.24259766 -0.14175781 13.29769531 -0.15851563 14.38476562 -0.17578125 C15.40634766 -0.18222656 16.42792969 -0.18867187 17.48046875 -0.1953125 C18.41785889 -0.20578613 19.35524902 -0.21625977 20.32104492 -0.22705078 C23.21630812 0.01833287 25.37062697 0.79478381 28 2 C28 2.33 28 2.66 28 3 C27.3702124 2.96970703 26.7404248 2.93941406 26.09155273 2.90820312 C23.2069473 2.7704246 20.32222772 2.63519307 17.4375 2.5 C15.9515332 2.42845703 15.9515332 2.42845703 14.43554688 2.35546875 C9.28371538 2.11584868 4.15735906 1.94213342 -1 2 C-0.67 1.34 -0.34 0.68 0 0 Z " fill="#040606" transform="translate(628,115)"/>
<path d="M0 0 C0.33 0 0.66 0 1 0 C1.33865141 2.99948391 1.67105073 5.99944926 2 9 C2.14308594 10.25876953 2.14308594 10.25876953 2.2890625 11.54296875 C2.8515563 16.72594734 3.27926229 21.78710387 3 27 C2.34 27.66 1.68 28.32 1 29 C0.6321522 25.48045746 0.28320992 21.95928042 -0.0625 18.4375 C-0.16626953 17.44685547 -0.27003906 16.45621094 -0.37695312 15.43554688 C-0.89534834 10.05496201 -1.06471684 5.30869305 0 0 Z " fill="#ECDBE0" transform="translate(242,432)"/>
<path d="M0 0 C6.6 0 13.2 0 20 0 C20.33 0.66 20.66 1.32 21 2 C10.11 2.495 10.11 2.495 -1 3 C-0.67 2.01 -0.34 1.02 0 0 Z " fill="#141515" transform="translate(378,115)"/>
<path d="M0 0 C0.66 0.66 1.32 1.32 2 2 C1.41992188 2.44730469 0.83984375 2.89460938 0.2421875 3.35546875 C-4.2423764 6.8261956 -8.67101386 10.33701172 -13 14 C-13 11 -13 11 -11 8.6875 C-7.59364394 5.46765912 -3.7945342 2.73997383 0 0 Z " fill="#E4E4E3" transform="translate(354,122)"/>
<path d="M0 0 C1.75029762 0.31082872 3.50022694 0.62373179 5.25 0.9375 C6.71179688 1.19853516 6.71179688 1.19853516 8.203125 1.46484375 C10.49721795 1.90379729 12.74291971 2.40348592 15 3 C15 3.66 15 4.32 15 5 C15.66 5.33 16.32 5.66 17 6 C10.95198929 5.45018084 5.69398894 4.09570426 0 2 C0 1.34 0 0.68 0 0 Z " fill="#D6D7D6" transform="translate(630,159)"/>
<path d="M0 0 C6.42527341 0.4589481 9.71227012 3.49087691 13.9375 8.125 C14.288125 8.74375 14.63875 9.3625 15 10 C14.67 10.99 14.34 11.98 14 13 C13.40832031 12.39671875 12.81664062 11.7934375 12.20703125 11.171875 C6.38766162 5.26989543 6.38766162 5.26989543 0 0 Z " fill="#DFDFDE" transform="translate(424,124)"/>
<path d="M0 0 C3.54506192 1.62059974 6.59021257 3.72629052 9.75 6 C10.73484375 6.70125 11.7196875 7.4025 12.734375 8.125 C13.48203125 8.74375 14.2296875 9.3625 15 10 C15 10.66 15 11.32 15 12 C11.25234185 10.66439842 8.3836183 9.0073532 5.25 6.5625 C4.08210938 5.66724609 4.08210938 5.66724609 2.890625 4.75390625 C1 3 1 3 0 0 Z " fill="#171919" transform="translate(469,230)"/>
<path d="M0 0 C0.33 0.66 0.66 1.32 1 2 C-3.02878219 7.2954069 -7.17469115 10.79164462 -13 14 C-13 13.01 -13 12.02 -13 11 C-11.171875 9.31640625 -11.171875 9.31640625 -8.75 7.5625 C-5.56166408 5.23376445 -2.73410972 2.8532567 0 0 Z " fill="#141616" transform="translate(562,228)"/>
<path d="M0 0 C6.81987029 0.43300764 11.91643021 1.90787824 18 5 C17.67 5.66 17.34 6.32 17 7 C11.27789404 5.13236819 5.62338249 3.14710968 0 1 C0 0.67 0 0.34 0 0 Z " fill="#DEDEDD" transform="translate(657,167)"/>
<path d="M0 0 C0.66 0 1.32 0 2 0 C2.3690205 12.66970387 2.3690205 12.66970387 0 18 C-0.33 18 -0.66 18 -1 18 C-0.505 9.09 -0.505 9.09 0 0 Z " fill="#EBD9DE" transform="translate(754,723)"/>
<path d="M0 0 C3.94758287 1.33196415 6.34755485 2.96304762 9.25 5.9375 C10.27867187 6.97197266 10.27867187 6.97197266 11.328125 8.02734375 C13 10 13 10 14 13 C10.84375314 11.61263874 8.80136567 9.99607292 6.4375 7.5 C4.32475777 5.27903267 2.58386374 3.72257583 0 2 C0 1.34 0 0.68 0 0 Z " fill="#101212" transform="translate(547,122)"/>
<path d="M0 0 C0.85722656 0.27328125 1.71445312 0.5465625 2.59765625 0.828125 C4.9375 1.75 4.9375 1.75 7.9375 3.75 C7.9375 4.41 7.9375 5.07 7.9375 5.75 C7.29683594 5.55664062 6.65617188 5.36328125 5.99609375 5.1640625 C0.98639015 3.6559252 -4.02789857 2.17282214 -9.0625 0.75 C-5.60060026 -1.466901 -3.84557488 -1.27605803 0 0 Z " fill="#D9DAD9" transform="translate(542.0625,167.25)"/>
<path d="M0 0 C1.73205048 1.57459135 2.90146401 2.77373216 3.84375 4.9375 C5.25414543 7.45334049 6.64880307 8.31220824 9.125 9.75 C9.84945313 10.17796875 10.57390625 10.6059375 11.3203125 11.046875 C11.87460937 11.36140625 12.42890625 11.6759375 13 12 C12.01 12.495 12.01 12.495 11 13 C9.16015625 12.328125 9.16015625 12.328125 7.0625 11.25 C6.37285156 10.90453125 5.68320312 10.5590625 4.97265625 10.203125 C2.94545051 8.96673021 1.49138732 7.84802341 0 6 C-0.1875 2.8125 -0.1875 2.8125 0 0 Z " fill="#E0E0DF" transform="translate(500,149)"/>
<path d="M0 0 C0.33 0.99 0.66 1.98 1 3 C-6.59 2.34 -14.18 1.68 -22 1 C-22 0.67 -22 0.34 -22 0 C-14.48905184 -0.8388516 -7.49175465 -1.0773541 0 0 Z " fill="#DFDEDD" transform="translate(406,114)"/>
<path d="M0 0 C0.33 0 0.66 0 1 0 C2.01202288 7.17757765 1.88826175 13.81191259 1 21 C-1 19 -1 19 -1.23046875 16.93359375 C-1.13218936 11.22445487 -0.73090186 5.66448944 0 0 Z " fill="#ECDEE1" transform="translate(777,483)"/>
<path d="M0 0 C2.29644356 0.75848593 4.58640491 1.53097389 6.875 2.3125 C7.52597656 2.52583984 8.17695312 2.73917969 8.84765625 2.95898438 C12.46488484 4.20823342 13.81421256 4.72131884 16 8 C3.33029613 5.10933941 3.33029613 5.10933941 -2 2 C-1.34 1.34 -0.68 0.68 0 0 Z " fill="#181A1A" transform="translate(605,239)"/>
<path d="M0 0 C0.33 0.99 0.66 1.98 1 3 C-2.99584449 7.31503917 -6.46544279 10.7051836 -12 13 C-10.56652501 9.61042892 -8.81218308 7.7219322 -6 5.375 C-3.92339664 3.6266832 -1.92037235 1.92037235 0 0 Z " fill="#101212" transform="translate(684,228)"/>
<path d="M0 0 C0.66 0.33 1.32 0.66 2 1 C1.01 1.99 0.02 2.98 -1 4 C-1.66 3.67 -2.32 3.34 -3 3 C-2.01 2.01 -1.02 1.02 0 0 Z M-5 4 C-4.34 4.33 -3.68 4.66 -3 5 C-3.598125 5.70125 -4.19625 6.4025 -4.8125 7.125 C-7.1030424 9.93566331 -7.1030424 9.93566331 -8.5625 13.25 C-10 16 -10 16 -13 17 C-11.40956621 11.91061189 -8.2553049 8.12543357 -5 4 Z " fill="#1F2121" transform="translate(481,122)"/>
<path d="M0 0 C0.33 0 0.66 0 1 0 C1.94870788 6.85988773 1.94870788 13.14011227 1 20 C0.34 19.67 -0.32 19.34 -1 19 C-1.12086218 12.56744599 -0.82351864 6.38226945 0 0 Z " fill="#EBDFE2" transform="translate(765,610)"/>
<path d="M0 0 C0.78310547 0.30744141 0.78310547 0.30744141 1.58203125 0.62109375 C7.70748632 2.86316049 13.50382011 3.64787062 20 4 C20 4.33 20 4.66 20 5 C12.15617797 6.34884416 6.95016877 5.99849216 0 2 C0 1.34 0 0.68 0 0 Z " fill="#101212" transform="translate(624,215)"/>
<path d="M0 0 C0.33 0 0.66 0 1 0 C1.77040851 6.06696699 2.09706112 11.88514973 2 18 C1.34 18 0.68 18 0 18 C-0.1954625 15.75067773 -0.38108226 13.50049858 -0.5625 11.25 C-0.66691406 9.99703125 -0.77132813 8.7440625 -0.87890625 7.453125 C-0.97876723 4.60547636 -0.90584295 2.65713933 0 0 Z " fill="#ECDEE2" transform="translate(267,706)"/>
<path d="M0 0 C0.33 0 0.66 0 1 0 C1.8931507 6.58183362 1.95494281 12.42150508 1 19 C0.34 18.34 -0.32 17.68 -1 17 C-0.98251781 14.08047432 -0.86055367 11.27702115 -0.625 8.375 C-0.56828125 7.57320312 -0.5115625 6.77140625 -0.453125 5.9453125 C-0.31152018 3.96284502 -0.15697741 1.98130949 0 0 Z " fill="#EBE0E3" transform="translate(763,632)"/>
<path d="M0 0 C3.23861303 1.44424635 5.61969163 3.25772247 8.25 5.625 C8.95640625 6.25664062 9.6628125 6.88828125 10.390625 7.5390625 C10.92171875 8.02117187 11.4528125 8.50328125 12 9 C11.67 9.66 11.34 10.32 11 11 C9.72689688 10.06558465 8.456612 9.12732889 7.1875 8.1875 C6.47980469 7.66542969 5.77210938 7.14335937 5.04296875 6.60546875 C3.20038793 5.15747502 1.53635131 3.76898495 0 2 C0 1.34 0 0.68 0 0 Z " fill="#171818" transform="translate(591,229)"/>
<path d="M0 0 C0.66 0 1.32 0 2 0 C2.99 4.62 3.98 9.24 5 14 C4.01 13.67 3.02 13.34 2 13 C0.34950283 8.56971812 -0.22973141 4.70949382 0 0 Z " fill="#1A1B1B" transform="translate(361,189)"/>
<path d="M0 0 C2.93050271 1.34260917 5.20913591 2.87148538 7.625 5 C8.21539062 5.515625 8.80578125 6.03125 9.4140625 6.5625 C10.64090196 7.67451212 11.82916568 8.82916568 13 10 C12.01 10.495 12.01 10.495 11 11 C9.5344405 9.92646259 8.07779848 8.8407446 6.625 7.75 C5.81289063 7.14671875 5.00078125 6.5434375 4.1640625 5.921875 C2.03173222 4.02818096 1.05363296 2.61671482 0 0 Z " fill="#E3E3E2" transform="translate(470,175)"/>
<path d="M0 0 C4.10303158 0.46625359 7.16746984 0.84063943 10 4 C10.25 7.1875 10.25 7.1875 10 10 C9.01 10.495 9.01 10.495 8 11 C7.79375 9.906875 7.5875 8.81375 7.375 7.6875 C6.34336062 3.7714341 6.34336062 3.7714341 2.875 2.0625 C1.92625 1.711875 0.9775 1.36125 0 1 C0 0.67 0 0.34 0 0 Z " fill="#F4F3F2" transform="translate(646,200)"/>
<path d="M0 0 C3.21524305 1.40844718 5.32183868 3.10344786 7.75 5.625 C8.67039062 6.57246094 8.67039062 6.57246094 9.609375 7.5390625 C10.29773438 8.26222656 10.29773438 8.26222656 11 9 C10.01 9.33 9.02 9.66 8 10 C6.66070495 8.71451591 5.32871357 7.42141845 4 6.125 C2.88625 5.04605469 2.88625 5.04605469 1.75 3.9453125 C0 2 0 2 0 0 Z " fill="#DCDEDC" transform="translate(339,227)"/>
<path d="M0 0 C4.62 0.99 9.24 1.98 14 3 C13.34 3.66 12.68 4.32 12 5 C9.3984375 4.7578125 9.3984375 4.7578125 6.375 4.125 C5.37210938 3.92132813 4.36921875 3.71765625 3.3359375 3.5078125 C2.17964844 3.25644531 2.17964844 3.25644531 1 3 C0.67 2.01 0.34 1.02 0 0 Z " fill="#1F2020" transform="translate(513,162)"/>
<path d="M0 0 C3.4087928 1.3984791 4.87393835 2.85006933 6.75 6 C7.17796875 6.70125 7.6059375 7.4025 8.046875 8.125 C9 10 9 10 9 12 C5.37648747 10.79216249 4.84784764 9.70346858 2.8125 6.5625 C2.28269531 5.75941406 1.75289063 4.95632812 1.20703125 4.12890625 C0 2 0 2 0 0 Z " fill="#141616" transform="translate(436,136)"/>
<path d="M0 0 C0.66 0.33 1.32 0.66 2 1 C-2.75 5 -2.75 5 -5 5 C-5.2475 5.639375 -5.495 6.27875 -5.75 6.9375 C-7 9 -7 9 -9.125 9.75 C-10.053125 9.87375 -10.053125 9.87375 -11 10 C-9.54144353 6.31353859 -7.69770955 4.83856029 -4.375 2.75 C-3.55773437 2.22921875 -2.74046875 1.7084375 -1.8984375 1.171875 C-1.27195312 0.78515625 -0.64546875 0.3984375 0 0 Z " fill="#141616" transform="translate(359,121)"/>
<path d="M0 0 C3 2 3 2 3.58203125 4.53125 C3.65808594 5.5109375 3.73414063 6.490625 3.8125 7.5 C3.90144531 8.4796875 3.99039062 9.459375 4.08203125 10.46875 C4 13 4 13 2 15 C0.73694665 9.92523206 -0.27036084 5.27203646 0 0 Z " fill="#242626" transform="translate(460,205)"/>
<path d="M0 0 C0.66 0.33 1.32 0.66 2 1 C0.36041242 6.23272633 -1.38952035 11.15196636 -4 16 C-5.16161779 13.13421241 -4.9946154 11.98369837 -4.00390625 8.984375 C-3.52824219 7.91703125 -3.05257813 6.8496875 -2.5625 5.75 C-2.08941406 4.67234375 -1.61632812 3.5946875 -1.12890625 2.484375 C-0.75636719 1.66453125 -0.38382812 0.8446875 0 0 Z " fill="#1B1D1D" transform="translate(332,149)"/>
<path d="M0 0 C1.08667969 0.11988281 2.17335938 0.23976562 3.29296875 0.36328125 C4.12441406 0.47027344 4.95585937 0.57726562 5.8125 0.6875 C5.8125 1.0175 5.8125 1.3475 5.8125 1.6875 C0.73163204 2.53431133 -4.03578377 2.77788099 -9.1875 2.6875 C-6.51245717 -0.96369882 -4.27917944 -0.5061395 0 0 Z " fill="#232525" transform="translate(443.1875,160.3125)"/>
<path d="M0 0 C2 1 4 2 6 3 C7.87056791 3.2275015 9.74685958 3.40962811 11.625 3.5625 C12.62789063 3.64628906 13.63078125 3.73007813 14.6640625 3.81640625 C15.43492187 3.87699219 16.20578125 3.93757812 17 4 C17 4.33 17 4.66 17 5 C9.90370975 5.31461385 4.31715405 5.44572039 -2 2 C-1.34 1.34 -0.68 0.68 0 0 Z " fill="#A0A2A0" transform="translate(378,213)"/>
<path d="M0 0 C0.66 0.66 1.32 1.32 2 2 C1.04270084 3.12588014 0.08412105 4.2506715 -0.875 5.375 C-1.40867187 6.00148437 -1.94234375 6.62796875 -2.4921875 7.2734375 C-3.61432007 8.55836651 -4.79371975 9.79371975 -6 11 C-6.33 10.01 -6.66 9.02 -7 8 C-5.56640625 5.95703125 -5.56640625 5.95703125 -3.5625 3.8125 C-2.90378906 3.09707031 -2.24507813 2.38164062 -1.56640625 1.64453125 C-1.04949219 1.10183594 -0.53257812 0.55914062 0 0 Z " fill="#151818" transform="translate(372,148)"/>
<path d="M0 0 C0.33 0 0.66 0 1 0 C1.33 2.64 1.66 5.28 2 8 C2.33 8 2.66 8 3 8 C3 10.64 3 13.28 3 16 C1 15 1 15 0 12 C-0.068991 9.93854893 -0.08467727 7.87498599 -0.0625 5.8125 C-0.05347656 4.72582031 -0.04445313 3.63914063 -0.03515625 2.51953125 C-0.02355469 1.68808594 -0.01195312 0.85664063 0 0 Z " fill="#2D3230" transform="translate(586,148)"/>
<path d="M0 0 C0.66 0 1.32 0 2 0 C2 0.66 2 1.32 2 2 C1.38125 2.598125 0.7625 3.19625 0.125 3.8125 C-2.14873164 5.87279209 -2.14873164 5.87279209 -3.0625 8.6875 C-3.5265625 9.8321875 -3.5265625 9.8321875 -4 11 C-4.99 11.33 -5.98 11.66 -7 12 C-5.6393389 6.80474854 -3.64232612 3.82444243 0 0 Z " fill="#181919" transform="translate(596,128)"/>
<path d="M0 0 C-1.4317616 0.69937202 -2.87067032 1.38412718 -4.3125 2.0625 C-5.51326172 2.63677734 -5.51326172 2.63677734 -6.73828125 3.22265625 C-9 4 -9 4 -12 3 C-7.72960125 0.1530675 -5.02025722 -1.50287955 0 0 Z " fill="#1E2020" transform="translate(373,118)"/>
<path d="M0 0 C0.66 0.33 1.32 0.66 2 1 C-1.28804981 3.91227269 -3.59885603 5.49701212 -8 6 C-8.33 5.34 -8.66 4.68 -9 4 C-7.54618103 3.30300448 -6.08677047 2.61766134 -4.625 1.9375 C-3.40683594 1.36322266 -3.40683594 1.36322266 -2.1640625 0.77734375 C-1.44992187 0.52082031 -0.73578125 0.26429688 0 0 Z " fill="#E2E2E2" transform="translate(551,240)"/>
<path d="M0 0 C2.05893621 0.22325814 4.12233653 0.40705759 6.1875 0.5625 C7.27417969 0.64628906 8.36085938 0.73007813 9.48046875 0.81640625 C10.72763672 0.90728516 10.72763672 0.90728516 12 1 C12 1.33 12 1.66 12 2 C9.5622037 2.05397335 7.12560315 2.09365616 4.6875 2.125 C3.65206055 2.15013672 3.65206055 2.15013672 2.59570312 2.17578125 C-1.17135396 2.21217794 -2.78431704 2.14378864 -6 0 C-3 -1 -3 -1 0 0 Z " fill="#D0D0CF" transform="translate(513,217)"/>
<path d="M0 0 C3.3 0.99 6.6 1.98 10 3 C10 3.66 10 4.32 10 5 C5.80530429 4.40075776 1.99000166 3.42500059 -2 2 C-1.34 1.34 -0.68 0.68 0 0 Z " fill="#1A1C1B" transform="translate(615,187)"/>
<path d="M0 0 C0.53625 0.37125 1.0725 0.7425 1.625 1.125 C-6.80357143 3.41071429 -6.80357143 3.41071429 -11.375 3.125 C-4.30720339 -1.58686441 -4.30720339 -1.58686441 0 0 Z " fill="#151818" transform="translate(408.375,244.875)"/>
<path d="M0 0 C0.33 0.99 0.66 1.98 1 3 C0.01 3.495 0.01 3.495 -1 4 C-1.66 3.34 -2.32 2.68 -3 2 C-2.01 1.34 -1.02 0.68 0 0 Z M-4 5 C-3.34 5.33 -2.68 5.66 -2 6 C-3.65 7.65 -5.3 9.3 -7 11 C-7.66 10.67 -8.32 10.34 -9 10 C-7.35 8.35 -5.7 6.7 -4 5 Z " fill="#F3F2F1" transform="translate(439,226)"/>
<path d="M0 0 C2.29633824 3.44450737 2.54016485 5.93812283 3 10 C2.01 10 1.02 10 0 10 C-1.125 3.375 -1.125 3.375 0 0 Z " fill="#252827" transform="translate(565,143)"/>
<path d="M0 0 C4.03174806 0.27489191 5.56894631 0.53491576 8.375 3.5625 C8.91125 4.366875 9.4475 5.17125 10 6 C9.01 6 8.02 6 7 6 C7 5.34 7 4.68 7 4 C6.030625 3.71125 5.06125 3.4225 4.0625 3.125 C1 2 1 2 0 0 Z " fill="#F7F8F6" transform="translate(521,145)"/>
<path d="M0 0 C1.9453125 0.77734375 1.9453125 0.77734375 4.125 1.9375 C5.21167969 2.50791016 5.21167969 2.50791016 6.3203125 3.08984375 C6.87460937 3.39019531 7.42890625 3.69054687 8 4 C8 4.66 8 5.32 8 6 C4.08788267 4.84414715 1.1254959 3.64465038 -2 1 C-1.34 0.67 -0.68 0.34 0 0 Z " fill="#181A1A" transform="translate(358,239)"/>
<path d="M0 0 C3.0916909 2.52956528 3.90931332 5.22454612 5 9 C4.01 9.495 4.01 9.495 3 10 C0.96564469 6.27034861 0 4.33094958 0 0 Z " fill="#141616" transform="translate(463,218)"/>
<path d="M0 0 C1.66519519 0.34060811 3.33157466 0.67558396 5 1 C5 1.33 5 1.66 5 2 C-0.15171623 2.09038099 -4.91913204 1.84681133 -10 1 C-10 0.67 -10 0.34 -10 0 C-6.28363799 -0.76016496 -3.61877928 -1.16734815 0 0 Z " fill="#C7C7C6" transform="translate(435,199)"/>
<path d="M0 0 C2.71675995 0.36712972 4.61063713 0.72744599 6.875 2.3125 C8 4 8 4 7.6875 6.1875 C7.460625 6.785625 7.23375 7.38375 7 8 C5.76302083 6.50260417 4.52604167 5.00520833 3.2890625 3.5078125 C2.24749008 2.28948839 1.13339903 1.13339903 0 0 Z " fill="#242726" transform="translate(525,145)"/>
<path d="M0 0 C3.625 0.375 3.625 0.375 7 1 C7.33 1.99 7.66 2.98 8 4 C4.7 3.34 1.4 2.68 -2 2 C-1.34 1.34 -0.68 0.68 0 0 Z " fill="#1D1E1F" transform="translate(508,192)"/>
<path d="M0 0 C4.59037956 1.14759489 5.33669182 2.29039218 8 6 C7.01 6.33 6.02 6.66 5 7 C3.35 4.69 1.7 2.38 0 0 Z " fill="#E2E3E2" transform="translate(402,151)"/>
<path d="M0 0 C0.33 0.99 0.66 1.98 1 3 C0.01 3.33 -0.98 3.66 -2 4 C-2.33 6.31 -2.66 8.62 -3 11 C-3.33 11 -3.66 11 -4 11 C-4.8125 8.3125 -4.8125 8.3125 -5 5 C-2.5625 2.125 -2.5625 2.125 0 0 Z " fill="#1E2121" transform="translate(625,143)"/>
<path d="M0 0 C5.75 1.875 5.75 1.875 8 3 C8 3.66 8 4.32 8 5 C4.62537285 4.45276317 2.91765 3.9451 0 2 C0 1.34 0 0.68 0 0 Z " fill="#F2F2F1" transform="translate(601,240)"/>
<path d="M0 0 C3.16115776 1.36983503 3.9927092 1.9890638 6 5 C5.67 5.99 5.34 6.98 5 8 C0 2.25 0 2.25 0 0 Z " fill="#111313" transform="translate(336,220)"/>
<path d="M0 0 C2.31 1.98 4.62 3.96 7 6 C6.67 6.66 6.34 7.32 6 8 C1.3125 4.38671875 1.3125 4.38671875 0 3 C0 2.01 0 1.02 0 0 Z " fill="#E6E7E5" transform="translate(369,206)"/>
<path d="M0 0 C2.69082872 0.17635452 5.32851446 0.61835921 8 1 C8 1.33 8 1.66 8 2 C1.565 2.495 1.565 2.495 -5 3 C-3.68 2.34 -2.36 1.68 -1 1 C-0.67 0.67 -0.34 0.34 0 0 Z " fill="#1D2020" transform="translate(419,162)"/>
<path d="M0 0 C1.17219543 0.78345715 2.33763668 1.57702836 3.5 2.375 C4.47453125 3.03628906 4.47453125 3.03628906 5.46875 3.7109375 C5.9740625 4.13632813 6.479375 4.56171875 7 5 C7 5.66 7 6.32 7 7 C3.08597051 5.73058503 1.20927127 4.48832306 -1 1 C-0.67 0.67 -0.34 0.34 0 0 Z " fill="#101313" transform="translate(621,154)"/>
<path d="M0 0 C3.465 1.98 3.465 1.98 7 4 C7 4.66 7 5.32 7 6 C4.03824877 5.38722388 2.61941217 4.74627478 0 3 C0 2.01 0 1.02 0 0 Z " fill="#E3E4E3" transform="translate(623,211)"/>
<path d="M0 0 C2.29633824 3.44450737 2.54016485 5.93812283 3 10 C0 8 0 8 -0.75 5 C-1 2 -1 2 0 0 Z " fill="#1A1C1C" transform="translate(687,144)"/>
<path d="M0 0 C3.36720387 1.39332574 4.9859524 2.9789286 7 6 C4 6 4 6 1.8125 4.125 C0 2 0 2 0 0 Z " fill="#1F2121" transform="translate(674,126)"/>
<path d="M0 0 C3.82097239 0.53069061 6.06171403 1.49701566 9 4 C8.01 4.495 8.01 4.495 7 5 C4.64018187 4.06421005 2.30368736 3.06652192 0 2 C0 1.34 0 0.68 0 0 Z " fill="#121414" transform="translate(414,120)"/>
<path d="M0 0 C2.01136276 2.55991624 3.62845496 5.04590299 5 8 C4.01 8 3.02 8 2 8 C-0.1519437 4.77208445 -0.20086443 3.71599191 0 0 Z " fill="#F3F4F3" transform="translate(498,205)"/>
<path d="M0 0 C3.1875 0.875 3.1875 0.875 6 2 C6 2.66 6 3.32 6 4 C1.545 3.01 1.545 3.01 -3 2 C-2.01 1.34 -1.02 0.68 0 0 Z " fill="#2E2F2E" transform="translate(635,193)"/>
<path d="M0 0 C2.88437779 1.29299694 4.87219421 2.65941363 7 5 C6.67 5.66 6.34 6.32 6 7 C1.125 3.375 1.125 3.375 0 0 Z " fill="#1D1E1D" transform="translate(593,174)"/>
<path d="M0 0 C2 1 2 1 2.9375 2.9375 C3.95345922 5.31971493 3.95345922 5.31971493 7 7 C4.625 7.1875 4.625 7.1875 2 7 C0 4 0 4 0 0 Z " fill="#030504" transform="translate(411,157)"/>
<path d="M0 0 C0.33 0 0.66 0 1 0 C1.433125 1.3921875 1.433125 1.3921875 1.875 2.8125 C2.8875 6.09791667 2.8875 6.09791667 5 9 C3.125 8.75 3.125 8.75 1 8 C-0.3125 6.1875 -0.3125 6.1875 -1 4 C-0.625 1.75 -0.625 1.75 0 0 Z " fill="#121515" transform="translate(499,150)"/>
<path d="M0 0 C0.33 0.99 0.66 1.98 1 3 C-0.65 4.32 -2.3 5.64 -4 7 C-4 4 -4 4 -2 1.8125 C-1.34 1.214375 -0.68 0.61625 0 0 Z " fill="#E5E5E4" transform="translate(598,123)"/>
</svg>
