<?xml version="1.0" encoding="UTF-8"?>
<svg version="1.1" xmlns="http://www.w3.org/2000/svg" width="1536" height="1024">
<path d="M0 0 C506.88 0 1013.76 0 1536 0 C1536 337.92 1536 675.84 1536 1024 C1029.12 1024 522.24 1024 0 1024 C0 686.08 0 348.16 0 0 Z " fill="#FEFEFE" transform="translate(0,0)"/>
<path d="M0 0 C116.49 0 232.98 0 353 0 C353 112.86 353 225.72 353 342 C236.51 342 120.02 342 0 342 C0 229.14 0 116.28 0 0 Z " fill="#FA528F" transform="translate(1096,250)"/>
<path d="M0 0 C14.18364811 -0.5943624 28.99838371 3.48467726 39.94140625 12.6328125 C44.18074742 16.74819633 48.13123234 20.96942812 50.98828125 26.1640625 C50.98828125 26.8240625 50.98828125 27.4840625 50.98828125 28.1640625 C48.75 29.64453125 48.75 29.64453125 45.67578125 31.3515625 C40.39190005 34.33157133 35.30875682 37.50941289 30.265625 40.87890625 C27.98828125 42.1640625 27.98828125 42.1640625 24.98828125 42.1640625 C23.55859375 40.5546875 23.55859375 40.5546875 22.11328125 38.4140625 C18.57160995 33.48878988 15.25857437 29.95925382 9.14453125 28.484375 C2.95179986 27.56444026 -2.84381858 27.13716242 -8.57421875 29.8515625 C-12.87104188 33.92803573 -14.19810698 36.61768484 -14.44921875 42.5390625 C-14.24628959 47.75224261 -13.76646569 51.40655715 -10.01171875 55.1640625 C-1.08566731 60.41710331 8.77746222 64.08410212 18.36523438 67.93164062 C34.45983518 74.56671401 47.85452941 83.77638782 54.98828125 100.1640625 C59.36072577 111.89016372 57.87420441 125.87012173 52.98828125 137.1640625 C47.16212198 148.60387674 37.99493616 155.20681294 25.98828125 159.1640625 C25.04855469 159.48375 24.10882812 159.8034375 23.140625 160.1328125 C6.30683471 164.92345638 -13.53791807 164.11045151 -28.96484375 155.51953125 C-39.66385218 148.42423075 -47.82580602 138.35216392 -54.01171875 127.1640625 C-54.01171875 126.5040625 -54.01171875 125.8440625 -54.01171875 125.1640625 C-50.08237463 123.12706986 -46.14205564 121.11229698 -42.19921875 119.1015625 C-41.07966797 118.52083984 -39.96011719 117.94011719 -38.80664062 117.34179688 C-37.73349609 116.79716797 -36.66035156 116.25253906 -35.5546875 115.69140625 C-34.5649292 115.18343506 -33.5751709 114.67546387 -32.55541992 114.15209961 C-30.01171875 113.1640625 -30.01171875 113.1640625 -27.01171875 114.1640625 C-25.15457568 116.82655434 -23.56407551 119.60078576 -21.92578125 122.40234375 C-17.35933086 128.99107931 -9.58808985 132.94992323 -1.94921875 134.9765625 C-0.97984375 135.0384375 -0.01046875 135.1003125 0.98828125 135.1640625 C1.67535156 135.2259375 2.36242188 135.2878125 3.0703125 135.3515625 C8.84348198 135.66628383 13.27716337 134.61149229 17.98828125 131.1640625 C19.96124303 128.68652753 19.96124303 128.68652753 20.98828125 126.1640625 C21.31828125 125.5040625 21.64828125 124.8440625 21.98828125 124.1640625 C22.76471889 117.5754345 22.40917737 112.56630708 18.66796875 107.015625 C13.81091147 101.66156651 8.62125815 98.7751297 2.11328125 95.8515625 C0.41752295 95.06476218 -1.27778238 94.27698493 -2.97265625 93.48828125 C-5.40751452 92.36460762 -7.84281227 91.24189338 -10.27832031 90.11962891 C-25.50252824 83.04061453 -38.10882964 74.73374334 -44.25 58.4609375 C-48.0500722 47.00225826 -46.77837669 34.13379855 -41.94921875 23.2265625 C-35.90704255 11.79209534 -26.20354035 6.07979561 -14.32421875 1.8515625 C-9.55153607 0.86100572 -4.85028504 0.39555723 0 0 Z " fill="#0A0A0C" transform="translate(1361.01171875,398.8359375)"/>
<path d="M0 0 C10.56 0 21.12 0 32 0 C32.04532927 14.34392331 32.0819612 28.68779842 32.10362434 43.03177738 C32.11402575 49.69349783 32.12811791 56.35515252 32.15087891 63.0168457 C32.17273778 69.4553878 32.18459597 75.89388023 32.18975449 82.33245659 C32.19342694 84.77901426 32.20059779 87.22556947 32.21146011 89.67210579 C32.39531541 132.83001575 32.39531541 132.83001575 17.37890625 148.71484375 C7.60041825 157.93054108 -6.68644863 160.94576903 -19.75 161.375 C-33.63303065 160.88283939 -46.27802761 154.77881399 -55.73046875 144.74609375 C-59.28718022 140.44253409 -62.22355747 135.83579063 -65 131 C-64.52167725 130.66266846 -64.04335449 130.32533691 -63.55053711 129.9777832 C-61.34603978 128.42290365 -59.1417687 126.86770364 -56.9375 125.3125 C-56.18533203 124.78205078 -55.43316406 124.25160156 -54.65820312 123.70507812 C-53.91376953 123.17978516 -53.16933594 122.65449219 -52.40234375 122.11328125 C-51.6635498 121.59330566 -50.92475586 121.07333008 -50.16357422 120.53759766 C-48.75053517 119.53338643 -47.34545264 118.51785783 -45.94970703 117.48974609 C-41.20192901 114 -41.20192901 114 -39 114 C-38.63648438 114.80824219 -38.27296875 115.61648438 -37.8984375 116.44921875 C-34.00263598 125.08959538 -34.00263598 125.08959538 -27 131 C-20.6919073 133.10269757 -15.1031602 133.66677233 -8.875 131.09765625 C-5.09652873 128.88567619 -3.55702391 126.03551524 -2.4211216 121.88462257 C-1.04673676 115.34273025 -0.69514658 109.07270693 -0.68115234 102.39990234 C-0.67110672 101.28653503 -0.6610611 100.17316772 -0.65071106 99.02606201 C-0.62004496 95.37935866 -0.60289009 91.73272816 -0.5859375 88.0859375 C-0.56721253 85.54431539 -0.54763814 83.00269941 -0.5272522 80.46109009 C-0.48128537 74.47614893 -0.44382722 68.49121414 -0.41057932 62.50619376 C-0.37221161 55.68620357 -0.32284041 48.86630648 -0.27259517 42.04639506 C-0.16958153 28.03099239 -0.08167488 14.01554244 0 0 Z " fill="#0A0B0C" transform="translate(1256,401)"/>
<path d="M0 0 C14.40434097 11.80896422 22.59327446 27.00260899 26.6015625 45.1328125 C26.80652344 45.98230469 27.01148438 46.83179688 27.22265625 47.70703125 C30.43496224 63.23686917 29.44298728 79.83363154 25.6015625 95.1328125 C25.33472656 96.23625 25.06789063 97.3396875 24.79296875 98.4765625 C21.12545879 111.90779898 14.5817462 123.41947863 4.6015625 133.1328125 C4.01246094 133.75414062 3.42335938 134.37546875 2.81640625 135.015625 C-8.54005923 146.1474571 -24.9882293 151.12166233 -40.5234375 151.4453125 C-55.55561985 151.04266476 -68.29301288 147.21768971 -80.3984375 138.1328125 C-81.21699219 137.52050781 -82.03554688 136.90820312 -82.87890625 136.27734375 C-92.36421057 128.20380565 -96.44605925 117.45253421 -101.3984375 106.1328125 C-101.3984375 138.1428125 -101.3984375 170.1528125 -101.3984375 203.1328125 C-103.7084375 203.1328125 -106.0184375 203.1328125 -108.3984375 203.1328125 C-109.15881721 176.19829916 -109.54343909 149.2892337 -109.49983144 122.3443923 C-109.49339857 117.66409567 -109.49297891 112.98379769 -109.49180603 108.30349731 C-109.48874948 99.51818831 -109.4806163 90.73289239 -109.47045654 81.94758904 C-109.45911441 71.91295048 -109.4537403 61.87831116 -109.44876111 51.84366775 C-109.43842592 31.27337548 -109.42094183 10.70309483 -109.3984375 -9.8671875 C-107.39889004 -9.90973106 -105.39802114 -9.90799533 -103.3984375 -9.8671875 C-101.26757308 -7.73632308 -102.13882878 -2.97551815 -102.08203125 -0.01953125 C-102.06125015 0.8668956 -102.04046906 1.75332245 -102.01905823 2.66661072 C-101.9534635 5.5094295 -101.89463198 8.35234367 -101.8359375 11.1953125 C-101.7927617 13.11784856 -101.74914772 15.04037484 -101.70507812 16.96289062 C-101.59777207 21.68609918 -101.49653299 26.40940403 -101.3984375 31.1328125 C-100.9972168 30.10075684 -100.59599609 29.06870117 -100.18261719 28.00537109 C-99.64541462 26.63890604 -99.10796676 25.27253739 -98.5703125 23.90625 C-98.30718262 23.22747803 -98.04405273 22.54870605 -97.77294922 21.84936523 C-92.43802988 8.34791552 -81.44976807 -0.89825729 -68.3984375 -6.8671875 C-64.77897927 -8.38405589 -61.14448939 -9.6990034 -57.3984375 -10.8671875 C-56.67269531 -11.0940625 -55.94695312 -11.3209375 -55.19921875 -11.5546875 C-36.66689041 -16.48750687 -14.98825846 -11.44174097 0 0 Z M-84.3984375 12.1328125 C-101.3019949 33.22397826 -104.76369695 56.7874975 -102.1484375 83.10546875 C-101.36902979 89.87242745 -100.15668592 95.85738933 -97.3984375 102.1328125 C-97.12225586 102.7633252 -96.84607422 103.39383789 -96.56152344 104.04345703 C-91.31068644 115.80076596 -84.92726963 126.35875241 -74.3984375 134.1328125 C-73.80675781 134.57238281 -73.21507812 135.01195312 -72.60546875 135.46484375 C-59.57424466 144.35831833 -42.0099899 146.28994803 -26.71875 143.44921875 C-23.5048756 142.52050924 -20.48007722 141.4324961 -17.3984375 140.1328125 C-16.46773438 139.74351562 -15.53703125 139.35421875 -14.578125 138.953125 C0.86485001 131.51761851 10.17964523 117.43829679 15.9140625 101.7578125 C23.97271016 78.16082521 23.51836416 49.43527474 12.55859375 26.80078125 C5.53587122 13.18299065 -5.47986839 1.37518221 -20.2109375 -3.7421875 C-42.57920478 -10.57813766 -68.50715797 -5.34499412 -84.3984375 12.1328125 Z " fill="#1A1A1B" transform="translate(489.3984375,419.8671875)"/>
<path d="M0 0 C16.96112093 -0.59277875 33.01757755 4.3618201 45.71484375 15.81640625 C65.29299832 34.40471879 67.72196435 56.09093879 68.96484375 82.19140625 C26.72484375 82.19140625 -15.51515625 82.19140625 -59.03515625 82.19140625 C-56.48165384 106.44967917 -52.92379408 129.55093125 -33.62890625 146.27734375 C-19.21356854 157.08884703 -1.47288624 157.7882362 15.84375 155.73046875 C30.54247405 152.72350956 42.16274698 144.25255208 50.40234375 131.8359375 C54.43939198 125.00323337 57.29332441 117.64353914 59.96484375 110.19140625 C62.93484375 110.19140625 65.90484375 110.19140625 68.96484375 110.19140625 C63.4610235 128.45113932 54.54776311 145.08274785 37.52734375 154.94140625 C18.57195758 164.68055294 -0.51014557 166.33369387 -21.03515625 161.19140625 C-36.96397163 155.99722732 -49.44366804 143.82714912 -57.03515625 129.19140625 C-68.63826193 104.30491366 -71.32607025 73.89785723 -62.20556641 47.81933594 C-54.8505572 28.34151753 -43.0438658 14.11873815 -24.03515625 5.19140625 C-16.04781003 2.09953029 -8.47506795 0.53446374 0 0 Z M-39.56640625 23.46484375 C-53.13882026 38.45463011 -58.03515625 56.30231744 -58.03515625 76.19140625 C-18.76515625 76.19140625 20.50484375 76.19140625 60.96484375 76.19140625 C60.96484375 55.89682635 57.7151 38.49897524 43.36938477 23.32739258 C36.21333437 16.18590427 27.89835555 10.49842147 17.96484375 8.19140625 C17.23265625 8.00835937 16.50046875 7.8253125 15.74609375 7.63671875 C-4.66824989 4.36813002 -24.56442095 8.85996983 -39.56640625 23.46484375 Z " fill="#181819" transform="translate(686.03515625,406.80859375)"/>
<path d="M0 0 C0.63164063 0.42796875 1.26328125 0.8559375 1.9140625 1.296875 C12.36087077 9.1204759 15.83174573 21.95253505 17.6875 34.25 C17.790625 35.1575 17.89375 36.065 18 37 C15.36 37 12.72 37 10 37 C9.90203125 36.23816406 9.8040625 35.47632813 9.703125 34.69140625 C8.10851507 23.68034977 4.75034239 13.70878566 -4 6.30859375 C-12.47481757 0.27028623 -21.66483718 -2.61243139 -32 -3 C-33.2065625 -3.07734375 -33.2065625 -3.07734375 -34.4375 -3.15625 C-48.23435688 -3.66101306 -64.59282434 -1.54837815 -75.1796875 7.95703125 C-76.96076388 9.88960998 -78.50210305 11.8432041 -80 14 C-80.61875 14.886875 -81.2375 15.77375 -81.875 16.6875 C-84.56592704 24.61078517 -84.89619447 33.13890072 -82 41 C-77.6635302 49.33936499 -69.62689104 53.95673201 -61 57 C-52.82277436 59.5493068 -44.47960968 61.34798565 -36.11694336 63.16455078 C6.7165083 72.47911277 6.7165083 72.47911277 17 86 C23.12100631 96.16087047 25.00998679 107.30537145 22.31640625 118.95703125 C21.37381136 121.44063189 20.30271371 123.68586261 19 126 C18.34644531 127.16789062 18.34644531 127.16789062 17.6796875 128.359375 C9.4336244 141.78739032 -3.60515327 147.61078783 -18.46484375 151.25390625 C-23.00138093 152.21134117 -27.37018505 152.82164437 -32 153 C-32.89589844 153.0515625 -33.79179688 153.103125 -34.71484375 153.15625 C-51.56042441 153.69892642 -70.2334214 149.30800467 -83.19140625 138.10546875 C-93.41228727 127.6518542 -97.77881397 111.91184395 -98.0703125 97.53125 C-98.04710937 96.6959375 -98.02390625 95.860625 -98 95 C-95.69 95 -93.38 95 -91 95 C-90.76925781 96.16015625 -90.53851562 97.3203125 -90.30078125 98.515625 C-87.2045223 113.58462417 -83.85152029 127.82130196 -70.20703125 136.84765625 C-53.49889244 145.8307639 -30.84031561 147.23610345 -12.6484375 141.96875 C-3.25720384 138.53360848 4.6020515 134.1788566 9.5703125 125.14453125 C13.68555386 116.24385207 15.7871988 107.88025238 13.24609375 98.09765625 C10.02549702 89.69884516 5.71432867 85.3590161 -2 81 C-4.48146823 79.90507278 -6.81586825 78.96731315 -9.375 78.125 C-10.10686523 77.88015869 -10.83873047 77.63531738 -11.59277344 77.38305664 C-21.37884449 74.31164983 -31.52154398 72.50478155 -41.59130859 70.62353516 C-58.92560738 67.32630404 -78.4669894 62.27151151 -89 47 C-93.81629533 38.55035907 -93.88478577 29.44019119 -92 20.125 C-89.29584158 10.25167741 -83.18894191 2.90415807 -74.63671875 -2.5703125 C-53.17164404 -14.20915301 -20.02944057 -14.7428596 0 0 Z " fill="#1A191A" transform="translate(1021,418)"/>
<path d="M0 0 C9.86999533 6.98274709 17.01580981 16.68634666 19.33203125 28.75 C19.81705182 32.08114822 20.2070988 35.3820455 20.45703125 38.73828125 C17.81703125 38.73828125 15.17703125 38.73828125 12.45703125 38.73828125 C12.286875 37.74828125 12.11671875 36.75828125 11.94140625 35.73828125 C10.10057996 25.23565904 10.10057996 25.23565904 5.45703125 15.73828125 C4.89628906 14.85462891 4.89628906 14.85462891 4.32421875 13.953125 C-2.4987553 4.65835496 -14.07885697 0.9750513 -24.98828125 -0.83203125 C-40.82181922 -2.7459754 -59.02193095 -0.90684462 -72.015625 9.1640625 C-77.83267346 15.1596393 -80.97189359 22.78896316 -81.91796875 30.98828125 C-81.09997599 39.16820888 -78.23432768 45.78089563 -72.54296875 51.73828125 C-69.50359812 53.78881129 -69.50359812 53.78881129 -66.10546875 55.36328125 C-65.01363281 55.91242188 -63.92179688 56.4615625 -62.796875 57.02734375 C-51.35124063 61.9802135 -38.74482275 64.10445782 -26.57739258 66.59008789 C-8.73090147 70.25493467 9.12095686 74.26571782 20.45703125 89.73828125 C26.22817703 99.22303389 27.06707757 110.16646342 24.7734375 120.953125 C21.07700393 131.88904672 13.44075827 140.72558207 3.4453125 146.46875 C-6.63134516 151.39160447 -17.35172363 154.08578816 -28.54296875 154.73828125 C-29.73019531 154.81755859 -29.73019531 154.81755859 -30.94140625 154.8984375 C-47.89144481 155.48379919 -66.60782745 151.05359542 -79.54296875 139.73828125 C-81.86884756 137.23658007 -83.75825247 134.64691696 -85.54296875 131.73828125 C-85.9090625 131.14660156 -86.27515625 130.55492187 -86.65234375 129.9453125 C-92.29559496 119.76575551 -94.16143065 108.22257813 -94.54296875 96.73828125 C-91.90296875 96.73828125 -89.26296875 96.73828125 -86.54296875 96.73828125 C-86.45321777 97.28129883 -86.3634668 97.82431641 -86.27099609 98.38378906 C-83.78187319 113.0333468 -80.9477728 127.22308529 -68.84375 137.12890625 C-54.47729711 147.12819841 -32.68917164 147.94837055 -15.8984375 145.0546875 C-4.84332361 142.72513461 4.35509084 138.59850538 10.984375 129.2109375 C16.00538572 120.78043409 17.65558107 112.49617171 16.45703125 102.73828125 C14.67196877 95.8080387 11.62375251 89.46678511 5.4765625 85.44140625 C-7.43709417 78.43298956 -22.54138096 75.66609653 -36.79296875 72.67578125 C-75.63210255 64.51211588 -75.63210255 64.51211588 -85.046875 50.5 C-90.38312096 41.21097925 -91.21904535 30.78597894 -88.7421875 20.37109375 C-85.20694531 11.01667284 -78.62234125 2.73829744 -69.8515625 -2.23828125 C-48.74752325 -11.59404823 -20.12619869 -12.160207 0 0 Z " fill="#191819" transform="translate(872.54296875,416.26171875)"/>
<path d="M0 0 C46.86 0 93.72 0 142 0 C142 1.98 142 3.96 142 6 C74.185 5.505 74.185 5.505 5 5 C5 37.67 5 70.34 5 104 C12.59 104 20.18 104 28 104 C32.02249951 104.02287397 36.04397056 104.04907882 40.06616211 104.09179688 C41.07413849 104.10155045 42.08211487 104.11130402 43.12063599 104.12135315 C46.33955012 104.15275606 49.5584459 104.18572405 52.77734375 104.21875 C55.05375574 104.24126908 57.33016873 104.26368732 59.60658264 104.28601074 C65.51312267 104.34419645 71.41964838 104.40372442 77.32617188 104.46356201 C83.38736152 104.52471889 89.44856411 104.58456482 95.50976562 104.64453125 C107.33985654 104.76176023 119.16993271 104.88041164 131 105 C131 106.65 131 108.3 131 110 C89.42 110 47.84 110 5 110 C5.33 112.97 5.66 115.94 6 119 C6.06434597 120.52387758 6.10117107 122.04984781 6.08229065 123.57496643 C6.0717621 124.7522838 6.0717621 124.7522838 6.06102085 125.95338535 C6.04805438 126.78289172 6.03508791 127.61239809 6.02172852 128.46704102 C6.01193686 129.38004691 6.00214521 130.29305281 5.99205685 131.23372555 C5.95946761 134.15720587 5.91936463 137.08052541 5.87890625 140.00390625 C5.85753274 141.82156809 5.83665686 143.63923585 5.81628418 145.45690918 C5.73770673 152.15884604 5.64953381 158.86066762 5.5625 165.5625 C5.376875 180.556875 5.19125 195.55125 5 211 C50.21 211 95.42 211 142 211 C142 212.65 142 214.3 142 216 C71.71 216.495 71.71 216.495 0 217 C0 145.39 0 73.78 0 0 Z " fill="#1D1D1D" transform="translate(77,350)"/>
<path d="M0 0 C3.2672537 -0.64178198 4.87461918 -0.91224414 8 0 C10.76503104 2.70681986 12.71094216 5.89447948 14.78515625 9.14697266 C17.12153129 12.71069584 19.67586267 16.12128607 22.1875 19.5625 C23.3173958 21.12428457 24.44628804 22.68679564 25.57421875 24.25 C26.14188965 25.03632813 26.70956055 25.82265625 27.29443359 26.6328125 C28.95671622 28.93992563 30.61386013 31.25063903 32.26953125 33.5625 C40.89542733 45.58931499 49.70643148 57.47775797 59 69 C66.17098743 60.11816786 73.20379815 51.17301561 80 42 C81.49874421 39.99905877 82.99875574 37.9990662 84.5 36 C85.24765625 35.00226563 85.9953125 34.00453125 86.765625 32.9765625 C88.2101864 31.05216427 89.65789205 29.13012051 91.109375 27.2109375 C91.81578125 26.27507812 92.5221875 25.33921875 93.25 24.375 C94.35408203 22.92480469 94.35408203 22.92480469 95.48046875 21.4453125 C97.47628842 18.77177448 99.3316882 16.02230994 101.17578125 13.2421875 C101.73555664 12.41799316 102.29533203 11.59379883 102.87207031 10.74462891 C103.98098154 9.10816805 105.06851435 7.45697129 106.13183594 5.79052734 C109.93032623 0.24977397 109.93032623 0.24977397 113.18310547 -0.50976562 C115.40234375 -0.515625 115.40234375 -0.515625 119 0 C116.04218092 4.6383981 112.98198173 9.11257409 109.5 13.375 C105.67456891 18.07709239 102.0780945 22.92192321 98.5 27.8125 C93.34710735 34.8515881 88.11501313 41.82293004 82.8125 48.75 C76.43117886 57.08817758 70.16318961 65.49949908 64 74 C65.60424566 77.60955273 67.81158078 80.46603056 70.25 83.5625 C74.52062367 89.03057616 78.65557119 94.58651748 82.75 100.1875 C88.07603426 107.45856142 93.53499984 114.6106654 99.08959961 121.70825195 C103.08863602 126.81910776 107.02700831 131.96525746 110.890625 137.1796875 C112.42149684 139.22651985 113.96951721 141.24757081 115.546875 143.2578125 C115.96735107 143.80002441 116.38782715 144.34223633 116.82104492 144.90087891 C117.9905744 146.40735247 119.1688374 147.90703423 120.34765625 149.40625 C122 152 122 152 122 156 C118.8515625 156.4296875 118.8515625 156.4296875 115 156 C112.62144557 154.07257754 111.06645912 151.65645143 109.375 149.125 C108.8699292 148.41118164 108.3648584 147.69736328 107.84448242 146.96191406 C106.76749823 145.43777066 105.69995101 143.90692254 104.64111328 142.37011719 C102.46570433 139.22836323 100.22307289 136.13778205 97.97827148 133.04541016 C96.32272383 130.7640883 94.67655741 128.47621403 93.03125 126.1875 C90.49883352 122.67621929 87.92176596 119.20452114 85.3125 115.75 C81.75517389 111.03929675 78.30399047 106.26372183 74.89233398 101.44726562 C72.60274249 98.22120575 70.28381548 95.02123732 67.921875 91.84765625 C67.41382324 91.16356689 66.90577148 90.47947754 66.38232422 89.7746582 C65.39315423 88.44599174 64.40010963 87.12019929 63.40283203 85.79760742 C60 81.2208538 60 81.2208538 60 79 C59.34 79 58.68 79 58 79 C57.7628125 79.70253906 57.525625 80.40507812 57.28125 81.12890625 C55.76751469 84.52096557 53.81525072 87.03244648 51.5 89.9375 C47.96931234 94.42564062 44.54334888 98.9598178 41.25 103.625 C37.29453691 109.2160088 33.25977298 114.74350594 29.1875 120.25 C23.88744893 127.41839877 18.63831758 134.62104181 13.43823242 141.86230469 C12.45383112 143.23121023 11.46559136 144.59736536 10.47314453 145.96044922 C9.44211994 147.38789029 8.42884209 148.82824111 7.42919922 150.27783203 C6.91373535 151.00728027 6.39827148 151.73672852 5.8671875 152.48828125 C5.40940918 153.14997314 4.95163086 153.81166504 4.47998047 154.4934082 C3 156 3 156 -0.875 156.5 C-1.90625 156.335 -2.9375 156.17 -4 156 C-3.53410671 151.23558182 -1.28341352 148.42619842 1.6875 144.875 C2.68501357 143.64543239 3.67965124 142.41352778 4.671875 141.1796875 C5.20619141 140.51549805 5.74050781 139.85130859 6.29101562 139.16699219 C9.43401469 135.18166937 12.4327355 131.08996121 15.4375 127 C16.02813232 126.19933105 16.61876465 125.39866211 17.22729492 124.57373047 C19.67182197 121.2446407 22.07235443 117.92570074 24.28515625 114.4375 C24.85105469 113.633125 25.41695313 112.82875 26 112 C26.66 112 27.32 112 28 112 C28.26683594 111.25878906 28.53367187 110.51757812 28.80859375 109.75390625 C29.97537389 107.05692265 31.21512456 105.20413795 33.0625 102.9375 C40.33128747 93.84397543 47.18356814 84.43527898 54 75 C51.02433404 69.4551005 47.54617734 64.66073001 43.625 59.75 C36.8173214 51.11079127 30.26652254 42.30533898 23.77636719 33.42626953 C21.34005419 30.09860617 18.89100816 26.78040613 16.44189453 23.4621582 C14.13437567 20.33513218 11.83049576 17.20543848 9.52734375 14.07519531 C8.55666512 12.75633848 7.58538025 11.43792745 6.61328125 10.12011719 C5.44821549 8.54010878 4.28644433 6.95767238 3.125 5.375 C2.20074219 4.11816406 2.20074219 4.11816406 1.2578125 2.8359375 C0 1 0 1 0 0 Z " fill="#181718" transform="translate(231,410)"/>
<path d="M0 0 C0 2.64 0 5.28 0 8 C-1.14855469 8.02578125 -2.29710937 8.0515625 -3.48046875 8.078125 C-19.33071067 8.59008593 -32.63737302 11.25218919 -44.125 22.9375 C-58.82198245 40.59144505 -59.60002945 64.4868193 -59.609375 86.39453125 C-59.62440742 88.44961312 -59.64114484 90.50468314 -59.65948486 92.55973816 C-59.70260343 97.89090625 -59.72303215 103.22191165 -59.73822021 108.55322266 C-59.75799472 114.02450976 -59.79993954 119.49562611 -59.83984375 124.96679688 C-59.91454234 135.64447784 -59.96519593 146.32211951 -60 157 C-61.98 157 -63.96 157 -66 157 C-66 105.52 -66 54.04 -66 1 C-64.02 1 -62.04 1 -60 1 C-59.67 13.21 -59.34 25.42 -59 38 C-57.35 33.38 -55.7 28.76 -54 24 C-46.76768527 12.93881276 -37.47871644 6.21647464 -25 2 C-24.27425781 1.75378906 -23.54851563 1.50757813 -22.80078125 1.25390625 C-15.43102597 -0.78154997 -7.57398566 -0.16727821 0 0 Z " fill="#181818" transform="translate(613,409)"/>
<path d="M0 0 C0.33 0 0.66 0 1 0 C1 9.24 1 18.48 1 28 C2.485 28.495 2.485 28.495 4 29 C4.33 27.35 4.66 25.7 5 24 C7 26 7 26 7.15234375 28.0390625 C5.58460246 46.90896677 -2.43492334 64.79762592 -16 78 C-16.88365234 78.93199219 -16.88365234 78.93199219 -17.78515625 79.8828125 C-29.14162173 91.0146446 -45.5897918 95.98884983 -61.125 96.3125 C-76.15718235 95.90985226 -88.89457538 92.08487721 -101 83 C-101.81855469 82.38769531 -102.63710938 81.77539062 -103.48046875 81.14453125 C-112.73150111 73.27039673 -117.95775571 62.21690297 -122 51 C-122 50.01 -122 49.02 -122 48 C-120.35 48 -118.7 48 -117 48 C-116.27296875 49.45019531 -116.27296875 49.45019531 -115.53125 50.9296875 C-107.0951242 67.45096564 -97.20831531 79.97124144 -79 86 C-63.40057898 90.94931797 -46.81547425 88.46424699 -32.375 81.4375 C-16.00956529 71.91882879 -7.89918555 55.58216332 -3 38 C-0.12458148 25.65007745 -0.38250308 12.61638223 0 0 Z " fill="#171617" transform="translate(510,475)"/>
<path d="M0 0 C1.99954746 -0.04254356 4.00041636 -0.04080783 6 0 C8.16485512 2.16485512 7.16427804 7.20588268 7.16796875 10.21484375 C7.17129715 11.14091934 7.17462555 12.06699493 7.17805481 13.02113342 C7.18312808 14.98405458 7.18546301 16.9469844 7.18530273 18.90991211 C7.18748817 21.92120511 7.20563674 24.93213134 7.22460938 27.94335938 C7.22754336 29.84635291 7.22952812 31.74934819 7.23046875 33.65234375 C7.23765427 34.55758286 7.24483978 35.46282196 7.25224304 36.39549255 C7.24916641 37.23298538 7.24608978 38.07047821 7.24291992 38.93334961 C7.24434494 39.67201767 7.24576996 40.41068573 7.24723816 41.17173767 C7 43 7 43 5 45 C5 30.48 5 15.96 5 1 C4.34 1 3.68 1 3 1 C3 69.97 3 138.94 3 210 C3.66 210 4.32 210 5 210 C4.99555878 208.82902267 4.99111755 207.65804535 4.98654175 206.45158386 C4.94604377 195.43013746 4.91603875 184.40870611 4.89637566 173.38720226 C4.88592694 167.72058708 4.87174787 162.05403185 4.84912109 156.38745117 C4.82743155 150.92154156 4.81543958 145.45568969 4.81024551 139.98974037 C4.80654276 137.90168664 4.79931247 135.81363615 4.78853989 133.72560692 C4.77407669 130.80682861 4.77201989 127.88829065 4.77294922 124.96948242 C4.76575867 124.10129883 4.75856812 123.23311523 4.75115967 122.33862305 C4.77189568 116.34215648 4.77189568 116.34215648 7 113 C7.67512904 146.33666734 8.17390308 179.65609167 8 213 C5.69 213 3.38 213 1 213 C0.23962029 186.06548666 -0.14500159 159.1564212 -0.10139394 132.2115798 C-0.09496107 127.53128317 -0.09454141 122.85098519 -0.09336853 118.17068481 C-0.09031198 109.38537581 -0.0821788 100.60007989 -0.07201904 91.81477654 C-0.06067691 81.78013798 -0.0553028 71.74549866 -0.05032361 61.71085525 C-0.03998842 41.14056298 -0.02250433 20.57028233 0 0 Z " fill="#242424" transform="translate(380,410)"/>
<path d="M0 0 C0.66 0 1.32 0 2 0 C4.79453348 10.58947826 4.15633356 21.35485946 3.9765625 32.19921875 C3.95035389 34.24614818 3.92509031 36.2930899 3.90072632 38.34004211 C3.83448162 43.69452638 3.75550323 49.04874794 3.67376709 54.40301514 C3.59244782 59.87990331 3.52331707 65.3569443 3.453125 70.83398438 C3.31393395 81.55617262 3.16127442 92.27812274 3 103 C3.5556813 102.99907821 4.11136259 102.99815641 4.68388271 102.99720669 C18.1867655 102.97515018 31.68964515 102.95865159 45.19254208 102.94818783 C51.72236233 102.9429583 58.25216963 102.93585939 64.78198242 102.92456055 C71.07781159 102.91373415 77.37362826 102.90772369 83.66946602 102.90512276 C86.07734944 102.90326806 88.48523214 102.8996466 90.89311028 102.89426994 C94.25289286 102.8870628 97.6126231 102.88600892 100.97241211 102.88647461 C101.97869659 102.88287933 102.98498108 102.87928406 104.02175903 102.87557983 C104.93186234 102.8769545 105.84196564 102.87832916 106.77964783 102.87974548 C107.97290884 102.87836279 107.97290884 102.87836279 109.19027615 102.87695217 C111 103 111 103 112 104 C113.92667507 104.08748207 115.85651861 104.10697334 117.78515625 104.09765625 C118.95498047 104.09443359 120.12480469 104.09121094 121.33007812 104.08789062 C122.56177734 104.07951172 123.79347656 104.07113281 125.0625 104.0625 C126.29806641 104.05798828 127.53363281 104.05347656 128.80664062 104.04882812 C131.87114117 104.03699608 134.93554721 104.02051173 138 104 C138 104.99 138 105.98 138 107 C92.46 107.33 46.92 107.66 0 108 C0 72.36 0 36.72 0 0 Z " fill="#161515" transform="translate(79,458)"/>
<path d="M0 0 C130 0 130 0 140 2 C140 2.66 140 3.32 140 4 C95.45 4 50.9 4 5 4 C5 3.67 5 3.34 5 3 C13.58 2.67 22.16 2.34 31 2 C16.15 1.505 16.15 1.505 1 1 C1.33 71.62 1.66 142.24 2 215 C47.54 215 93.08 215 140 215 C140 214.01 140 213.02 140 212 C130.76 212.33 121.52 212.66 112 213 C112.33 212.34 112.66 211.68 113 211 C122.57 211 132.14 211 142 211 C142 212.65 142 214.3 142 216 C71.71 216.495 71.71 216.495 0 217 C0 145.39 0 73.78 0 0 Z " fill="#070707" transform="translate(77,350)"/>
<path d="M0 0 C10.56 0 21.12 0 32 0 C32 36.63 32 73.26 32 111 C31.67 111 31.34 111 31 111 C31 74.7 31 38.4 31 1 C21.76 1 12.52 1 3 1 C3 35.65 3 70.3 3 106 C2.34 106 1.68 106 1 106 C0.67 106.99 0.34 107.98 0 109 C0 73.03 0 37.06 0 0 Z " fill="#200F15" transform="translate(1256,401)"/>
<path d="M0 0 C15.92734299 -0.03218015 31.85089945 0.05534441 47.77734375 0.21875 C50.05375574 0.24126908 52.33016873 0.26368732 54.60658264 0.28601074 C60.51312267 0.34419645 66.41964838 0.40372442 72.32617188 0.46356201 C78.38736152 0.52471889 84.44856411 0.58456482 90.50976562 0.64453125 C102.33985654 0.76176023 114.16993271 0.88041164 126 1 C126 2.65 126 4.3 126 6 C124.02 6 122.04 6 120 6 C120 5.34 120 4.68 120 4 C80.4 4 40.8 4 0 4 C0 2.68 0 1.36 0 0 Z " fill="#191919" transform="translate(82,454)"/>
<path d="M0 0 C0.99 0 1.98 0 3 0 C6.55439126 9.24422708 9.15612853 18.24492323 11 28 C11.17345947 28.78020508 11.34691895 29.56041016 11.52563477 30.36425781 C12.3499443 34.94441516 12.18450343 39.54580882 12.1875 44.1875 C12.19974609 45.19748047 12.21199219 46.20746094 12.22460938 47.24804688 C12.22750977 48.6934082 12.22750977 48.6934082 12.23046875 50.16796875 C12.23457764 51.04735107 12.23868652 51.9267334 12.24291992 52.83276367 C12 55 12 55 10 57 C9.59952556 59.32275177 9.2602896 61.65739357 9 64 C8.566875 63.0409375 8.566875 63.0409375 8.125 62.0625 C7.17176549 59.84793921 7.17176549 59.84793921 5 59 C4.67 50.09 4.34 41.18 4 32 C3.67 32 3.34 32 3 32 C2.70996094 30.26363281 2.70996094 30.26363281 2.4140625 28.4921875 C2.15128853 26.95308283 1.88825388 25.41402266 1.625 23.875 C1.49867188 23.11445313 1.37234375 22.35390625 1.2421875 21.5703125 C0.49105774 17.21375989 -0.53424164 13.18430164 -2 9 C-2.34846322 5.34113615 -1.8725185 3.15987497 0 0 Z " fill="#1F1F1F" transform="translate(506,444)"/>
<path d="M0 0 C34.47815953 0 34.47815953 0 45.6171875 0.21875 C46.86210968 0.24094604 48.10703186 0.26314209 49.38967896 0.28601074 C53.21817033 0.35482641 57.04658055 0.4273054 60.875 0.5 C63.53254757 0.54842541 66.19009966 0.59660329 68.84765625 0.64453125 C75.23182541 0.76018851 81.6159334 0.87881992 88 1 C88 1.33 88 1.66 88 2 C46.42 2.495 46.42 2.495 4 3 C3.95101562 10.19554687 3.90203125 17.39109375 3.8515625 24.8046875 C3.81619293 29.35287899 3.78024254 33.90105088 3.7421875 38.44921875 C3.68179024 45.67428845 3.62358862 52.89933061 3.578125 60.12451172 C3.54135277 65.94711453 3.49501512 71.76956863 3.44193649 77.59204483 C3.42334955 79.81765265 3.40825764 82.0432924 3.39665604 84.2689476 C3.37986698 87.37720849 3.35085011 90.48512559 3.31884766 93.59326172 C3.31668747 94.52114502 3.31452728 95.44902832 3.31230164 96.4050293 C3.30113815 97.24919403 3.28997467 98.09335876 3.2784729 98.96310425 C3.27294214 99.69869505 3.26741138 100.43428585 3.26171303 101.19216728 C3 103 3 103 1 105 C0.67 70.35 0.34 35.7 0 0 Z " fill="#252425" transform="translate(78,351)"/>
<path d="M0 0 C0 0.66 0 1.32 0 2 C1.918125 2.185625 1.918125 2.185625 3.875 2.375 C7.75 2.75 7.75 2.75 10 5 C8 7 8 7 5.39306641 7.1953125 C4.30687012 7.17210937 3.22067383 7.14890625 2.1015625 7.125 C0.89886719 7.10953125 -0.30382812 7.0940625 -1.54296875 7.078125 C-4.05861011 7.02683771 -6.57423588 6.97477948 -9.08984375 6.921875 C-19.08005209 6.79474616 -28.56888873 7.4907493 -38 11 C-40.32606404 11.69448947 -42.66225603 12.34543169 -45 13 C-45.33 11.68 -45.66 10.36 -46 9 C-43.03 7.68 -40.06 6.36 -37 5 C-37 4.34 -37 3.68 -37 3 C-25.55997766 -0.343683 -11.77688164 -3.67298784 0 0 Z " fill="#1B1B1B" transform="translate(701,408)"/>
<path d="M0 0 C0 0.33 0 0.66 0 1 C-0.99 1.33 -1.98 1.66 -3 2 C1.48888413 2.57001703 5.8485146 3.06548261 10.375 3 C18.81857363 2.92632135 26.20979333 3.61934428 34 7 C30.74122141 8.08625953 30.2028569 7.931351 27.0625 7.0625 C9.87671106 3.37802836 -8.02014168 5.73262538 -23 15 C-26.17751083 17.5014447 -29.13409971 20.14857396 -32 23 C-32.33 22.34 -32.66 21.68 -33 21 C-35.02463255 20.34786708 -35.02463255 20.34786708 -37 20 C-33.17400821 10.74356826 -21.66424746 5.72550386 -13 2 C-8.64561379 0.31964317 -4.6841461 -0.22849493 0 0 Z " fill="#131313" transform="translate(438,409)"/>
<path d="M0 0 C14.06417657 -0.02333039 28.12835015 -0.04091345 42.19254208 -0.05181217 C48.72236233 -0.0570417 55.25216963 -0.06414061 61.78198242 -0.07543945 C68.07781159 -0.08626585 74.37362826 -0.09227631 80.66946602 -0.09487724 C83.07734944 -0.09673194 85.48523214 -0.1003534 87.89311028 -0.10573006 C91.25289286 -0.1129372 94.6126231 -0.11399108 97.97241211 -0.11352539 C98.97869659 -0.11712067 99.98498108 -0.12071594 101.02175903 -0.12442017 C101.93186234 -0.1230455 102.84196564 -0.12167084 103.77964783 -0.12025452 C104.97290884 -0.12163721 104.97290884 -0.12163721 106.19027615 -0.12304783 C108 0 108 0 109 1 C110.92667507 1.08748207 112.85651861 1.10697334 114.78515625 1.09765625 C115.95498047 1.09443359 117.12480469 1.09121094 118.33007812 1.08789062 C119.56177734 1.07951172 120.79347656 1.07113281 122.0625 1.0625 C123.29806641 1.05798828 124.53363281 1.05347656 125.80664062 1.04882812 C128.87114117 1.03699608 131.93554721 1.02051173 135 1 C135 1.99 135 2.98 135 4 C115.86 4 96.72 4 77 4 C76.505 3.01 76.505 3.01 76 2 C50.92 1.67 25.84 1.34 0 1 C0 0.67 0 0.34 0 0 Z " fill="#464545" transform="translate(82,561)"/>
<path d="M0 0 C2.47436523 -0.26464844 2.47436523 -0.26464844 5.55859375 -0.109375 C6.66654297 -0.05910156 7.77449219 -0.00882813 8.91601562 0.04296875 C10.65915039 0.14544922 10.65915039 0.14544922 12.4375 0.25 C13.59572266 0.30285156 14.75394531 0.35570312 15.94726562 0.41015625 C24.51486137 0.83828712 24.51486137 0.83828712 28 2 C30.06618749 1.90731495 30.06618749 1.90731495 32.1875 1.5625 C33.445625 1.376875 34.70375 1.19125 36 1 C35.34 2.32 34.68 3.64 34 5 C32.68 5 31.36 5 30 5 C30 5.99 30 6.98 30 8 C19.17428263 9.96831225 8.76267673 8.94422547 -2 7 C-2 3 -2 3 0 0 Z " fill="#1E1D1E" transform="translate(966,562)"/>
<path d="M0 0 C0 3.55403017 -1.07763432 4.81175426 -3.35546875 7.4375 C-6.22050727 10.15962686 -9.56753447 12.07509377 -13 14 C-12.505 15.485 -12.505 15.485 -12 17 C-9.36 15.68 -6.72 14.36 -4 13 C-5 16 -5 16 -7.484375 17.5 C-25.25248698 25.66142943 -44.78295 28.58492209 -64 24 C-64.66 23.34 -65.32 22.68 -66 22 C-65.43796875 22.0721875 -64.8759375 22.144375 -64.296875 22.21875 C-57.69888074 22.94736286 -51.1318746 23.13987433 -44.5 23.1875 C-43.17307129 23.20683594 -43.17307129 23.20683594 -41.81933594 23.2265625 C-40.98176758 23.22785156 -40.14419922 23.22914063 -39.28125 23.23046875 C-38.52908203 23.23457764 -37.77691406 23.23868652 -37.00195312 23.24291992 C-34.68310775 23.114052 -34.68310775 23.114052 -32 21 C-31.505 19.515 -31.505 19.515 -31 18 C-27.49056562 16.50524091 -23.97793017 15.30587243 -20.33984375 14.16796875 C-11.92387853 11.38632061 -5.1600021 7.353003 0 0 Z " fill="#131314" transform="translate(884,545)"/>
<path d="M0 0 C1.08667969 -0.01611328 2.17335938 -0.03222656 3.29296875 -0.04882812 C10.64348578 -0.05321911 17.02331375 1.0029582 24 3.3125 C24 5.2925 24 7.2725 24 9.3125 C24.66 9.6425 25.32 9.9725 26 10.3125 C23.98177083 9.82421875 21.96354167 9.3359375 19.9453125 8.84765625 C11.77692748 7.36348019 3.65736358 7.17812368 -4.625 7.25 C-6.13126953 7.25676758 -6.13126953 7.25676758 -7.66796875 7.26367188 C-10.11204471 7.27531033 -12.5559882 7.2916576 -15 7.3125 C-15 6.9825 -15 6.6525 -15 6.3125 C-14.04287109 6.23902344 -14.04287109 6.23902344 -13.06640625 6.1640625 C-12.24011719 6.08929688 -11.41382813 6.01453125 -10.5625 5.9375 C-9.73878906 5.86789062 -8.91507813 5.79828125 -8.06640625 5.7265625 C-7.38449219 5.58992188 -6.70257812 5.45328125 -6 5.3125 C-5.67 4.6525 -5.34 3.9925 -5 3.3125 C-8.3 2.9825 -11.6 2.6525 -15 2.3125 C-10.32429879 -0.80463414 -5.49968926 -0.01585839 0 0 Z " fill="#151415" transform="translate(982,407.6875)"/>
<path d="M0 0 C15.51 0 31.02 0 47 0 C47 1.98 47 3.96 47 6 C-20.815 5.505 -20.815 5.505 -90 5 C-90 4.67 -90 4.34 -90 4 C-45.45 4 -0.9 4 45 4 C45 3.34 45 2.68 45 2 C30.15 1.67 15.3 1.34 0 1 C0 0.67 0 0.34 0 0 Z " fill="#575657" transform="translate(172,350)"/>
<path d="M0 0 C0 0.66 0 1.32 0 2 C0.99 2.33 1.98 2.66 3 3 C3.6875 5.0625 3.6875 5.0625 4 7 C2.68 7.33 1.36 7.66 0 8 C-0.495 7.01 -0.495 7.01 -1 6 C-9.72951611 2.09469016 -20.05958844 2.88750539 -29.42504883 3.03662109 C-31.28327078 3.05903734 -33.14195134 3.03385966 -35 3 C-35.33 2.67 -35.66 2.34 -36 2 C-37.32594105 1.63837971 -38.65938457 1.30271961 -40 1 C-30.12311677 -7.73724286 -11.71589414 -2.55619509 0 0 Z " fill="#232324" transform="translate(471,410)"/>
<path d="M0 0 C0 3 0 3 -1.546875 4.6484375 C-10.99470961 12.05259157 -23.76148757 18 -36 18 C-36 17.01 -36 16.02 -36 15 C-34.35 14.34 -32.7 13.68 -31 13 C-31 12.67 -31 12.34 -31 12 C-31.97066406 12.16371094 -32.94132813 12.32742188 -33.94140625 12.49609375 C-38.28276888 13.11628841 -42.55997771 13.11126417 -46.9375 13.0625 C-47.71673828 13.05798828 -48.49597656 13.05347656 -49.29882812 13.04882812 C-51.19925268 13.03716908 -53.09963706 13.01923877 -55 13 C-55 12.67 -55 12.34 -55 12 C-54.1478894 11.93268677 -54.1478894 11.93268677 -53.27856445 11.86401367 C-43.25478503 11.0503985 -33.4420446 10.24396545 -23.69140625 7.68359375 C-20.81092815 6.9519774 -17.93584486 6.45399663 -15 6 C-14 8 -14 8 -14 10 C-12.22611914 8.90073597 -10.45600316 7.79539498 -8.6875 6.6875 C-7.70136719 6.07261719 -6.71523437 5.45773437 -5.69921875 4.82421875 C-3.49827965 3.33675339 -1.76671012 1.9596614 0 0 Z " fill="#111112" transform="translate(1032,552)"/>
<path d="M0 0 C0.99 1.485 0.99 1.485 2 3 C2.99 2.01 3.98 1.02 5 0 C5.10957031 0.90363281 5.21914063 1.80726563 5.33203125 2.73828125 C5.49058594 3.91777344 5.64914062 5.09726562 5.8125 6.3125 C5.96332031 7.48425781 6.11414063 8.65601563 6.26953125 9.86328125 C7.01999128 13.0858449 7.56651387 13.94039179 10 16 C10.12375 16.763125 10.2475 17.52625 10.375 18.3125 C11.0392873 21.1689354 11.71309266 22.00824545 13.625 24.125 C14.40875 25.07375 15.1925 26.0225 16 27 C15.67 27.99 15.34 28.98 15 30 C9.98021976 28.71587017 7.21828343 27.08808976 4 23 C2.73572088 20.06225599 1.81781205 17.0888982 1 14 C0.71576172 13.03513672 0.71576172 13.03513672 0.42578125 12.05078125 C-0.08839978 9.57422125 -0.09575295 7.27722405 -0.0625 4.75 C-0.05347656 3.85796875 -0.04445313 2.9659375 -0.03515625 2.046875 C-0.02355469 1.37140625 -0.01195312 0.6959375 0 0 Z " fill="#201F21" transform="translate(784,444)"/>
<path d="M0 0 C0 2 0 2 -1.5 3.5625 C-1.995 4.036875 -2.49 4.51125 -3 5 C-3 5.33 -3 5.66 -3 6 C-6.50755671 6.79623751 -9.74962714 7.12833583 -13.34375 7.1328125 C-14.34277344 7.13410156 -15.34179688 7.13539063 -16.37109375 7.13671875 C-17.40363281 7.13285156 -18.43617188 7.12898437 -19.5 7.125 C-20.53253906 7.12886719 -21.56507813 7.13273438 -22.62890625 7.13671875 C-23.62792969 7.13542969 -24.62695312 7.13414062 -25.65625 7.1328125 C-26.56181641 7.13168457 -27.46738281 7.13055664 -28.40039062 7.12939453 C-31.02362019 6.99882431 -33.44191438 6.58070158 -36 6 C-36 4.68 -36 3.36 -36 2 C-30.10342836 0.96181407 -24.41429776 0.91587899 -18.4375 1 C-12.21136155 1.08726193 -6.12394812 0 0 0 Z " fill="#222122" transform="translate(706,562)"/>
<path d="M0 0 C4.35793108 3.94937504 7.5811263 8.46322969 10.9375 13.28125 C12.93782759 16.04600961 12.93782759 16.04600961 15.38671875 18.38671875 C18.49440256 21.49440256 21.13198473 24.83749289 23.8125 28.3125 C24.56563477 29.28026367 24.56563477 29.28026367 25.33398438 30.26757812 C26.55905681 31.84267125 27.7799632 33.42100316 29 35 C27.68 35.66 26.36 36.32 25 37 C20.03140509 32.39046371 16.08020064 27.08134457 12 21.6875 C10.95199219 20.31948242 10.95199219 20.31948242 9.8828125 18.92382812 C0.57599321 6.67570273 0.57599321 6.67570273 -1 3 C-0.67 2.01 -0.34 1.02 0 0 Z " fill="#201F20" transform="translate(252,432)"/>
<path d="M0 0 C9.85812059 0.62591242 18.07396667 4.055475 26 10 C26.33 10.66 26.66 11.32 27 12 C25.68 11.67 24.36 11.34 23 11 C22.67 11.66 22.34 12.32 22 13 C20.19921875 13.765625 20.19921875 13.765625 18 14 C15.95703125 13.109375 15.95703125 13.109375 13.8125 11.75 C9.36897006 9.10012085 4.95362688 7.44041633 0 6 C0 5.67 0 5.34 0 5 C2.31 5 4.62 5 7 5 C7.33 4.34 7.66 3.68 8 3 C5.36 2.34 2.72 1.68 0 1 C0 0.67 0 0.34 0 0 Z " fill="#151516" transform="translate(701,409)"/>
<path d="M0 0 C8.25 0 16.5 0 25 0 C25 1.65 25 3.3 25 5 C15.76 5.33 6.52 5.66 -3 6 C-2.01 4.35 -1.02 2.7 0 1 C0 0.67 0 0.34 0 0 Z " fill="#1B1A1A" transform="translate(823,408)"/>
<path d="M0 0 C0.66 0 1.32 0 2 0 C2.66 3.63 3.32 7.26 4 11 C3.67 11 3.34 11 3 11 C2.67 23.54 2.34 36.08 2 49 C1.01 49.495 1.01 49.495 0 50 C0 33.5 0 17 0 0 Z " fill="#222122" transform="translate(79,458)"/>
<path d="M0 0 C2.475 0.99 2.475 0.99 5 2 C3.59601721 6.10110762 1.62912962 8.98089159 -1.125 12.3125 C-1.84945313 13.19550781 -2.57390625 14.07851563 -3.3203125 14.98828125 C-3.87460937 15.65214844 -4.42890625 16.31601562 -5 17 C-5.33 16.01 -5.66 15.02 -6 14 C-6.66 14.66 -7.32 15.32 -8 16 C-8.99 15.34 -9.98 14.68 -11 14 C-9.35504034 11.85349184 -7.70907674 9.70776711 -6.0625 7.5625 C-5.59392578 6.95083984 -5.12535156 6.33917969 -4.64257812 5.70898438 C-1.11328125 1.11328125 -1.11328125 1.11328125 0 0 Z " fill="#1A1A1A" transform="translate(284,487)"/>
<path d="M0 0 C0 2.62113708 -0.31292445 4.50935112 -1 7 C-2.98 7.33 -4.96 7.66 -7 8 C-7 8.99 -7 9.98 -7 11 C-9.07772471 11.86772029 -11.16243177 12.71873619 -13.25 13.5625 C-14.99023438 14.27599609 -14.99023438 14.27599609 -16.765625 15.00390625 C-19.86266644 15.95770524 -21.07321701 16.20983356 -24 15 C-22.02579865 12.47740939 -21.03254358 12.0070192 -17.8125 11.3125 C-16.884375 11.209375 -15.95625 11.10625 -15 11 C-15 10.01 -15 9.02 -15 8 C-13.25048432 7.04078278 -11.50036756 6.08266183 -9.75 5.125 C-8.28820312 4.32449219 -8.28820312 4.32449219 -6.796875 3.5078125 C-4.54869592 2.29580534 -2.2927195 1.12452433 0 0 Z " fill="#201F20" transform="translate(728,551)"/>
<path d="M0 0 C0.99 0.33 1.98 0.66 3 1 C3 1.66 3 2.32 3 3 C2.01 3.495 2.01 3.495 1 4 C1.33 4.66 1.66 5.32 2 6 C-2.91502758 7.29235715 -7.77290102 7.11135517 -12.8125 7.0625 C-13.69615234 7.05798828 -14.57980469 7.05347656 -15.49023438 7.04882812 C-17.66018559 7.03709866 -19.83010172 7.01916495 -22 7 C-22 5.68 -22 4.36 -22 3 C-14.74 2.67 -7.48 2.34 0 2 C0 1.34 0 0.68 0 0 Z " fill="#1F1E1F" transform="translate(852,562)"/>
<path d="M0 0 C4.10498209 0.08071719 8.20846109 0.19357487 12.3125 0.3125 C13.47974609 0.33505859 14.64699219 0.35761719 15.84960938 0.38085938 C17.52700195 0.4340332 17.52700195 0.4340332 19.23828125 0.48828125 C20.26993408 0.51446533 21.30158691 0.54064941 22.36450195 0.56762695 C25.29691033 1.04871035 26.20735923 1.69133671 28 4 C23.98946813 6.85176656 21.20282621 7.38499058 16.3125 7.3125 C14.60513672 7.30669922 14.60513672 7.30669922 12.86328125 7.30078125 C10 7 10 7 8 5 C8.33 4.34 8.66 3.68 9 3 C7.9171875 3.309375 7.9171875 3.309375 6.8125 3.625 C3.55358415 4.05952211 1.91695496 3.41680669 -1 2 C-0.67 1.34 -0.34 0.68 0 0 Z " fill="#252526" transform="translate(966,562)"/>
<path d="M0 0 C-4.95 2.475 -4.95 2.475 -10 5 C-9.67 5.66 -9.34 6.32 -9 7 C-7.02 6.34 -5.04 5.68 -3 5 C-5.50816855 7.70110459 -8.31309015 9.74263947 -11.3125 11.875 C-15.35251941 14.77909883 -19.23792877 17.74631677 -23 21 C-21.47291037 17.56404834 -19.40072955 14.88087546 -17 12 C-17.33 11.34 -17.66 10.68 -18 10 C-18.99 10.33 -19.98 10.66 -21 11 C-21 10.34 -21 9.68 -21 9 C-18.9411239 7.57187785 -16.90229066 6.2720176 -14.75 5 C-14.16347656 4.64421875 -13.57695313 4.2884375 -12.97265625 3.921875 C-11.32574605 2.93002796 -9.66324684 1.96420107 -8 1 C-7.28328125 0.566875 -6.5665625 0.13375 -5.828125 -0.3125 C-4 -1 -4 -1 0 0 Z " fill="#101010" transform="translate(666,413)"/>
<path d="M0 0 C0.99 0.33 1.98 0.66 3 1 C4.47965926 1.14573058 5.96403843 1.24663268 7.44921875 1.31640625 C8.29677734 1.35830078 9.14433594 1.40019531 10.01757812 1.44335938 C10.89865234 1.48267578 11.77972656 1.52199219 12.6875 1.5625 C14.02651367 1.62727539 14.02651367 1.62727539 15.39257812 1.69335938 C17.59490108 1.79935353 19.79733473 1.90142051 22 2 C20.02 2.99 20.02 2.99 18 4 C18.66 4.66 19.32 5.32 20 6 C19.34 6.66 18.68 7.32 18 8 C15.66162109 7.95166016 15.66162109 7.95166016 12.7734375 7.5390625 C11.7421875 7.39726563 10.7109375 7.25546875 9.6484375 7.109375 C8.56820313 6.94953125 7.48796875 6.7896875 6.375 6.625 C5.28703125 6.47289062 4.1990625 6.32078125 3.078125 6.1640625 C0.38385539 5.7859194 -2.3085289 5.39749597 -5 5 C-5 4.67 -5 4.34 -5 4 C-3.35 3.67 -1.7 3.34 0 3 C0 2.01 0 1.02 0 0 Z " fill="#222222" transform="translate(438,563)"/>
<path d="M0 0 C3.97217988 0.61637274 6.7262514 2.64420016 10 4.84375 C12.01931308 6.01116537 13.74842614 6.46548772 16 7 C17.75 8.5625 17.75 8.5625 19 10 C18.01 10 17.02 10 16 10 C16 10.66 16 11.32 16 12 C7.05662223 10.8364926 7.05662223 10.8364926 3 7.625 C1.33967048 5.44581751 0.02998388 3.52814225 -1 1 C-0.67 0.67 -0.34 0.34 0 0 Z " fill="#202020" transform="translate(410,553)"/>
<path d="M0 0 C0.66 1.32 1.32 2.64 2 4 C1.57847656 4.38671875 1.15695312 4.7734375 0.72265625 5.171875 C-0.09912109 5.95304687 -0.09912109 5.95304687 -0.9375 6.75 C-1.48277344 7.26046875 -2.02804687 7.7709375 -2.58984375 8.296875 C-4.16044692 10.19378076 -4.58731286 11.59701161 -5 14 C-6.32 13.34 -7.64 12.68 -9 12 C-9.99 12.66 -10.98 13.32 -12 14 C-10.69219043 8.63798075 -8.15215091 4.60581527 -4 1 C-1.8046875 0.30078125 -1.8046875 0.30078125 0 0 Z " fill="#222122" transform="translate(648,422)"/>
<path d="M0 0 C2.57665677 0.37680142 3.74429269 0.72009532 5.52734375 2.671875 C5.99269531 3.35765625 6.45804687 4.0434375 6.9375 4.75 C9.38411234 8.21136504 11.91736764 11.09869895 15 14 C14.01 14.99 13.02 15.98 12 17 C9.33333333 14.33333333 6.66666667 11.66666667 4 9 C3.278125 8.38125 2.55625 7.7625 1.8125 7.125 C0 5 0 5 -0.25 2.25 C-0.1675 1.5075 -0.085 0.765 0 0 Z " fill="#212021" transform="translate(293,489)"/>
<path d="M0 0 C11.92251724 0.9935431 21.02656846 8.51215352 29 17 C28.67 17.66 28.34 18.32 28 19 C27.53851563 18.49210937 27.07703125 17.98421875 26.6015625 17.4609375 C21.58715732 12.16905536 16.40104734 8.46286168 10 5 C9.67 6.32 9.34 7.64 9 9 C6.525 8.01 6.525 8.01 4 7 C4.33 5.35 4.66 3.7 5 2 C3.35 1.67 1.7 1.34 0 1 C0 0.67 0 0.34 0 0 Z " fill="#111011" transform="translate(469,411)"/>
<path d="M0 0 C1.03930664 0.02030273 1.03930664 0.02030273 2.09960938 0.04101562 C3.79591265 0.07611155 5.49181136 0.12991057 7.1875 0.1875 C6.6925 0.826875 6.1975 1.46625 5.6875 2.125 C4.08947138 3.89724339 4.08947138 3.89724339 4.1875 5.1875 C-4.2275 5.6825 -4.2275 5.6825 -12.8125 6.1875 C-12.8125 5.1975 -12.8125 4.2075 -12.8125 3.1875 C-8.80991627 -0.14669111 -4.98458061 -0.18602741 0 0 Z " fill="#242424" transform="translate(689.8125,408.8125)"/>
<path d="M0 0 C0 0.99 0 1.98 0 3 C0.33 3.66 0.66 4.32 1 5 C1 4.34 1 3.68 1 3 C2.65 2.34 4.3 1.68 6 1 C4.65070536 4.83663072 2.92248975 7.65172569 0.375 10.8125 C-0.25664062 11.60269531 -0.88828125 12.39289062 -1.5390625 13.20703125 C-2.02117187 13.79871094 -2.50328125 14.39039063 -3 15 C-3.33 14.34 -3.66 13.68 -4 13 C-4.66 12.67 -5.32 12.34 -6 12 C-5.34 12 -4.68 12 -4 12 C-4 11.34 -4 10.68 -4 10 C-5.32 10.33 -6.64 10.66 -8 11 C-6.68 8.69 -5.36 6.38 -4 4 C-3.34 4 -2.68 4 -2 4 C-1.34 2.68 -0.68 1.36 0 0 Z " fill="#141314" transform="translate(261,518)"/>
<path d="M0 0 C5 5 5 5 6.6875 6.8125 C7.95218271 8.22363777 7.95218271 8.22363777 10 8 C10.33 7.34 10.66 6.68 11 6 C13.64 9.3 16.28 12.6 19 16 C18.67 16.66 18.34 17.32 18 18 C16.35 16.02 14.7 14.04 13 12 C13 13.32 13 14.64 13 16 C12.67 16.66 12.34 17.32 12 18 C10.36763346 15.94297722 8.74412995 13.87990147 7.125 11.8125 C6.43470703 10.9452832 6.43470703 10.9452832 5.73046875 10.06054688 C3.21199731 6.83033351 1.29255389 3.9445179 0 0 Z " fill="#111011" transform="translate(297,497)"/>
<path d="M0 0 C2.05078125 0.03255208 4.1015625 0.06510417 6.15234375 0.09765625 C4.83234375 0.42765625 3.51234375 0.75765625 2.15234375 1.09765625 C2.48234375 2.08765625 2.81234375 3.07765625 3.15234375 4.09765625 C8.76234375 4.09765625 14.37234375 4.09765625 20.15234375 4.09765625 C20.15234375 4.42765625 20.15234375 4.75765625 20.15234375 5.09765625 C18.93417969 5.21882813 17.71601562 5.34 16.4609375 5.46484375 C14.83720546 5.63378697 13.2135094 5.80307621 11.58984375 5.97265625 C10.78998047 6.05128906 9.99011719 6.12992187 9.16601562 6.2109375 C5.40331233 6.61024479 1.84374321 7.09776532 -1.78515625 8.19140625 C-4.7696646 9.07457709 -6.01272892 9.23162718 -8.84765625 8.09765625 C-6.86765625 7.76765625 -4.88765625 7.43765625 -2.84765625 7.09765625 C-2.86828125 6.12828125 -2.88890625 5.15890625 -2.91015625 4.16015625 C-2.82830587 0.14948763 -2.82830587 0.14948763 0 0 Z " fill="#0E0E0E" transform="translate(819.84765625,408.90234375)"/>
<path d="M0 0 C16.83 0 33.66 0 51 0 C51 0.99 51 1.98 51 3 C49.33388095 3.042721 47.66617115 3.04063832 46 3 C45.505 2.505 45.505 2.505 45 2 C43.58882298 1.87790076 42.17179541 1.82229128 40.75561523 1.79467773 C39.85475693 1.77473251 38.95389862 1.75478729 38.02574158 1.73423767 C37.04658279 1.71752518 36.06742401 1.70081268 35.05859375 1.68359375 C34.06118668 1.66281265 33.0637796 1.64203156 32.03614807 1.62062073 C28.83667157 1.55501363 25.63711018 1.49618866 22.4375 1.4375 C20.27407961 1.39432538 18.11066794 1.35071145 15.94726562 1.30664062 C10.63160126 1.19932097 5.31585166 1.09757573 0 1 C0 0.67 0 0.34 0 0 Z " fill="#1B1B1B" transform="translate(156,456)"/>
<path d="M0 0 C-10.19828184 5.56487042 -20.86413444 3.98627078 -32 3 C-32 2.67 -32 2.34 -32 2 C-31.15405273 1.970271 -31.15405273 1.970271 -30.29101562 1.93994141 C-27.69360426 1.84368189 -25.09688897 1.73441948 -22.5 1.625 C-21.1696875 1.57859375 -21.1696875 1.57859375 -19.8125 1.53125 C-15.58567952 1.34477263 -11.68144179 1.02653426 -7.59375 -0.1015625 C-4.16056816 -0.95985796 -3.17821207 -0.99559503 0 0 Z M-15 4 C-14.443125 4.144375 -13.88625 4.28875 -13.3125 4.4375 C-10.88615805 5.02769128 -8.45093655 5.523429 -6 6 C-9.4019487 8.09350689 -12.05272412 8.17942163 -16 8 C-15.67 6.68 -15.34 5.36 -15 4 Z " fill="#09090A" transform="translate(471,562)"/>
<path d="M0 0 C3.84725418 3.68088643 7.11385725 7.56185919 10.3125 11.8125 C10.76689453 12.40998047 11.22128906 13.00746094 11.68945312 13.62304688 C12.79633917 15.07947588 13.89865264 16.53937817 15 18 C13.02 18.99 13.02 18.99 11 20 C6.125 15.375 6.125 15.375 5 12 C5.66 12 6.32 12 7 12 C6.4946875 11.30132812 5.989375 10.60265625 5.46875 9.8828125 C4.8190625 8.97273438 4.169375 8.06265625 3.5 7.125 C2.8503125 6.22007812 2.200625 5.31515625 1.53125 4.3828125 C0 2 0 2 0 0 Z " fill="#161516" transform="translate(266,449)"/>
<path d="M0 0 C1.44010481 0.25662245 2.8770687 0.53090821 4.3125 0.8125 C5.11300781 0.96332031 5.91351562 1.11414063 6.73828125 1.26953125 C9.26320524 2.08500756 10.38069734 2.91953671 12 5 C12 5.66 12 6.32 12 7 C11.34 7 10.68 7 10 7 C10 7.66 10 8.32 10 9 C8.72125 8.71125 7.4425 8.4225 6.125 8.125 C5.40570312 7.96257812 4.68640625 7.80015625 3.9453125 7.6328125 C2 7 2 7 0 5 C0.66 5 1.32 5 2 5 C1.34 3.35 0.68 1.7 0 0 Z " fill="#212121" transform="translate(863,414)"/>
<path d="M0 0 C7.25 7.25 7.25 7.25 10 11 C9.34 11.66 8.68 12.32 8 13 C7.67 12.01 7.34 11.02 7 10 C6.34 10 5.68 10 5 10 C4.67 10.99 4.34 11.98 4 13 C2.02 10.03 0.04 7.06 -2 4 C-1.34 2.68 -0.68 1.36 0 0 Z " fill="#201F20" transform="translate(735,429)"/>
<path d="M0 0 C1.0194119 0.98020375 2.02246356 1.97803008 3 3 C2.01 3.495 2.01 3.495 1 4 C1.33 5.32 1.66 6.64 2 8 C0.68528432 7.71848913 -0.62675767 7.42446661 -1.9375 7.125 C-2.66839844 6.96257812 -3.39929688 6.80015625 -4.15234375 6.6328125 C-6 6 -6 6 -7 4 C-9.01669827 2.86649466 -9.01669827 2.86649466 -11 2 C-9.68 2 -8.36 2 -7 2 C-7 1.34 -7 0.68 -7 0 C-2.25 -1.125 -2.25 -1.125 0 0 Z " fill="#222122" transform="translate(867,489)"/>
<path d="M0 0 C4.67105792 1.55701931 8.08705685 4.08447373 12 7 C11.01 7.66 10.02 8.32 9 9 C6.5625 8.25 6.5625 8.25 4 7 C3.278125 6.649375 2.55625 6.29875 1.8125 5.9375 C1.214375 5.628125 0.61625 5.31875 0 5 C-0.66 4.67 -1.32 4.34 -2 4 C-2 3.34 -2 2.68 -2 2 C-1.34 2 -0.68 2 0 2 C0 1.34 0 0.68 0 0 Z " fill="#212122" transform="translate(479,416)"/>
<path d="M0 0 C4.29 0 8.58 0 13 0 C7.03508772 5.96491228 7.03508772 5.96491228 2.3125 6.125 C0.6728125 6.063125 0.6728125 6.063125 -1 6 C-0.67 4.02 -0.34 2.04 0 0 Z " fill="#212021" transform="translate(967,410)"/>
<path d="M0 0 C2.53125 0.171875 2.53125 0.171875 5.5 0.75 C6.96953125 1.02070313 6.96953125 1.02070313 8.46875 1.296875 C11 2 11 2 13 4 C10.49936853 6.50063147 9.52188302 6.32420142 6.0625 6.375 C4.74958984 6.41753906 4.74958984 6.41753906 3.41015625 6.4609375 C1 6 1 6 -0.81640625 3.9765625 C-1.20699219 3.32429688 -1.59757813 2.67203125 -2 2 C-1.34 1.34 -0.68 0.68 0 0 Z " fill="#202020" transform="translate(698,409)"/>
<path d="M0 0 C0.66 0.66 1.32 1.32 2 2 C1.7603518 4.47636473 1.19869504 5.75614699 -0.375 7.6875 C-2 9 -2 9 -5 10 C-5 9.34 -5 8.68 -5 8 C-5.99 8 -6.98 8 -8 8 C-4.875 1.75 -4.875 1.75 0 0 Z " fill="#201F20" transform="translate(277,500)"/>
<path d="M0 0 C0.33 0 0.66 0 1 0 C1 3.3 1 6.6 1 10 C0.01 10.33 -0.98 10.66 -2 11 C-2.33 11.99 -2.66 12.98 -3 14 C-3.99 13.67 -4.98 13.34 -6 13 C-5.34 9.7 -4.68 6.4 -4 3 C-2.68 3.33 -1.36 3.66 0 4 C0 2.68 0 1.36 0 0 Z " fill="#242424" transform="translate(786,517)"/>
<path d="M0 0 C5.28 0 10.56 0 16 0 C16 0.33 16 0.66 16 1 C13.03 1 10.06 1 7 1 C7 1.66 7 2.32 7 3 C10.63 3 14.26 3 18 3 C18 3.33 18 3.66 18 4 C12.06 4 6.12 4 0 4 C0 2.68 0 1.36 0 0 Z " fill="#262627" transform="translate(830,565)"/>
<path d="M0 0 C0.33 0.66 0.66 1.32 1 2 C1.66 2 2.32 2 3 2 C3 9.26 3 16.52 3 24 C2.67 24 2.34 24 2 24 C0.56205146 15.92437827 -0.29599372 8.2056037 0 0 Z " fill="#272727" transform="translate(384,481)"/>
<path d="M0 0 C5.08335725 0.15404113 7.35754718 3.02068432 10.64453125 6.50390625 C11.09183594 6.99761719 11.53914062 7.49132812 12 8 C11.67 8.99 11.34 9.98 11 11 C9.35 9.35 7.7 7.7 6 6 C5.67 6.66 5.34 7.32 5 8 C2.0625 7.625 2.0625 7.625 -1 7 C-1.33 6.34 -1.66 5.68 -2 5 C-0.35 4.34 1.3 3.68 3 3 C2.01 2.67 1.02 2.34 0 2 C0 1.34 0 0.68 0 0 Z " fill="#131213" transform="translate(879,495)"/>
<path d="M0 0 C3.41021743 0.78697325 6.68885166 1.87119943 10 3 C9.67 4.32 9.34 5.64 9 7 C8.01 7 7.02 7 6 7 C5.01 7.33 4.02 7.66 3 8 C0.9375 5.6875 0.9375 5.6875 -1 3 C-0.67 2.01 -0.34 1.02 0 0 Z " fill="#1F1E1F" transform="translate(649,554)"/>
<path d="M0 0 C4.455 0.99 4.455 0.99 9 2 C7 5 7 5 4 7 C1.20844173 6.66906957 -1.29028304 5.79958861 -4 5 C-3.01 4.67 -2.02 4.34 -1 4 C-0.67 2.68 -0.34 1.36 0 0 Z " fill="#232223" transform="translate(1020,493)"/>
<path d="M0 0 C0.99 0.33 1.98 0.66 3 1 C4.72785759 1.52515986 6.45714161 2.0456397 8.1875 2.5625 C9.08855469 2.83191406 9.98960937 3.10132813 10.91796875 3.37890625 C11.60503906 3.58386719 12.29210937 3.78882813 13 4 C11.68 4.33 10.36 4.66 9 5 C9 5.99 9 6.98 9 8 C8.34 7.67 7.68 7.34 7 7 C7.33 6.01 7.66 5.02 8 4 C7.34 4.66 6.68 5.32 6 6 C3.37615122 7.04953951 2.3962985 7.16512438 -0.25 6.0625 C-0.8275 5.711875 -1.405 5.36125 -2 5 C-1.01 5 -0.02 5 1 5 C0.67 3.35 0.34 1.7 0 0 Z " fill="#252425" transform="translate(831,480)"/>
<path d="M0 0 C1.98 0.66 3.96 1.32 6 2 C5.67 3.65 5.34 5.3 5 7 C1.58012972 7 -0.94508687 6.52745657 -4 5 C-4 4.34 -4 3.68 -4 3 C-3.01 3 -2.02 3 -1 3 C-0.67 2.01 -0.34 1.02 0 0 Z " fill="#201F20" transform="translate(724,419)"/>
<path d="M0 0 C1.32 0.66 2.64 1.32 4 2 C4 4.64 4 7.28 4 10 C0.48283697 10 -0.37121748 9.17554415 -3 7 C-1.125 1.125 -1.125 1.125 0 0 Z " fill="#232223" transform="translate(1031,434)"/>
<path d="M0 0 C0.99 0.33 1.98 0.66 3 1 C2.01 3.31 1.02 5.62 0 8 C-0.33 7.01 -0.66 6.02 -1 5 C-1.99 5.33 -2.98 5.66 -4 6 C-3.6875 4.125 -3.6875 4.125 -3 2 C-2.01 1.34 -1.02 0.68 0 0 Z M-6 4 C-5.34 4.99 -4.68 5.98 -4 7 C-5.32 8.32 -6.64 9.64 -8 11 C-8 7.89448334 -7.4606285 6.64738916 -6 4 Z " fill="#212021" transform="translate(505,529)"/>
<path d="M0 0 C0.99 0.33 1.98 0.66 3 1 C3.5625 2.8125 3.5625 2.8125 4 5 C4.63654342 6.3479743 5.29605388 7.68596724 6 9 C5.01 9.66 4.02 10.32 3 11 C0 9 0 9 -0.75 6.625 C-0.99286095 4.07496 -0.8028831 2.40864929 0 0 Z " fill="#222122" transform="translate(399,538)"/>
<path d="M0 0 C0.99 1.32 1.98 2.64 3 4 C3.66 3.67 4.32 3.34 5 3 C3.6062718 7.43458973 1.39417765 9.87378374 -2 13 C-1.67 12.21625 -1.34 11.4325 -1 10.625 C0.11866511 8.15667503 0.11866511 8.15667503 0 6 C-1.65 6.33 -3.3 6.66 -5 7 C-3.35 4.69 -1.7 2.38 0 0 Z " fill="#0F0E0E" transform="translate(243,542)"/>
<path d="M0 0 C1.65 0 3.3 0 5 0 C5.33 0.66 5.66 1.32 6 2 C5.00390625 4.6015625 5.00390625 4.6015625 3.5625 7.625 C3.08941406 8.62789063 2.61632812 9.63078125 2.12890625 10.6640625 C1.75636719 11.43492187 1.38382813 12.20578125 1 13 C0 10 0 10 0 7 C-0.185625 6.34 -0.37125 5.68 -0.5625 5 C-1 3 -1 3 0 0 Z " fill="#151515" transform="translate(556,441)"/>
<path d="M0 0 C2.375 -0.1875 2.375 -0.1875 5 0 C5.66 0.99 6.32 1.98 7 3 C7.99 3.66 8.98 4.32 10 5 C3.565 5.495 3.565 5.495 -3 6 C-2.01 4.35 -1.02 2.7 0 1 C0 0.67 0 0.34 0 0 Z " fill="#262627" transform="translate(823,408)"/>
<path d="M0 0 C2.97 0.99 5.94 1.98 9 3 C8.67 3.66 8.34 4.32 8 5 C6.35 5 4.7 5 3 5 C3 5.99 3 6.98 3 8 C1 7 1 7 0 6 C-0.04080783 4.00041636 -0.04254356 1.99954746 0 0 Z " fill="#212121" transform="translate(1006,411)"/>
<path d="M0 0 C2.5 2.3125 2.5 2.3125 5 5 C5 8.10551666 4.4606285 9.35261084 3 12 C2.29773859 10.75823305 1.61370891 9.50614401 0.9375 8.25 C0.36322266 7.20585938 0.36322266 7.20585938 -0.22265625 6.140625 C-1.1312406 3.63859372 -0.88336837 2.4667645 0 0 Z " fill="#212121" transform="translate(309,508)"/>
<path d="M0 0 C0.33 0.99 0.66 1.98 1 3 C-3.455 3.495 -3.455 3.495 -8 4 C-8 3.34 -8 2.68 -8 2 C-10.31 2 -12.62 2 -15 2 C-15 1.67 -15 1.34 -15 1 C-9.9752761 0.37470103 -5.07471573 -0.13012092 0 0 Z " fill="#1B1B1C" transform="translate(461,409)"/>
<path d="M0 0 C0 1.32 0 2.64 0 4 C-2.31 4 -4.62 4 -7 4 C-7.66 2.68 -8.32 1.36 -9 0 C-5.52176885 -1.15941038 -3.54104422 -0.70820884 0 0 Z " fill="#222223" transform="translate(611,411)"/>
<path d="M0 0 C2.475 0.99 2.475 0.99 5 2 C4.67 3.65 4.34 5.3 4 7 C3.34 6.34 2.68 5.68 2 5 C-0.475 6.485 -0.475 6.485 -3 8 C-1.125 1.125 -1.125 1.125 0 0 Z " fill="#232223" transform="translate(400,428)"/>
<path d="M0 0 C2.12508244 3.18762365 2.5020163 5.26512223 3 9 C1.35 9 -0.3 9 -2 9 C-2.6875 6.75 -2.6875 6.75 -3 4 C-1.5625 1.6875 -1.5625 1.6875 0 0 Z " fill="#212122" transform="translate(394,527)"/>
<path d="M0 0 C1.65 0 3.3 0 5 0 C5.33 1.98 5.66 3.96 6 6 C5.01 6 4.02 6 3 6 C2.34 6.99 1.68 7.98 1 9 C0.67 6.03 0.34 3.06 0 0 Z " fill="#242424" transform="translate(924,514)"/>
<path d="M0 0 C0.33 0.66 0.66 1.32 1 2 C-0.98 4.64 -2.96 7.28 -5 10 C-5.33 9.01 -5.66 8.02 -6 7 C-6.66 7.66 -7.32 8.32 -8 9 C-8.99 8.34 -9.98 7.68 -11 7 C-9 5 -9 5 -5.5 4.0625 C-1.76314255 3.3326766 -1.76314255 3.3326766 0 0 Z " fill="#0D0D0D" transform="translate(284,494)"/>
<path d="M0 0 C0.33 0 0.66 0 1 0 C2.28571429 8.57142857 2.28571429 8.57142857 1 12 C0.34 12 -0.32 12 -1 12 C-1.08159574 7.83861737 -0.98248524 4.0527516 0 0 Z M-3 11 C-2.34 11.33 -1.68 11.66 -1 12 C-1.33 13.32 -1.66 14.64 -2 16 C-2.66 16 -3.32 16 -4 16 C-3.67 14.35 -3.34 12.7 -3 11 Z " fill="#242324" transform="translate(628,508)"/>
<path d="M0 0 C1.98 0 3.96 0 6 0 C5.25 2.9375 5.25 2.9375 4 6 C2 7 2 7 0 7 C-0.66 6.34 -1.32 5.68 -2 5 C-1.67 4.360625 -1.34 3.72125 -1 3.0625 C0.07271225 1.23205433 0.07271225 1.23205433 0 0 Z " fill="#212122" transform="translate(303,462)"/>
<path d="M0 0 C0.33 0.66 0.66 1.32 1 2 C3.11846285 2.68729254 3.11846285 2.68729254 5.5625 3.125 C6.80193359 3.37636719 6.80193359 3.37636719 8.06640625 3.6328125 C8.70449219 3.75398438 9.34257813 3.87515625 10 4 C7.60236815 6.39763185 6.66726502 6.34280586 3.375 6.625 C2.55773437 6.69976562 1.74046875 6.77453125 0.8984375 6.8515625 C0.27195312 6.90054687 -0.35453125 6.94953125 -1 7 C-0.34 6.01 0.32 5.02 1 4 C0.69159401 1.84725052 0.69159401 1.84725052 0 0 Z " fill="#222222" transform="translate(852,409)"/>
<path d="M0 0 C0 3 0 3 -2 6 C-1.34 7.32 -0.68 8.64 0 10 C-0.99 10.495 -0.99 10.495 -2 11 C-2.66 10.34 -3.32 9.68 -4 9 C-4.99 9.66 -5.98 10.32 -7 11 C-5.5140084 6.40693504 -3.14985318 3.56430755 0 0 Z " fill="#111010" transform="translate(333,423)"/>
<path d="M0 0 C-0.39803561 2.88575819 -0.79009069 3.82189513 -3.0625 5.75 C-3.701875 6.1625 -4.34125 6.575 -5 7 C-5.99 6.01 -6.98 5.02 -8 4 C-3.375 0 -3.375 0 0 0 Z " fill="#232323" transform="translate(317,451)"/>
<path d="M0 0 C0.66 0.66 1.32 1.32 2 2 C3.32 1.34 4.64 0.68 6 0 C4.25 4.875 4.25 4.875 2 6 C2 5.34 2 4.68 2 4 C1.21625 4.515625 0.4325 5.03125 -0.375 5.5625 C-1.24125 6.036875 -2.1075 6.51125 -3 7 C-3.66 6.67 -4.32 6.34 -5 6 C-3.35 4.02 -1.7 2.04 0 0 Z " fill="#0F0E0E" transform="translate(315,447)"/>
<path d="M0 0 C2.64 0.33 5.28 0.66 8 1 C7.2884375 1.680625 7.2884375 1.680625 6.5625 2.375 C4.90972192 3.93258204 4.90972192 3.93258204 4 6 C2.68 6 1.36 6 0 6 C0 4.02 0 2.04 0 0 Z " fill="#222223" transform="translate(813,410)"/>
<path d="M0 0 C1.32 1.32 2.64 2.64 4 4 C3.34 5.32 2.68 6.64 2 8 C1.01 7.67 0.02 7.34 -1 7 C-1.04254356 5.00045254 -1.04080783 2.99958364 -1 1 C-0.67 0.67 -0.34 0.34 0 0 Z " fill="#202020" transform="translate(324,528)"/>
<path d="M0 0 C5.37305699 -0.35233161 5.37305699 -0.35233161 8 0 C10 2 10 2 11 4 C10.67 4.66 10.34 5.32 10 6 C9.5875 5.525625 9.175 5.05125 8.75 4.5625 C6.817815 2.83733482 5.51807725 2.43415125 3 2 C2.67 2.66 2.34 3.32 2 4 C1.34 2.68 0.68 1.36 0 0 Z " fill="#0F0F0F" transform="translate(231,410)"/>
<path d="M0 0 C2 1 2 1 3 3 C2.01 3 1.02 3 0 3 C0 3.66 0 4.32 0 5 C0.66 5 1.32 5 2 5 C2 5.99 2 6.98 2 8 C-0.92824652 7.02391783 -2.61426621 5.89213369 -5 4 C-4.34 4 -3.68 4 -3 4 C-3 3.34 -3 2.68 -3 2 C-2.01 1.34 -1.02 0.68 0 0 Z " fill="#292929" transform="translate(1008,487)"/>
<path d="M0 0 C3.63 0 7.26 0 11 0 C9.02 0.99 9.02 0.99 7 2 C6.154375 2.721875 5.30875 3.44375 4.4375 4.1875 C3.2309375 5.0846875 3.2309375 5.0846875 2 6 C1.01 5.67 0.02 5.34 -1 5 C-0.34 5 0.32 5 1 5 C1.33 4.01 1.66 3.02 2 2 C1.34 1.34 0.68 0.68 0 0 Z " fill="#282728" transform="translate(849,486)"/>
<path d="M0 0 C0.66 0.33 1.32 0.66 2 1 C-2.455 4.465 -2.455 4.465 -7 8 C-7.66 6.68 -8.32 5.36 -9 4 C-7.88625 3.71125 -6.7725 3.4225 -5.625 3.125 C-1.99708908 2.30758671 -1.99708908 2.30758671 0 0 Z " fill="#131313" transform="translate(729,555)"/>
<path d="M0 0 C0.66 0.33 1.32 0.66 2 1 C1.67 1.556875 1.34 2.11375 1 2.6875 C-0.1309601 5.30284522 -0.15662974 7.1806646 0 10 C-0.99 10.495 -0.99 10.495 -2 11 C-3.25 8.3125 -3.25 8.3125 -4 5 C-2.125 2.125 -2.125 2.125 0 0 Z " fill="#0F0F0F" transform="translate(324,435)"/>
<path d="M0 0 C0.66 0.33 1.32 0.66 2 1 C1.3503125 1.5878125 1.3503125 1.5878125 0.6875 2.1875 C-1.26366224 4.28319278 -2.59010162 6.51589333 -4 9 C-4.99 8.67 -5.98 8.34 -7 8 C-4.69 5.36 -2.38 2.72 0 0 Z " fill="#100F10" transform="translate(569,421)"/>
<path d="M0 0 C2.475 0.495 2.475 0.495 5 1 C5.33 1.99 5.66 2.98 6 4 C4.35 4.33 2.7 4.66 1 5 C0.67 3.35 0.34 1.7 0 0 Z " fill="#242425" transform="translate(234,412)"/>
<path d="M0 0 C2.99693138 0.99897713 4.02709413 1.65130253 6 4 C6 4.66 6 5.32 6 6 C3.69 6 1.38 6 -1 6 C-0.67 4.02 -0.34 2.04 0 0 Z " fill="#333333" transform="translate(967,410)"/>
<path d="M0 0 C2.97 0.495 2.97 0.495 6 1 C5.6875 2.9375 5.6875 2.9375 5 5 C4.01 5.33 3.02 5.66 2 6 C1.34 4.02 0.68 2.04 0 0 Z " fill="#202020" transform="translate(243,541)"/>
<path d="M0 0 C2.625 0.9375 2.625 0.9375 5 2 C4 5 4 5 1.9375 6.1875 C1.298125 6.455625 0.65875 6.72375 0 7 C-0.66 5.02 -1.32 3.04 -2 1 C-1.34 0.67 -0.68 0.34 0 0 Z " fill="#232323" transform="translate(279,469)"/>
<path d="M0 0 C2 2 2 2 2.125 5.125 C2.08375 6.07375 2.0425 7.0225 2 8 C0.68 8 -0.64 8 -2 8 C-2.33 6.68 -2.66 5.36 -3 4 C-2.34 3.67 -1.68 3.34 -1 3 C-0.67 2.01 -0.34 1.02 0 0 Z " fill="#212021" transform="translate(392,444)"/>
<path d="M0 0 C0 0.33 0 0.66 0 1 C-4.95 0.67 -9.9 0.34 -15 0 C-15 -0.33 -15 -0.66 -15 -1 C-9.43842552 -1.91457003 -5.324335 -2.32086397 0 0 Z " fill="#0B0B0C" transform="translate(700,413)"/>
<path d="M0 0 C0.78375 0.185625 1.5675 0.37125 2.375 0.5625 C4.97089775 1.25962266 4.97089775 1.25962266 7 0 C5.75023244 3.65316671 5.32901247 4.78065836 2 7 C1.7834375 5.824375 1.7834375 5.824375 1.5625 4.625 C1.12201075 2.03578982 1.12201075 2.03578982 0 0 Z " fill="#0F1010" transform="translate(268,508)"/>
<path d="M0 0 C0.66 0 1.32 0 2 0 C3.625 2.5 3.625 2.5 5 5 C3.35 5.33 1.7 5.66 0 6 C-0.66 5.01 -1.32 4.02 -2 3 C-1.34 2.01 -0.68 1.02 0 0 Z " fill="#212021" transform="translate(276,463)"/>
<path d="M0 0 C1.32 0.66 2.64 1.32 4 2 C1.6875 4.5 1.6875 4.5 -1 7 C-1.99 7 -2.98 7 -4 7 C-2.68 4.69 -1.36 2.38 0 0 Z " fill="#212121" transform="translate(418,414)"/>
<path d="M0 0 C2.97 0.33 5.94 0.66 9 1 C9 1.99 9 2.98 9 4 C5.80097361 4.08886184 3.07322544 3.91058531 0 3 C0 2.01 0 1.02 0 0 Z " fill="#302F30" transform="translate(821,561)"/>
<path d="M0 0 C1.32 1.65 2.64 3.3 4 5 C3.34 5 2.68 5 2 5 C2 6.98 2 8.96 2 11 C-0.06874624 7.00042393 -1.37656391 4.43559483 0 0 Z " fill="#232223" transform="translate(335,542)"/>
<path d="M0 0 C1.32 0 2.64 0 4 0 C4 0.66 4 1.32 4 2 C6.31 2.33 8.62 2.66 11 3 C11 3.33 11 3.66 11 4 C9.56163249 3.88541307 8.12429034 3.75790884 6.6875 3.625 C5.88699219 3.55539062 5.08648438 3.48578125 4.26171875 3.4140625 C2 3 2 3 -1 1 C-0.67 0.67 -0.34 0.34 0 0 Z " fill="#0E0E0E" transform="translate(852,490)"/>
<path d="M0 0 C0.66 0 1.32 0 2 0 C2.625 1.8125 2.625 1.8125 3 4 C2.01 5.485 2.01 5.485 1 7 C0.01 5.35 -0.98 3.7 -2 2 C-1.34 1.34 -0.68 0.68 0 0 Z " fill="#202020" transform="translate(331,538)"/>
<path d="M0 0 C2.27795022 2.27795022 3.05219877 3.93787293 4 7 C3.625 9.3125 3.625 9.3125 3 11 C0.60236815 8.60236815 0.65719414 7.66726502 0.375 4.375 C0.30023438 3.55773437 0.22546875 2.74046875 0.1484375 1.8984375 C0.09945313 1.27195312 0.05046875 0.64546875 0 0 Z " fill="#F2F1F2" transform="translate(387,524)"/>
<path d="M0 0 C0.99 0.66 1.98 1.32 3 2 C2.34 3.65 1.68 5.3 1 7 C-0.32 6.01 -1.64 5.02 -3 4 C-2.01 2.68 -1.02 1.36 0 0 Z " fill="#222122" transform="translate(333,425)"/>
<path d="M0 0 C-0.375 1.9375 -0.375 1.9375 -1 4 C-1.99 4.495 -1.99 4.495 -3 5 C-3.99 4.34 -4.98 3.68 -6 3 C-6 2.34 -6 1.68 -6 1 C-3.92446352 0.4465236 -2.15634036 0 0 0 Z " fill="#2D2C2C" transform="translate(863,560)"/>
<path d="M0 0 C0 3 0 3 -2 5.1875 C-2.66 5.785625 -3.32 6.38375 -4 7 C-4 6.34 -4 5.68 -4 5 C-4.66 4.67 -5.32 4.34 -6 4 C-4.02 2.68 -2.04 1.36 0 0 Z " fill="#100F0F" transform="translate(253,537)"/>
<path d="M0 0 C1 3 1 3 0.0625 5.1875 C-0.4634375 6.0846875 -0.4634375 6.0846875 -1 7 C-1.99 6.34 -2.98 5.68 -4 5 C-3.34 4.34 -2.68 3.68 -2 3 C-2.33 2.34 -2.66 1.68 -3 1 C-2.01 0.67 -1.02 0.34 0 0 Z " fill="#242325" transform="translate(296,474)"/>
<path d="M0 0 C1.25541557 3.76624671 0.37061958 5.37188934 -1 9 C-1.12375 8.360625 -1.2475 7.72125 -1.375 7.0625 C-1.684375 6.0415625 -1.684375 6.0415625 -2 5 C-2.66 4.67 -3.32 4.34 -4 4 C-2.68 2.68 -1.36 1.36 0 0 Z " fill="#292829" transform="translate(557,445)"/>
<path d="M0 0 C1.44810616 2.31280265 2.12565635 3.41644339 1.5390625 6.140625 C1.23742187 6.83671875 0.93578125 7.5328125 0.625 8.25 C0.32851563 8.95640625 0.03203125 9.6628125 -0.2734375 10.390625 C-0.51320313 10.92171875 -0.75296875 11.4528125 -1 12 C-2.09898702 8.70303895 -1.87124444 7.59505097 -1.0625 4.3125 C-0.86785156 3.50425781 -0.67320312 2.69601562 -0.47265625 1.86328125 C-0.31667969 1.24839844 -0.16070313 0.63351562 0 0 Z " fill="#E9EAEA" transform="translate(555,437)"/>
<path d="M0 0 C0.99 0.66 1.98 1.32 3 2 C0.94766315 4.2477975 -0.00667261 5.0022242 -3 6 C-3.33 5.01 -3.66 4.02 -4 3 C-3.34 3 -2.68 3 -2 3 C-1.67 2.34 -1.34 1.68 -1 1 C-0.67 0.67 -0.34 0.34 0 0 Z " fill="#242324" transform="translate(810,415)"/>
<path d="M0 0 C2.64 0 5.28 0 8 0 C6.25 2.0625 6.25 2.0625 4 4 C1.75 3.75 1.75 3.75 0 3 C0 2.01 0 1.02 0 0 Z " fill="#252525" transform="translate(427,413)"/>
<path d="M0 0 C-2.71182212 2.60334924 -3.89133813 2.99456691 -7.75 3.1875 C-8.8225 3.125625 -9.895 3.06375 -11 3 C-10 1 -10 1 -8.3125 0.375 C-5.51555886 -0.07855802 -2.82858003 -0.06428591 0 0 Z " fill="#111211" transform="translate(966,410)"/>
<path d="M0 0 C0.99 0 1.98 0 3 0 C3.33 1.32 3.66 2.64 4 4 C2.35 4.33 0.7 4.66 -1 5 C-1.33 4.01 -1.66 3.02 -2 2 C-1.34 2 -0.68 2 0 2 C0 1.34 0 0.68 0 0 Z " fill="#232223" transform="translate(389,519)"/>
</svg>
