<?xml version="1.0" encoding="UTF-8"?>
<svg version="1.1" xmlns="http://www.w3.org/2000/svg" width="1024" height="1024">
<path d="M0 0 C337.92 0 675.84 0 1024 0 C1024 337.92 1024 675.84 1024 1024 C686.08 1024 348.16 1024 0 1024 C0 686.08 0 348.16 0 0 Z " fill="#EDECE9" transform="translate(0,0)"/>
<path d="M0 0 C190.74 0 381.48 0 578 0 C576.84452163 23.10956732 576.84452163 23.10956732 575.66777039 34.35310364 C575.54026177 35.58103103 575.54026177 35.58103103 575.41017723 36.83376503 C575.32251406 37.67752882 575.23485088 38.52129261 575.14453125 39.390625 C574.95997256 41.20593759 574.77593048 43.02130276 574.59236145 44.8367157 C574.20442496 48.66542105 573.81366848 52.49382233 573.42047119 56.32199097 C572.49110994 65.37304181 571.57665426 74.42560276 570.6625824 83.47820854 C570.45774324 85.50671492 570.25273616 87.53520435 570.04756165 89.56367683 C568.71222463 102.77143805 567.41000396 115.98161059 566.17578125 129.19921875 C566.07345279 130.29506601 566.07345279 130.29506601 565.96905708 131.41305161 C565.28476129 138.75346465 564.61028899 146.09475607 563.94067383 153.43652344 C562.78187851 166.0794118 561.50601359 178.6996589 560.07583618 191.31483459 C558.90904689 201.65633873 557.92934323 212.00985701 557 222.375 C555.84782271 235.17152224 554.6037027 247.95464264 553.26913452 260.73348999 C551.42040729 278.48537181 549.67605946 296.24778156 547.92066956 314.00909042 C547.62113538 317.03909342 547.32127895 320.06906438 547.0213623 323.09902954 C544.60683079 347.49882032 542.2271727 371.90079916 539.95953369 396.31472778 C538.48390564 412.1817281 536.86811564 428.03044784 535.18841553 443.87704468 C532.86621169 465.82824915 530.84238311 487.80508991 528.84095764 509.78752136 C527.97306786 519.31825481 527.08445693 528.84696393 526.1875 538.375 C526.06231379 539.70702905 525.93714996 541.0390602 525.81201172 542.37109375 C525.54165879 545.24742589 525.27102138 548.12373078 525 551 C489.36862426 562.25422711 489.36862426 562.25422711 477.25906372 565.83944702 C471.38992937 567.57907319 465.53372367 569.35875708 459.6796875 571.1484375 C447.32503516 574.91671551 434.94537143 578.59936066 422.56393433 582.2784729 C405.42423374 587.37320881 388.28746705 592.46852706 371.22583008 597.81982422 C359.48942026 601.49359961 347.70854639 605.01829503 335.92382812 608.53344727 C334.23305932 609.0378776 332.54230402 609.54235321 330.8515625 610.046875 C330.02146667 610.2945311 329.19137085 610.54218719 328.33612061 610.79734802 C322.88977382 612.42560593 317.45428045 614.08646898 312.0234375 615.765625 C309.97277 616.39569092 307.92185258 617.02493517 305.87081909 617.65380859 C303.99451967 618.23241644 302.12134627 618.82113113 300.24829102 619.41015625 C289.3719011 622.73828015 282.68274869 621.8808518 272 618.375 C269.35219546 617.52643607 266.7015338 616.68695945 264.05078125 615.84765625 C262.97586174 615.50606728 262.97586174 615.50606728 261.87922668 615.15757751 C253.63400653 612.54750165 245.33949126 610.10656139 237.04547119 607.65704346 C215.86608739 601.39843943 194.74090702 594.9685649 173.625 588.5 C147.64373578 580.54150108 121.64441941 572.64539323 95.625 564.8125 C94.83091988 564.57342926 94.03683975 564.33435852 93.21869659 564.08804321 C85.37755402 561.72744846 77.53599095 559.36825449 69.69384766 557.01098633 C68.54926086 556.66266754 67.40467407 556.31434875 66.22540283 555.95547485 C64.14567778 555.33938902 62.05652742 554.75388701 59.95770264 554.20639038 C59.05562073 553.96643341 58.15353882 553.72647644 57.22412109 553.47924805 C56.44926361 553.28630661 55.67440613 553.09336517 54.87606812 552.89457703 C52.36478987 551.69710887 51.91838165 550.59225212 51 548 C50.60331726 545.88372803 50.60331726 545.88372803 50.39331055 543.56933594 C50.30927475 542.68682663 50.22523895 541.80431732 50.13865662 540.89506531 C50.05551712 539.93453751 49.97237762 538.9740097 49.88671875 537.984375 C49.79242081 536.96861893 49.69812286 535.95286285 49.60096741 534.90632629 C49.28876991 531.52154122 48.98819046 528.1358252 48.6875 524.75 C48.46650162 522.33058546 48.24480868 519.91123427 48.02246094 517.49194336 C46.95011007 505.77416477 45.91436392 494.05311767 44.87890625 482.33203125 C44.59868913 479.16138961 44.31842634 475.99075204 44.03799438 472.82012939 C43.84433122 470.6295213 43.65095633 468.4388877 43.45785522 466.24822998 C40.99285958 438.33594847 38.28671987 410.44669066 35.60343933 382.55472851 C35.11567863 377.48441733 34.6280745 372.41409111 34.140625 367.34375 C34.04589905 366.35855692 33.9511731 365.37336384 33.85357666 364.35831642 C32.28460439 348.03364549 30.74904252 331.70625623 29.25 315.375 C27.78559559 299.43392499 26.29007997 283.49644714 24.75 267.5625 C22.32945114 242.5023466 19.94065269 217.43920929 17.5625 192.375 C17.46469868 191.34451538 17.36689735 190.31403076 17.26613235 189.25231934 C14.55422058 160.67329884 11.89209468 132.09048581 9.32214355 103.49835205 C8.0705344 89.57561166 6.8006261 75.65671821 5.37353516 61.75073242 C3.27320044 41.15776396 1.63136113 20.66390769 0 0 Z " fill="#EE417C" transform="translate(224,284)"/>
<path d="M0 0 C121.44 0 242.88 0 368 0 C365.91108627 24.02250786 363.44781572 48.01140599 361 72 C268.27 72 175.54 72 80 72 C82.80824133 100.02196999 82.80824133 100.02196999 86 128 C86 131.96 86 135.92 86 140 C174.77 140 263.54 140 355 140 C352.68760685 172.37350408 352.68760685 172.37350408 351.24960327 187.22288513 C351.14549511 188.30232328 351.04138695 189.38176144 350.93412399 190.49390984 C350.82695683 191.60451334 350.71978966 192.71511684 350.609375 193.859375 C350.38142152 196.24830794 350.15377897 198.63727058 349.92642212 201.02626038 C349.32742995 207.31239969 348.72458435 213.59816342 348.12090302 219.88385391 C347.49703739 226.38678204 346.87674274 232.89005055 346.25634766 239.39331055 C346.0082157 241.99400391 345.76007729 244.59469666 345.51193237 247.19538879 C345.3898428 248.47498789 345.26775322 249.75458698 345.14196396 251.07296181 C344.77517529 254.91538889 344.40792752 258.75777185 344.04055786 262.60014343 C342.67079693 276.93125633 341.31188649 291.26329276 339.9765625 305.59765625 C339.86813019 306.76079786 339.86813019 306.76079786 339.75750732 307.94743729 C339.17348965 314.21318209 338.59062333 320.4790311 338.01159668 326.74523926 C337.68355214 330.29512928 337.3536284 333.84484035 337.0234375 337.39453125 C336.88671127 338.88763573 336.88671127 338.88763573 336.7472229 340.41090393 C336.29120158 345.2996071 335.74587955 350.14677143 335 355 C334.40203613 355.14920898 333.80407227 355.29841797 333.18798828 355.45214844 C318.0153619 359.2615786 302.96483157 363.40656004 287.9375 367.75 C271.88774342 372.38679049 255.78865479 376.76631554 239.59985352 380.8918457 C230.75032024 383.15852454 221.9809467 385.57069286 213.25390625 388.2734375 C211.49327643 388.80849927 209.73245521 389.34293168 207.97143555 389.87670898 C204.67743376 390.8754635 201.40477928 391.92227479 198.13598633 393.00024414 C188.26441015 396.09760812 181.1227186 396.07638905 171.20794678 392.7227478 C167.95928838 391.65933416 164.66497443 390.78509254 161.36599731 389.89253235 C158.57968442 389.13795585 155.79920591 388.3645913 153.01953125 387.5859375 C135.71638287 382.74512386 118.39353741 378.00557505 101 373.5 C78.25753623 367.60789933 55.62692172 361.31924403 33 355 C32.06983347 345.09874253 31.14161765 335.1973035 30.21489716 325.29572296 C30.00682708 323.07293291 29.79861451 320.85015624 29.59039307 318.62738037 C28.85707089 310.79513302 28.12813296 302.96249909 27.40701485 295.12911797 C27.07366442 291.50923636 26.73828098 287.88956483 26.39868164 284.27026367 C26.06010657 280.66111961 25.72650518 277.05154638 25.39627647 273.44162941 C25.21348925 271.4568426 25.02575737 269.47251308 24.83784485 267.48820496 C24.18572528 260.30073707 23.83885767 253.21687025 24 246 C33.50074325 245.97687516 43.00147688 245.9590842 52.50224209 245.94818783 C56.91337004 245.94295931 61.3244788 245.93586223 65.7355957 245.92456055 C69.98901115 245.91373056 74.24240809 245.90772293 78.49583626 245.90512276 C80.12221633 245.90326871 81.74859534 245.89964848 83.37496758 245.89426994 C85.64510193 245.88705802 87.91515885 245.88600912 90.18530273 245.88647461 C91.47991928 245.884254 92.77453583 245.88203339 94.10838318 245.87974548 C97 246 97 246 98 247 C98.15100813 248.33171857 98.2378347 249.67082457 98.29711914 251.00976562 C98.33708511 251.86155396 98.37705109 252.71334229 98.41822815 253.59094238 C98.45681442 254.5199939 98.4954007 255.44904541 98.53515625 256.40625 C98.59962196 257.83704895 98.59962196 257.83704895 98.66539001 259.29675293 C98.75580868 261.32436432 98.84391819 263.35207977 98.92993164 265.37988281 C99.06076796 268.45923488 99.19867863 271.53820392 99.33789062 274.6171875 C99.424902 276.58852305 99.51150313 278.55987676 99.59765625 280.53125 C99.63826675 281.44410767 99.67887726 282.35696533 99.72071838 283.29748535 C99.95466047 288.87062514 100.03647426 294.4219163 100 300 C101.10545166 300.10940918 102.21090332 300.21881836 103.34985352 300.33154297 C108.50205033 300.97979476 113.4051473 302.3134007 118.40234375 303.6953125 C119.38998215 303.96389572 120.37762054 304.23247894 121.39518738 304.50920105 C124.5773745 305.37603736 127.75739429 306.25056221 130.9375 307.125 C133.117543 307.71948129 135.29771912 308.31347462 137.47802734 308.90698242 C146.50144856 311.36769624 155.52005738 313.84334169 164.51171875 316.41796875 C165.66486572 316.74716309 166.8180127 317.07635742 168.00610352 317.41552734 C170.01277422 317.9926317 172.01737388 318.57701302 174.01928711 319.17041016 C181.9966241 321.47605057 187.53372913 321.07634447 195.5 318.625 C206.82404801 315.25932251 218.2386345 312.2725105 229.6730957 309.30963135 C232.03781728 308.69677293 234.40192493 308.08162982 236.765625 307.46484375 C237.91285034 307.1658316 237.91285034 307.1658316 239.08325195 306.86077881 C245.28532177 305.226849 251.43417171 303.43237254 257.5581665 301.52659607 C260.90756665 300.5067437 263.45548369 300 267 300 C267.04463379 299.30302002 267.08926758 298.60604004 267.13525391 297.88793945 C267.94141596 286.3823873 269.34059813 274.95047519 270.69238281 263.4987793 C272.74962684 246.01698194 274.35596894 228.53633126 276 211 C191.52 211 107.04 211 20 211 C16.55394645 184.58025608 16.55394645 184.58025608 15.82080078 176.14819336 C15.73085846 175.15868179 15.64091614 174.16917023 15.54824829 173.14967346 C15.25966196 169.96343156 14.97743417 166.77666392 14.6953125 163.58984375 C14.48779504 161.28581528 14.27984726 158.98182553 14.07150269 156.6778717 C13.52695251 150.64442669 12.98771444 144.61051943 12.4498291 138.57647705 C11.91863067 132.62559738 11.38315393 126.67510347 10.84765625 120.72460938 C10.63474189 118.35861237 10.42183093 115.99261505 10.20892334 113.62661743 C10.10351982 112.45537952 9.9981163 111.28414162 9.88951874 110.07741165 C9.57017454 106.52580942 9.25160307 102.97413854 8.9331665 99.42245483 C7.8508074 87.36225044 6.75557491 75.30336897 5.63574219 63.24658203 C5.52358557 62.03896619 5.41142895 60.83135035 5.29587364 59.58714008 C4.76364175 53.86241555 4.22951912 48.13787401 3.69290161 42.41355896 C3.49822309 40.32722029 3.30355113 38.240881 3.10888672 36.15454102 C3.02612362 35.27813272 2.94336052 34.40172443 2.85808945 33.49875832 C1.81875782 22.33909864 0.93089878 11.1707853 0 0 Z " fill="#F9F9F4" transform="translate(327,393)"/>
<path d="M0 0 C77.55 0 155.1 0 235 0 C233.87395851 14.63853938 233.87395851 14.63853938 233.40258789 19.69775391 C233.24029442 21.44525436 233.24029442 21.44525436 233.07472229 23.22805786 C232.9585405 24.46506439 232.8423587 25.70207092 232.72265625 26.9765625 C232.59475115 28.34365742 232.46685746 29.7107534 232.338974 31.07785034 C231.98949035 34.80723798 231.63788238 38.53642232 231.28546143 42.26553345 C231.13602202 43.84696077 230.98673159 45.42840217 230.83758545 47.00985718 C227.92280126 77.91554419 224.8185628 108.80094558 221.67598724 139.68419266 C218.4380687 171.50686205 215.31242725 203.3370814 212.33422852 235.18505859 C212.0614666 238.1012469 211.78858944 241.01742439 211.515625 243.93359375 C211.45006849 244.6343251 211.38451199 245.33505646 211.31696892 246.05702209 C209.98933415 260.23612161 208.57587929 274.40593895 207.13824463 288.57424927 C205.28238064 306.88707557 203.57077197 325.21246534 201.87354279 343.54051208 C199.75404711 366.41879189 197.45780425 389.27393775 195.0480957 412.1237793 C193.96701441 422.40872462 192.90315785 432.69135285 192.02734375 442.99609375 C191.9228466 444.22365387 191.9228466 444.22365387 191.8162384 445.47601318 C191.50888681 449.12545332 191.21351304 452.7753598 190.93676758 456.42724609 C190.790177 458.2518335 190.790177 458.2518335 190.640625 460.11328125 C190.56360352 461.14235596 190.48658203 462.17143066 190.40722656 463.23168945 C189.97080504 466.19846619 189.38589276 468.33696733 188 471 C185.88710022 472.1502533 185.88710022 472.1502533 183.22680664 472.90209961 C182.223629 473.19742081 181.22045135 473.492742 180.18687439 473.79701233 C179.0849324 474.0998967 177.98299042 474.40278107 176.84765625 474.71484375 C174.45839985 475.40966264 172.06924393 476.1048271 169.68017578 476.80029297 C168.42054016 477.1593573 167.16090454 477.51842163 165.86309814 477.8883667 C160.1200906 479.53093095 154.41163037 481.28835576 148.69913483 483.03336143 C145.38008899 484.04544488 142.05836744 485.0486654 138.73681641 486.05249023 C137.36907182 486.46610998 136.00133508 486.87975564 134.63360596 487.29342651 C133.94620583 487.50131176 133.25880569 487.70919701 132.55057526 487.92338181 C125.98769686 489.90838209 119.42531564 491.89502399 112.86328125 493.8828125 C112.1386393 494.1023226 111.41399734 494.3218327 110.66739655 494.54799461 C97.14337157 498.64571589 83.63267452 502.78621343 70.125 506.9375 C52.25495184 512.42906299 34.34749593 517.78523751 16.41064453 523.05444336 C15.52699219 523.31403336 14.64333984 523.57362335 13.73291016 523.84107971 C12.08808874 524.32388203 10.44308054 524.80604865 8.79785156 525.28746033 C5.8495642 526.15174139 2.91500317 527.02833228 0 528 C-0.06946766 519.05536869 -0.12279465 510.11083004 -0.15543652 501.16598797 C-0.17110189 497.01266143 -0.19235582 492.85951925 -0.22631836 488.70629883 C-0.2588811 484.69924415 -0.27684645 480.69236696 -0.28463173 476.6851902 C-0.29018082 475.15533465 -0.30101676 473.62548897 -0.31719017 472.09570885 C-0.33892415 469.95511145 -0.34196872 467.81525027 -0.34057617 465.67456055 C-0.35056892 463.84588692 -0.35056892 463.84588692 -0.36076355 461.98027039 C0 459 0 459 1.16497803 457.19549561 C3.59903341 455.60973666 5.89227117 454.95033524 8.70092773 454.19750977 C9.88165359 453.87565704 11.06237946 453.55380432 12.27888489 453.22219849 C13.58040616 452.87841796 14.88197729 452.53482617 16.18359375 452.19140625 C17.53932095 451.82576013 18.89480037 451.4591942 20.25004578 451.09176636 C23.8883852 450.10793698 27.52990311 449.13639207 31.17209625 448.1669426 C34.95581078 447.15739265 38.73633461 446.13604425 42.51708984 445.11547852 C48.55249441 443.48750582 54.58935886 441.86508086 60.62744141 440.24707031 C70.58224732 437.57878818 80.52776494 434.87679068 90.4699707 432.16195679 C93.10128028 431.44397221 95.73319651 430.72824906 98.36523438 430.01293945 C106.46094641 427.8096785 114.54565521 425.57366553 122.61328125 423.26953125 C123.37155212 423.05352768 124.129823 422.83752411 124.91107178 422.61497498 C128.41949604 421.61491481 131.92575972 420.60839145 135.42822266 419.58764648 C136.62624512 419.24419189 137.82426758 418.9007373 139.05859375 418.546875 C140.09298584 418.24620117 141.12737793 417.94552734 142.19311523 417.63574219 C144.90267692 417.02204308 147.23387585 416.87436803 150 417 C150.03738281 416.15783936 150.07476563 415.31567871 150.11328125 414.44799805 C150.89038713 399.3372885 152.36995819 384.28460791 153.77545547 369.22243881 C154.00211657 366.78978374 154.2276156 364.35702368 154.45272827 361.92422485 C157.45653781 329.46460956 160.56171161 297.01456441 163.69185066 264.56691265 C164.06585837 260.68946219 164.43939277 256.81196629 164.81267929 252.93444633 C164.99093167 251.0829595 165.1693076 249.23148454 165.34781265 247.38002205 C166.43865489 236.05564766 167.50753249 224.73097749 168.414505 213.39006042 C168.47969833 212.59594254 168.54489166 211.80182465 168.61206055 210.98364258 C168.66396042 210.32431229 168.71586029 209.66498199 168.76933289 208.985672 C169.04216238 206.63704991 169.53629993 204.31850035 170 202 C81.23 202 -7.54 202 -99 202 C-105 144 -105 144 -105 134 C-12.27 134 80.46 134 176 134 C176.33 127.73 176.66 121.46 177 115 C177.36142639 110.79866864 177.74292703 106.616521 178.19140625 102.42578125 C178.30097153 101.36505905 178.4105368 100.30433685 178.52342224 99.21147156 C178.86531505 95.91133064 179.21374899 92.61192239 179.5625 89.3125 C179.79926789 87.0384572 180.03559863 84.76436885 180.27148438 82.49023438 C180.84263385 76.99295584 181.41911516 71.49625791 182 66 C182.33 66 182.66 66 183 66 C183.33 64.35 183.66 62.7 184 61 C123.28 61 62.56 61 0 61 C0 40.87 0 20.74 0 0 Z " fill="#FE568C" transform="translate(512,331)"/>
<path d="M0 0 C13.53 0 27.06 0 41 0 C51.32958873 11.07712475 51.32958873 11.07712475 54.76220703 19.22509766 C56.51310836 23.15029381 58.87618609 26.44644994 61.4375 29.875 C62.13746094 30.88304687 62.83742188 31.89109375 63.55859375 32.9296875 C64.03425781 33.61289063 64.50992188 34.29609375 65 35 C71.49220081 26.97092864 77.38083776 18.55215466 83.04296875 9.921875 C85.29081477 6.56580948 87.65220147 3.28691794 90 0 C103.2 0 116.4 0 130 0 C130 37.29 130 74.58 130 113 C117.79 113 105.58 113 93 113 C92.67 95.18 92.34 77.36 92 59 C84.91476623 69.62105589 84.91476623 69.62105589 77.8828125 80.27734375 C76.63076493 82.16443191 75.37817285 84.05115893 74.125 85.9375 C73.48820313 86.91912109 72.85140625 87.90074219 72.1953125 88.91210938 C71.5765625 89.83701172 70.9578125 90.76191406 70.3203125 91.71484375 C69.77648926 92.54105225 69.23266602 93.36726074 68.67236328 94.21850586 C68.1204834 94.80639893 67.56860352 95.39429199 67 96 C63 96 63 96 61.65254211 94.6847229 C61.25584824 94.06898407 60.85915436 93.45324524 60.45043945 92.81884766 C59.99349197 92.12457672 59.53654449 91.43030579 59.06575012 90.71499634 C58.58643539 89.95568817 58.10712067 89.19638 57.61328125 88.4140625 C57.11080368 87.64194427 56.60832611 86.86982605 56.09062195 86.0743103 C54.48465549 83.59949624 52.89864942 81.11255063 51.3125 78.625 C50.23237939 76.95491385 49.15101411 75.28563198 48.06835938 73.6171875 C40.3285126 61.65702519 40.3285126 61.65702519 39 59 C38.67 76.82 38.34 94.64 38 113 C25.46 113 12.92 113 0 113 C0 75.71 0 38.42 0 0 Z " fill="#070B0D" transform="translate(514,127)"/>
<path d="M0 0 C12.54 0 25.08 0 38 0 C38 12.54 38 25.08 38 38 C49.55 38 61.1 38 73 38 C73 25.46 73 12.92 73 0 C85.54 0 98.08 0 111 0 C111 37.29 111 74.58 111 113 C98.46 113 85.92 113 73 113 C73 100.79 73 88.58 73 76 C61.45 76 49.9 76 38 76 C38 88.21 38 100.42 38 113 C25.46 113 12.92 113 0 113 C0 75.71 0 38.42 0 0 Z " fill="#060A0C" transform="translate(268,127)"/>
<path d="M0 0 C84.48 0 168.96 0 256 0 C254.84630059 21.92028877 254.84630059 21.92028877 254.16796875 28.8046875 C254.09135513 29.61040695 254.01474152 30.4161264 253.93580627 31.2462616 C253.69159345 33.78971527 253.44026716 36.33238333 253.1875 38.875 C253.10173706 39.75155243 253.01597412 40.62810486 252.9276123 41.53121948 C251.36712097 57.41859831 249.38347986 73.21423588 247 89 C245.54654175 89.39155273 245.54654175 89.39155273 244.0637207 89.79101562 C240.32256165 90.79911481 236.58171593 91.80837293 232.84094238 92.81790161 C231.15751156 93.27204107 229.47399935 93.72587895 227.79040527 94.17941284 C218.98366077 96.55204819 210.18083974 98.93477471 201.40234375 101.41015625 C200.09009099 101.77865686 198.77783521 102.14714675 197.46557617 102.515625 C195.05128981 103.1958576 192.63858608 103.88174165 190.2277832 104.57421875 C184.88722682 106.07609001 179.74390068 107.36933307 174.20410156 107.80444336 C171.1223991 108.07786424 168.06271384 108.56246945 165 109 C165 73.36 165 37.72 165 1 C110.55 1 56.1 1 0 1 C0 0.67 0 0.34 0 0 Z " fill="#FD568C" transform="translate(347,604)"/>
<path d="M0 0 C92.73 0 185.46 0 281 0 C281 0.33 281 0.66 281 1 C222.92 1 164.84 1 105 1 C105 22.78 105 44.56 105 67 C160.77 67 216.54 67 274 67 C274 67.33 274 67.66 274 68 C185.56 68 97.12 68 6 68 C0 10 0 10 0 0 Z " fill="#EF3F7B" transform="translate(407,465)"/>
<path d="M0 0 C34.32 0 68.64 0 104 0 C104 12.54 104 25.08 104 38 C92.78 38 81.56 38 70 38 C70 62.75 70 87.5 70 113 C58.12 113 46.24 113 34 113 C34 87.92 34 62.84 34 37 C22.78 37 11.56 37 0 37 C0 24.79 0 12.58 0 0 Z " fill="#05090B" transform="translate(394,127)"/>
<path d="M0 0 C12.21 0 24.42 0 37 0 C37 25.74 37 51.48 37 78 C54.49 78 71.98 78 90 78 C90 89.55 90 101.1 90 113 C60.3 113 30.6 113 0 113 C0 75.71 0 38.42 0 0 Z " fill="#070B0D" transform="translate(663,127)"/>
<path d="M0 0 C12.21 0 24.42 0 37 0 C37 25.74 37 51.48 37 78 C36.67 78 36.34 78 36 78 C36 52.92 36 27.84 36 2 C24.78 2 13.56 2 2 2 C2 38.3 2 74.6 2 112 C27.26461871 111.63201098 27.26461871 111.63201098 52.52905273 111.25170898 C57.4395752 111.18371582 57.4395752 111.18371582 59.7457428 111.1532135 C61.34037731 111.13106799 62.9349823 111.10672513 64.52955627 111.08058167 C66.95903311 111.0411915 69.3885153 111.00899831 71.81811523 110.97827148 C72.86563918 110.95882178 72.86563918 110.95882178 73.93432522 110.93897915 C79.11184565 110.88452129 83.75569144 111.41729905 89 112 C89 101.11 89 90.22 89 79 C72.17 79 55.34 79 38 79 C38 78.67 38 78.34 38 78 C55.16 78 72.32 78 90 78 C90 89.55 90 101.1 90 113 C60.3 113 30.6 113 0 113 C0 75.71 0 38.42 0 0 Z " fill="#161717" transform="translate(663,127)"/>
<path d="M0 0 C12.54 0 25.08 0 38 0 C38 12.54 38 25.08 38 38 C48.89 38 59.78 38 71 38 C70.505 38.99 70.505 38.99 70 40 C65.64005933 40.024727 61.28015586 40.04287281 56.92016602 40.05493164 C55.43708587 40.05995903 53.95401067 40.06678185 52.47094727 40.07543945 C50.33869199 40.08757482 48.20650227 40.09324425 46.07421875 40.09765625 C44.79119873 40.10289307 43.50817871 40.10812988 42.1862793 40.11352539 C39 40 39 40 36 39 C36 26.79 36 14.58 36 2 C24.78 2 13.56 2 2 2 C2 38.3 2 74.6 2 112 C7.94 111.67 13.88 111.34 20 111 C25.86939746 110.88377431 30.28617276 110.85723455 36 112 C36 100.45 36 88.9 36 77 C36.33 77 36.66 77 37 77 C37 88.88 37 100.76 37 113 C24.79 113 12.58 113 0 113 C0 75.71 0 38.42 0 0 Z " fill="#252626" transform="translate(268,127)"/>
<path d="M0 0 C12.54 0 25.08 0 38 0 C38 37.29 38 74.58 38 113 C25.46 113 12.92 113 0 113 C0.33 102.44 0.66 91.88 1 81 C1.33 81 1.66 81 2 81 C2 91.23 2 101.46 2 112 C7.94 111.505 7.94 111.505 14 111 C17.17729667 110.91507226 20.32525146 110.85840724 23.5 110.875 C24.65628906 110.86919922 24.65628906 110.86919922 25.8359375 110.86328125 C29.46056057 110.86955222 32.45980496 111.11495124 36 112 C36 75.7 36 39.4 36 2 C24.78 2 13.56 2 2 2 C2 13.88 2 25.76 2 38 C1.67 38 1.34 38 1 38 C0.67 25.46 0.34 12.92 0 0 Z " fill="#1E1F1F" transform="translate(341,127)"/>
<path d="M0 0 C12.87 0 25.74 0 39 0 C39 0.33 39 0.66 39 1 C26.46 1 13.92 1 1 1 C1 38.29 1 75.58 1 114 C13.54 114 26.08 114 39 114 C39 101.79 39 89.58 39 77 C50.55 77 62.1 77 74 77 C74 80.3 74 83.6 74 87 C73.67 87 73.34 87 73 87 C72.505 83.04 72.505 83.04 72 79 C61.44 79 50.88 79 40 79 C40.01160156 81.58714844 40.02320313 84.17429687 40.03515625 86.83984375 C40.04294662 89.33520383 40.04902349 91.83056257 40.05493164 94.32592773 C40.05997204 96.06519168 40.0668043 97.80445136 40.07543945 99.54370117 C40.08751792 102.03825937 40.09323108 104.53276173 40.09765625 107.02734375 C40.10281754 107.80963852 40.10797882 108.59193329 40.11329651 109.39793396 C40.11349226 111.26567114 40.06199694 113.13329204 40 115 C38.15723491 116.84276509 35.57036241 116.12874411 33.11865234 116.13894653 C32.29574707 116.1369223 31.4728418 116.13489807 30.625 116.1328125 C29.78533691 116.13376923 28.94567383 116.13472595 28.08056641 116.13571167 C26.30175705 116.13639348 24.52294523 116.13453917 22.74414062 116.13037109 C20.01166224 116.12502283 17.27934824 116.13031605 14.546875 116.13671875 C12.8229163 116.13605797 11.09895771 116.13477681 9.375 116.1328125 C8.55209473 116.13483673 7.72918945 116.13686096 6.88134766 116.13894653 C1.11495054 116.11495054 1.11495054 116.11495054 0 115 C-0.09571971 113.50716202 -0.12188227 112.00980345 -0.12025452 110.51390076 C-0.12162918 109.54489838 -0.12300385 108.575896 -0.12442017 107.57752991 C-0.12082489 106.50579025 -0.11722961 105.4340506 -0.11352539 104.32983398 C-0.11367142 103.20802734 -0.11381744 102.0862207 -0.1139679 100.93041992 C-0.1132682 97.20229189 -0.10547315 93.47421311 -0.09765625 89.74609375 C-0.09579227 87.16919482 -0.09436827 84.59229553 -0.09336853 82.01539612 C-0.08993342 75.91324885 -0.0820426 69.81112206 -0.07201904 63.70898253 C-0.06085689 56.7635075 -0.0553472 49.81803165 -0.05032361 42.87254989 C-0.03985996 28.58168876 -0.02151489 14.29084866 0 0 Z " fill="#F8F8F7" transform="translate(267,126)"/>
<path d="M0 0 C34.32 0 68.64 0 104 0 C104 11.88 104 23.76 104 36 C103.67 36 103.34 36 103 36 C102.67 25.11 102.34 14.22 102 3 C99.01670654 2.98018066 96.03341309 2.96036133 92.9597168 2.93994141 C83.11688268 2.87311644 73.27415546 2.7954759 63.43144512 2.71247292 C57.46221439 2.66246869 51.49300172 2.61613901 45.52368164 2.578125 C39.7659122 2.54132437 34.00829234 2.49497865 28.25065041 2.44193649 C26.05098906 2.42336475 23.85129563 2.40826714 21.65158653 2.39665604 C18.57705655 2.37984119 15.50287122 2.35081762 12.4284668 2.31884766 C11.51352951 2.31668747 10.59859222 2.31452728 9.65592957 2.31230164 C8.4002417 2.29555641 8.4002417 2.29555641 7.1191864 2.2784729 C6.0282444 2.27017676 6.0282444 2.27017676 4.91526318 2.26171303 C3 2 3 2 0 0 Z " fill="#282A2B" transform="translate(394,127)"/>
<path d="M0 0 C12.87 0 25.74 0 39 0 C39 0.33 39 0.66 39 1 C26.46 1 13.92 1 1 1 C1 13.54 1 26.08 1 39 C-10.55 39 -22.1 39 -34 39 C-34 26.46 -34 13.92 -34 1 C-33.67 1 -33.34 1 -33 1 C-33 12.88 -33 24.76 -33 37 C-22.44 37 -11.88 37 -1 37 C-1.01160156 34.49664062 -1.02320313 31.99328125 -1.03515625 29.4140625 C-1.04295059 26.99479296 -1.04902521 24.5755248 -1.05493164 22.15625 C-1.05996653 20.47232438 -1.06679481 18.78840314 -1.07543945 17.10449219 C-1.08754196 14.68683797 -1.09323668 12.26924144 -1.09765625 9.8515625 C-1.10281754 9.0963028 -1.10797882 8.34104309 -1.11329651 7.56289673 C-1.11387171 2.22774341 -1.11387171 2.22774341 0 0 Z " fill="#FBFBFA" transform="translate(340,126)"/>
<path d="M0 0 C0.33 0 0.66 0 1 0 C1.33 11.55 1.66 23.1 2 35 C-9.22 35 -20.44 35 -32 35 C-32 34.67 -32 34.34 -32 34 C-16.655 33.505 -16.655 33.505 -1 33 C-0.67 22.11 -0.34 11.22 0 0 Z " fill="#353536" transform="translate(496,130)"/>
<path d="M0 0 C1.27286338 2.54572677 1.08245778 4.2447573 1.02172852 7.09228516 C0.99158409 8.68370834 0.99158409 8.68370834 0.96083069 10.30728149 C0.92027809 12.03076309 0.92027809 12.03076309 0.87890625 13.7890625 C0.85529526 14.96262299 0.83168427 16.13618347 0.80735779 17.3453064 C0.73059053 21.10532336 0.64662229 24.86514109 0.5625 28.625 C0.50929241 31.16926098 0.45655193 33.71353178 0.40429688 36.2578125 C0.27495773 42.50533245 0.13970111 48.75270363 0 55 C-0.33 55 -0.66 55 -1 55 C-1.33 39.16 -1.66 23.32 -2 7 C-2.66 6.67 -3.32 6.34 -4 6 C-2.68 4.02 -1.36 2.04 0 0 Z " fill="#FBFBFB" transform="translate(606,185)"/>
</svg>
