<?xml version="1.0" standalone="no"?>
<!DOCTYPE svg PUBLIC "-//W3C//DTD SVG 20010904//EN"
 "http://www.w3.org/TR/2001/REC-SVG-20010904/DTD/svg10.dtd">
<svg version="1.0" xmlns="http://www.w3.org/2000/svg"
 width="1024.000000pt" height="1024.000000pt" viewBox="0 0 1024.000000 1024.000000"
 preserveAspectRatio="xMidYMid meet">

<g transform="translate(0.000000,1024.000000) scale(0.100000,-0.100000)"
fill="#000000" stroke="none">
<path d="M5465 9225 c-179 -39 -302 -133 -356 -272 -28 -74 -31 -211 -6 -294
48 -160 160 -234 477 -319 180 -48 255 -81 287 -129 44 -65 19 -142 -59 -183
-34 -17 -60 -22 -123 -22 -136 -1 -233 49 -285 146 l-23 44 -149 -32 c-222
-48 -199 -38 -184 -82 65 -185 205 -307 415 -364 112 -31 307 -30 416 1 166
47 274 131 340 264 104 210 20 443 -199 551 -39 19 -132 52 -206 71 -262 71
-313 94 -344 158 -21 46 -20 75 4 115 43 70 189 96 285 51 46 -22 98 -73 118
-116 6 -14 16 -22 24 -19 7 3 82 24 166 47 83 22 155 44 160 48 14 14 -56 134
-112 190 -68 70 -173 124 -283 146 -93 18 -280 19 -363 0z"/>
<path d="M4478 8687 l-3 -533 -25 -48 c-33 -64 -80 -89 -162 -89 -80 1 -130
34 -164 108 l-25 53 -57 -13 c-31 -8 -101 -24 -155 -36 l-97 -22 6 -36 c18
-96 73 -192 150 -260 150 -132 424 -158 631 -61 79 36 169 124 206 200 54 110
57 147 57 733 l0 537 -179 0 -180 0 -3 -533z"/>
<path d="M2414 7363 c6 -60 53 -582 156 -1753 123 -1395 170 -1942 227 -2628
l58 -703 110 -34 c107 -33 1815 -552 2045 -622 l115 -35 440 137 c693 215
1768 555 1774 561 5 5 18 138 91 929 72 781 103 1110 295 3070 30 308 68 689
83 848 l28 287 -2714 0 -2715 0 7 -57z m4912 -516 c-4 -50 -45 -508 -92 -1017
-46 -509 -95 -1051 -109 -1205 -14 -154 -50 -543 -80 -865 -30 -322 -64 -693
-75 -825 -12 -132 -23 -241 -24 -243 -2 -1 -203 -63 -447 -136 -244 -74 -610
-184 -814 -246 -203 -61 -414 -124 -467 -139 l-98 -28 0 2382 0 2382 303 6
c166 4 622 10 1012 13 391 4 711 7 712 8 1 0 43 2 94 3 l92 3 -7 -93z m-2422
-538 c2 -2 5 -625 7 -1384 2 -1290 1 -1385 -15 -1453 -53 -219 -238 -320 -521
-283 -213 28 -474 93 -787 197 l-168 56 -1 111 c-1 62 -4 210 -8 330 -6 233
-8 227 46 206 35 -13 265 -73 365 -94 76 -16 76 -17 83 -53 20 -107 92 -155
274 -183 91 -14 141 -7 178 26 l28 23 -3 1258 -3 1257 261 -5 c143 -3 263 -7
264 -9z m-527 -2261 c-3 -7 -5 -2 -5 12 0 14 2 19 5 13 2 -7 2 -19 0 -25z"/>
<path d="M5921 6349 c-337 -30 -557 -183 -624 -434 -23 -88 -37 -235 -37 -397
0 -349 45 -505 184 -644 84 -83 157 -134 406 -279 237 -139 314 -189 372 -245
63 -61 71 -96 66 -295 -4 -173 -14 -214 -65 -267 -47 -49 -177 -77 -268 -58
-118 24 -151 78 -162 262 -3 60 -9 111 -13 113 -8 5 -519 -53 -532 -62 -15 -8
-3 -268 17 -392 51 -309 236 -471 578 -502 305 -28 614 48 784 193 105 89 165
184 203 320 53 192 65 616 21 781 -30 116 -84 211 -164 289 -81 79 -171 142
-453 315 -270 166 -356 230 -383 286 -18 36 -21 62 -21 158 0 137 16 194 66
238 42 37 90 51 180 51 182 0 255 -71 271 -261 l6 -69 31 0 c27 0 272 19 455
36 l63 6 -5 141 c-8 237 -63 389 -184 518 -153 162 -427 230 -792 198z m292
-10 c334 -29 524 -150 618 -393 35 -91 59 -235 59 -352 l0 -92 -62 -6 c-115
-11 -434 -36 -451 -36 -13 0 -17 9 -17 45 0 116 -48 218 -122 256 -32 17 -66
24 -130 27 -153 8 -223 -23 -266 -117 -22 -48 -26 -70 -26 -161 -1 -58 3 -122
7 -143 16 -75 95 -139 399 -325 296 -181 365 -230 454 -317 93 -92 143 -182
171 -305 21 -92 23 -434 5 -580 -42 -323 -171 -505 -435 -609 -151 -60 -382
-89 -570 -72 -187 18 -298 59 -397 148 -132 118 -180 264 -196 591 -5 109 -4
142 5 142 18 0 450 49 487 55 l31 5 6 -114 c8 -177 48 -242 163 -266 120 -25
256 13 306 86 39 56 48 109 48 284 0 129 -4 162 -19 195 -35 78 -110 134 -411
310 -443 259 -536 357 -580 616 -18 106 -24 383 -11 514 22 222 58 313 165
421 113 113 265 173 489 193 133 12 149 12 280 0z"/>
</g>
</svg>
