<?xml version="1.0" standalone="no"?>
<!DOCTYPE svg PUBLIC "-//W3C//DTD SVG 20010904//EN"
 "http://www.w3.org/TR/2001/REC-SVG-20010904/DTD/svg10.dtd">
<svg version="1.0" xmlns="http://www.w3.org/2000/svg"
 width="1024.000000pt" height="1024.000000pt" viewBox="0 0 1024.000000 1024.000000"
 preserveAspectRatio="xMidYMid meet">

<g transform="translate(0.000000,1024.000000) scale(0.100000,-0.100000)"
fill="#000000" stroke="none">
<path d="M4745 9903 c-151 -6 -436 -34 -545 -53 -406 -69 -571 -107 -829 -192
-151 -49 -416 -155 -515 -205 -179 -90 -373 -263 -441 -393 l-40 -75 -3 -357
c-3 -394 1 -428 60 -539 83 -157 275 -302 558 -422 214 -91 593 -198 815 -231
110 -17 115 -15 115 40 0 17 9 82 21 145 101 563 336 1018 765 1482 149 162
187 209 244 303 46 76 150 293 150 313 0 6 4 12 9 15 5 4 17 -18 27 -46 39
-120 146 -324 163 -313 5 2 15 -3 22 -13 13 -15 12 -16 -3 -3 -29 22 -20 -3
18 -55 48 -64 106 -124 114 -119 4 2 29 -19 56 -48 l49 -52 -52 50 c-29 27
-53 45 -53 39 0 -6 14 -23 31 -40 17 -16 72 -77 121 -136 50 -59 94 -105 98
-103 4 3 16 -5 26 -18 l19 -22 -22 19 c-38 32 -27 11 49 -91 284 -383 464
-832 523 -1310 6 -50 8 -52 33 -48 15 3 61 9 102 15 117 17 460 104 628 160
322 107 502 208 652 366 80 85 118 151 145 252 14 54 16 115 13 411 l-3 347
-37 75 c-39 78 -122 184 -144 184 -8 0 -14 5 -15 10 -3 51 -263 210 -511 311
-476 195 -913 296 -1468 339 -176 14 -710 18 -945 8z m448 -10 c-13 -2 -33 -2
-45 0 -13 2 -3 4 22 4 25 0 35 -2 23 -4z m-375 -10 c-10 -2 -28 -2 -40 0 -13
2 -5 4 17 4 22 1 32 -1 23 -4z m769 1 c-3 -3 -12 -4 -19 -1 -8 3 -5 6 6 6 11
1 17 -2 13 -5z m-979 -11 c-10 -2 -26 -2 -35 0 -10 3 -2 5 17 5 19 0 27 -2 18
-5z m1085 0 c-7 -2 -19 -2 -25 0 -7 3 -2 5 12 5 14 0 19 -2 13 -5z m44 1 c-3
-3 -12 -4 -19 -1 -8 3 -5 6 6 6 11 1 17 -2 13 -5z m-1249 -11 c-10 -2 -28 -2
-40 0 -13 2 -5 4 17 4 22 1 32 -1 23 -4z m1370 0 c-10 -2 -28 -2 -40 0 -13 2
-5 4 17 4 22 1 32 -1 23 -4z m-1555 -20 c-7 -2 -19 -2 -25 0 -7 3 -2 5 12 5
14 0 19 -2 13 -5z m1705 0 c-10 -2 -26 -2 -35 0 -10 3 -2 5 17 5 19 0 27 -2
18 -5z m-1775 -10 c-7 -2 -19 -2 -25 0 -7 3 -2 5 12 5 14 0 19 -2 13 -5z
m1844 1 c-3 -3 -12 -4 -19 -1 -8 3 -5 6 6 6 11 1 17 -2 13 -5z m-1904 -11 c-7
-2 -19 -2 -25 0 -7 3 -2 5 12 5 14 0 19 -2 13 -5z m1980 0 c-7 -2 -19 -2 -25
0 -7 3 -2 5 12 5 14 0 19 -2 13 -5z m54 -9 c-3 -3 -12 -4 -19 -1 -8 3 -5 6 6
6 11 1 17 -2 13 -5z m-2140 -10 c-3 -3 -12 -4 -19 -1 -8 3 -5 6 6 6 11 1 17
-2 13 -5z m-220 -40 c-3 -3 -12 -4 -19 -1 -8 3 -5 6 6 6 11 1 17 -2 13 -5z
m-50 -10 c-3 -3 -12 -4 -19 -1 -8 3 -5 6 6 6 11 1 17 -2 13 -5z m1274 -71
c-12 -20 -14 -14 -5 12 4 9 9 14 11 11 3 -2 0 -13 -6 -23z m-30 -70 c-12 -20
-14 -14 -5 12 4 9 9 14 11 11 3 -2 0 -13 -6 -23z m149 -8 c0 -5 -5 -3 -10 5
-5 8 -10 20 -10 25 0 6 5 3 10 -5 5 -8 10 -19 10 -25z m1820 -5 c18 -12 2 -12
-25 0 -13 6 -15 9 -5 9 8 0 22 -4 30 -9z m-1790 -65 c0 -5 -5 -3 -10 5 -5 8
-10 20 -10 25 0 6 5 3 10 -5 5 -8 10 -19 10 -25z m-239 -48 c-10 -9 -11 -8 -5
6 3 10 9 15 12 12 3 -3 0 -11 -7 -18z m263 7 c3 -8 2 -12 -4 -9 -6 3 -10 10
-10 16 0 14 7 11 14 -7z m-2384 -59 c0 -2 -13 -11 -30 -20 -38 -19 -40 -11 -2
9 31 17 32 18 32 11z m4555 -15 c3 -6 -1 -7 -9 -4 -18 7 -21 14 -7 14 6 0 13
-4 16 -10z m-2497 -41 c-12 -22 -28 -45 -36 -51 -7 -7 1 12 19 40 38 62 50 69
17 11z m-2258 -72 c0 -2 -10 -12 -22 -23 l-23 -19 19 23 c18 21 26 27 26 19z
m2181 -34 c-17 -21 -76 -85 -132 -143 l-101 -105 103 113 c57 63 114 127 127
143 13 16 26 29 29 29 2 0 -9 -17 -26 -37z m565 -23 c25 -30 29 -37 10 -20
-15 14 -37 39 -49 55 -24 36 -14 26 39 -35z m2215 33 c13 -16 12 -17 -3 -4
-10 7 -18 15 -18 17 0 8 8 3 21 -13z m-5011 -16 c0 -1 -28 -29 -62 -62 l-63
-60 60 63 c55 58 65 67 65 59z m5115 -84 c38 -47 64 -87 35 -53 -12 14 -35 40
-51 58 -16 17 -26 32 -22 32 5 0 22 -17 38 -37z m-2105 -173 c23 -28 40 -50
37 -50 -2 0 -26 26 -53 57 -27 31 -44 54 -37 50 6 -4 30 -30 53 -57z m-3209
-7 c-12 -20 -14 -14 -5 12 4 9 9 14 11 11 3 -2 0 -13 -6 -23z m2199 14 c0 -2
-15 -16 -32 -33 l-33 -29 29 33 c28 30 36 37 36 29z m-2213 -59 c-3 -8 -6 -5
-6 6 -1 11 2 17 5 13 3 -3 4 -12 1 -19z m5450 -20 c-3 -8 -6 -5 -6 6 -1 11 2
17 5 13 3 -3 4 -12 1 -19z m-3337 -38 c-23 -27 -44 -50 -47 -50 -3 0 14 23 37
50 23 28 44 50 47 50 3 0 -14 -22 -37 -50z m1181 23 c13 -16 12 -17 -3 -4 -10
7 -18 15 -18 17 0 8 8 3 21 -13z m-3304 -30 c-3 -10 -5 -4 -5 12 0 17 2 24 5
18 2 -7 2 -21 0 -30z m0 -75 c-2 -13 -4 -5 -4 17 -1 22 1 32 4 23 2 -10 2 -28
0 -40z m3423 -48 c30 -43 18 -37 -16 7 -15 20 -23 33 -16 29 6 -3 21 -20 32
-36z m-1390 11 c-5 -11 -15 -23 -21 -27 -6 -3 -3 5 6 20 20 30 30 35 15 7z
m-2033 -228 c-1 -43 -3 -10 -3 72 0 83 2 118 3 78 2 -40 2 -107 0 -150z m1987
162 c-9 -14 -18 -25 -21 -25 -5 0 5 18 20 38 17 22 18 13 1 -13z m-119 -185
c-9 -16 -18 -30 -21 -30 -2 0 2 14 11 30 9 17 18 30 21 30 2 0 -2 -13 -11 -30z
m-1868 -127 c-2 -16 -4 -5 -4 22 0 28 2 40 4 28 2 -13 2 -35 0 -50z m1803 7
c-6 -11 -13 -20 -16 -20 -2 0 0 9 6 20 6 11 13 20 16 20 2 0 0 -9 -6 -20z
m1860 -44 c0 -12 -5 -7 -19 24 -11 24 -11 24 3 6 9 -11 16 -24 16 -30z m-3663
-33 c-3 -10 -5 -4 -5 12 0 17 2 24 5 18 2 -7 2 -21 0 -30z m1739 -50 c-8 -15
-15 -25 -16 -21 0 12 23 58 27 54 3 -2 -2 -17 -11 -33z m-1739 5 c-3 -8 -6 -5
-6 6 -1 11 2 17 5 13 3 -3 4 -12 1 -19z m3713 -23 c0 -5 -5 -3 -10 5 -5 8 -10
20 -10 25 0 6 5 3 10 -5 5 -8 10 -19 10 -25z m-3550 -300 c46 -51 48 -54 11
-20 -23 22 -52 54 -63 70 -25 35 -20 30 52 -50z m5200 62 c0 -2 -12 -14 -27
-28 l-28 -24 24 28 c23 25 31 32 31 24z m-100 -100 c0 -2 -10 -12 -22 -23
l-23 -19 19 23 c18 21 26 27 26 19z m-5015 -37 c10 -11 16 -20 13 -20 -3 0
-13 9 -23 20 -10 11 -16 20 -13 20 3 0 13 -9 23 -20z m4925 -34 c0 -2 -8 -10
-17 -17 -16 -13 -17 -12 -4 4 13 16 21 21 21 13z m-4820 -42 c0 -2 -9 0 -20 6
-11 6 -20 13 -20 16 0 2 9 0 20 -6 11 -6 20 -13 20 -16z m70 -40 c0 -2 -9 0
-20 6 -11 6 -20 13 -20 16 0 2 9 0 20 -6 11 -6 20 -13 20 -16z m50 -30 c0 -2
-9 0 -20 6 -11 6 -20 13 -20 16 0 2 9 0 20 -6 11 -6 20 -13 20 -16z m4450 -34
c-8 -5 -19 -10 -25 -10 -5 0 -3 5 5 10 8 5 20 10 25 10 6 0 3 -5 -5 -10z
m-3383 -72 c-3 -8 -6 -5 -6 6 -1 11 2 17 5 13 3 -3 4 -12 1 -19z m2370 -40
c-3 -8 -6 -5 -6 6 -1 11 2 17 5 13 3 -3 4 -12 1 -19z m-2380 -30 c-3 -8 -6 -5
-6 6 -1 11 2 17 5 13 3 -3 4 -12 1 -19z m2390 -40 c-3 -7 -5 -2 -5 12 0 14 2
19 5 13 2 -7 2 -19 0 -25z m-2400 -25 c-3 -10 -5 -4 -5 12 0 17 2 24 5 18 2
-7 2 -21 0 -30z m2840 21 c-3 -3 -12 -4 -19 -1 -8 3 -5 6 6 6 11 1 17 -2 13
-5z m-40 -10 c-3 -3 -12 -4 -19 -1 -8 3 -5 6 6 6 11 1 17 -2 13 -5z m-44 -11
c-7 -2 -19 -2 -25 0 -7 3 -2 5 12 5 14 0 19 -2 13 -5z m-325 -56 c12 -3 10 -5
-5 -6 -18 -1 -23 4 -22 22 1 15 3 17 6 5 2 -9 12 -19 21 -21z m-2515 6 c-7 -2
-21 -2 -30 0 -10 3 -4 5 12 5 17 0 24 -2 18 -5z m2595 0 c-10 -2 -26 -2 -35 0
-10 3 -2 5 17 5 19 0 27 -2 18 -5z m-2525 -10 c-7 -2 -21 -2 -30 0 -10 3 -4 5
12 5 17 0 24 -2 18 -5z"/>
<path d="M5053 9482 c-73 -151 -126 -224 -283 -396 -143 -157 -211 -238 -286
-342 -47 -65 -55 -85 -26 -63 15 13 16 12 3 -3 -7 -10 -17 -16 -21 -13 -12 7
-106 -143 -172 -275 -219 -435 -318 -939 -278 -1415 53 -622 346 -1196 910
-1785 l100 -105 0 -258 c0 -276 3 -297 52 -331 26 -18 80 -21 109 -6 45 24 49
53 49 332 l0 264 76 74 c179 177 437 502 561 706 253 420 369 802 380 1259 8
305 -21 534 -103 810 -124 419 -322 757 -657 1124 -67 73 -141 158 -165 188
-52 67 -158 254 -174 306 -6 20 -14 37 -17 36 -3 0 -29 -48 -58 -107z m65
-2450 l-3 -2507 -5 2502 -5 2502 -48 -92 c-26 -51 -57 -103 -68 -117 -14 -17
-12 -10 6 20 14 25 45 82 68 127 22 45 44 80 49 77 4 -3 7 -1133 6 -2512z
m-175 2219 c-32 -44 -304 -341 -312 -341 -3 0 9 15 25 33 145 155 264 288 283
315 12 17 25 32 28 32 2 0 -8 -17 -24 -39z m-349 -396 c-20 -25 -39 -45 -42
-45 -5 0 8 17 52 68 35 40 28 23 -10 -23z m-44 -59 c0 -2 -8 -10 -17 -17 -16
-13 -17 -12 -4 4 13 16 21 21 21 13z m-30 -40 c0 -2 -8 -10 -17 -17 -16 -13
-17 -12 -4 4 13 16 21 21 21 13z m-120 -176 c-6 -11 -13 -20 -16 -20 -2 0 0 9
6 20 6 11 13 20 16 20 2 0 0 -9 -6 -20z m-29 -47 c-39 -72 -102 -174 -97 -158
9 25 96 175 102 175 3 0 0 -8 -5 -17z m-131 -252 c-6 -12 -8 -27 -4 -33 4 -7
3 -8 -4 -4 -7 4 -12 2 -12 -5 0 -7 -2 -10 -5 -7 -3 3 2 22 11 42 10 19 19 34
22 32 2 -2 -1 -14 -8 -25z m-39 -88 c-12 -20 -14 -14 -5 12 4 9 9 14 11 11 3
-2 0 -13 -6 -23z m-55 -149 c-8 -21 -15 -34 -15 -28 -1 15 20 76 25 71 2 -2
-2 -21 -10 -43z m-39 -126 c-3 -8 -6 -5 -6 6 -1 11 2 17 5 13 3 -3 4 -12 1
-19z m-20 -80 c-3 -7 -5 -2 -5 12 0 14 2 19 5 13 2 -7 2 -19 0 -25z m-10 -40
c-3 -8 -6 -5 -6 6 -1 11 2 17 5 13 3 -3 4 -12 1 -19z m-10 -40 c-3 -8 -6 -5
-6 6 -1 11 2 17 5 13 3 -3 4 -12 1 -19z m-10 -50 c-3 -8 -6 -5 -6 6 -1 11 2
17 5 13 3 -3 4 -12 1 -19z m-10 -50 c-3 -7 -5 -2 -5 12 0 14 2 19 5 13 2 -7 2
-19 0 -25z m-10 -40 c-3 -8 -6 -5 -6 6 -1 11 2 17 5 13 3 -3 4 -12 1 -19z
m-10 -75 c-3 -10 -5 -4 -5 12 0 17 2 24 5 18 2 -7 2 -21 0 -30z m-10 -80 c-3
-10 -5 -2 -5 17 0 19 2 27 5 18 2 -10 2 -26 0 -35z m-10 -145 c-2 -24 -4 -7
-4 37 0 44 2 63 4 43 2 -21 2 -57 0 -80z m0 -280 c-2 -24 -4 -7 -4 37 0 44 2
63 4 43 2 -21 2 -57 0 -80z m10 -140 c-2 -13 -4 -5 -4 17 -1 22 1 32 4 23 2
-10 2 -28 0 -40z m10 -75 c-3 -10 -5 -4 -5 12 0 17 2 24 5 18 2 -7 2 -21 0
-30z m10 -55 c-3 -8 -6 -5 -6 6 -1 11 2 17 5 13 3 -3 4 -12 1 -19z m10 -60
c-3 -7 -5 -2 -5 12 0 14 2 19 5 13 2 -7 2 -19 0 -25z m10 -50 c-3 -8 -6 -5 -6
6 -1 11 2 17 5 13 3 -3 4 -12 1 -19z m10 -40 c-3 -8 -6 -5 -6 6 -1 11 2 17 5
13 3 -3 4 -12 1 -19z m21 -78 c0 -9 -3 -7 -8 5 -5 11 -8 29 -8 40 0 16 2 15 8
-5 4 -14 8 -32 8 -40z m19 -72 c-3 -8 -6 -5 -6 6 -1 11 2 17 5 13 3 -3 4 -12
1 -19z m53 -133 c0 -5 -5 -3 -10 5 -5 8 -10 20 -10 25 0 6 5 3 10 -5 5 -8 10
-19 10 -25z m48 -120 c-3 -3 -9 2 -12 12 -6 14 -5 15 5 6 7 -7 10 -15 7 -18z
m51 -110 c0 -5 -11 10 -24 35 -13 25 -24 50 -24 55 0 6 11 -10 24 -35 13 -25
24 -49 24 -55z m19 -40 c-3 -3 -9 2 -12 12 -6 14 -5 15 5 6 7 -7 10 -15 7 -18z
m62 -110 c18 -33 28 -55 23 -50 -6 6 -26 37 -44 70 -18 33 -28 56 -22 50 5 -5
25 -37 43 -70z m123 -197 c30 -46 69 -103 87 -128 22 -31 24 -36 6 -15 -43 49
-162 225 -152 225 3 0 29 -37 59 -82z m259 -339 c42 -52 106 -123 142 -159 36
-36 66 -69 66 -75 0 -17 -220 228 -314 350 -36 46 -36 47 -5 14 19 -20 69 -79
111 -130z m283 -309 c11 -14 0 -7 -23 15 -23 21 -42 44 -42 49 0 10 24 -13 65
-64z m22 -67 c-3 -10 -5 -4 -5 12 0 17 2 24 5 18 2 -7 2 -21 0 -30z m43 -530
c17 -9 20 -13 8 -13 -22 0 -58 47 -57 74 0 15 4 10 12 -14 7 -19 23 -40 37
-47z"/>
<path d="M2367 7542 c2 -131 4 -372 6 -537 2 -261 5 -306 21 -350 47 -128 156
-257 301 -355 167 -113 480 -246 778 -332 182 -52 535 -125 667 -138 58 -6
119 -12 137 -14 l31 -4 -28 41 c-94 141 -221 434 -286 659 -37 130 -80 359
-87 467 l-4 65 -79 13 c-618 101 -1083 287 -1319 527 -44 44 -93 106 -110 138
l-30 56 2 -236z m24 116 c-3 -62 -12 -61 -10 0 1 29 5 50 8 47 2 -3 4 -24 2
-47z m30 -5 c13 -16 12 -17 -3 -4 -10 7 -18 15 -18 17 0 8 8 3 21 -13z m-34
-165 c-2 -24 -4 -7 -4 37 0 44 2 63 4 43 2 -21 2 -57 0 -80z m144 45 c13 -16
12 -17 -3 -4 -10 7 -18 15 -18 17 0 8 8 3 21 -13z m139 -109 c0 -3 -13 4 -30
16 -16 12 -30 24 -30 26 0 3 14 -4 30 -16 17 -12 30 -24 30 -26z m-283 -96
c-2 -24 -4 -7 -4 37 0 44 2 63 4 43 2 -21 2 -57 0 -80z m353 56 c0 -2 -13 2
-30 11 -16 9 -30 18 -30 21 0 2 14 -2 30 -11 17 -9 30 -18 30 -21z m80 -39
c17 -9 30 -18 30 -21 0 -4 -59 23 -69 32 -10 9 13 3 39 -11z m-433 -147 c-2
-13 -4 -5 -4 17 -1 22 1 32 4 23 2 -10 2 -28 0 -40z m820 -14 c-3 -3 -12 -4
-19 -1 -8 3 -5 6 6 6 11 1 17 -2 13 -5z m-820 -51 c-3 -10 -5 -4 -5 12 0 17 2
24 5 18 2 -7 2 -21 0 -30z m0 -130 c-2 -21 -4 -4 -4 37 0 41 2 58 4 38 2 -21
2 -55 0 -75z m1350 51 c-3 -3 -12 -4 -19 -1 -8 3 -5 6 6 6 11 1 17 -2 13 -5z
m50 -10 c-3 -3 -12 -4 -19 -1 -8 3 -5 6 6 6 11 1 17 -2 13 -5z m100 -56 c-3
-8 -6 -5 -6 6 -1 11 2 17 5 13 3 -3 4 -12 1 -19z m-1500 -90 c-2 -13 -4 -3 -4
22 0 25 2 35 4 23 2 -13 2 -33 0 -45z m1510 0 c-3 -7 -5 -2 -5 12 0 14 2 19 5
13 2 -7 2 -19 0 -25z m10 -80 c-3 -7 -5 -2 -5 12 0 14 2 19 5 13 2 -7 2 -19 0
-25z m-1520 -40 c-2 -13 -4 -3 -4 22 0 25 2 35 4 23 2 -13 2 -33 0 -45z m1530
-15 c-3 -10 -5 -4 -5 12 0 17 2 24 5 18 2 -7 2 -21 0 -30z m-1520 -35 c-3 -8
-6 -5 -6 6 -1 11 2 17 5 13 3 -3 4 -12 1 -19z m1540 -70 c-3 -7 -5 -2 -5 12 0
14 2 19 5 13 2 -7 2 -19 0 -25z m-1447 -138 c12 -16 19 -30 16 -30 -2 0 -14
14 -26 30 -12 17 -19 30 -16 30 2 0 14 -13 26 -30z m170 -178 c0 -7 -94 74
-120 104 -14 15 8 -1 48 -36 39 -35 72 -66 72 -68z m110 -68 c0 -2 -9 0 -20 6
-11 6 -20 13 -20 16 0 2 9 0 20 -6 11 -6 20 -13 20 -16z m70 -40 c0 -2 -9 0
-20 6 -11 6 -20 13 -20 16 0 2 9 0 20 -6 11 -6 20 -13 20 -16z m140 -64 c8 -5
11 -10 5 -10 -5 0 -17 5 -25 10 -8 5 -10 10 -5 10 6 0 17 -5 25 -10z m140 -60
c8 -5 11 -10 5 -10 -5 0 -17 5 -25 10 -8 5 -10 10 -5 10 6 0 17 -5 25 -10z
m567 -176 c-3 -3 -12 -4 -19 -1 -8 3 -5 6 6 6 11 1 17 -2 13 -5z m547 -30 c3
-8 2 -12 -4 -9 -6 3 -10 10 -10 16 0 14 7 11 14 -7z m-257 -30 c-3 -3 -12 -4
-19 -1 -8 3 -5 6 6 6 11 1 17 -2 13 -5z m287 -19 c9 -14 13 -25 8 -25 -5 0
-14 11 -20 25 -6 14 -10 25 -8 25 2 0 11 -11 20 -25z m-166 -2 c-10 -2 -26 -2
-35 0 -10 3 -2 5 17 5 19 0 27 -2 18 -5z m105 -10 c-7 -2 -21 -2 -30 0 -10 3
-4 5 12 5 17 0 24 -2 18 -5z"/>
<path d="M7848 7736 c-21 -44 -22 -50 -5 -40 7 4 9 3 4 -2 -5 -5 -12 -9 -15
-9 -13 0 -32 -16 -32 -27 0 -6 7 -5 18 3 15 13 16 12 3 -4 -8 -9 -16 -15 -19
-13 -3 3 -40 -28 -83 -68 -247 -232 -685 -408 -1264 -506 -71 -13 -136 -24
-142 -26 -9 -2 -13 -25 -13 -68 0 -128 -65 -426 -141 -644 -36 -102 -157 -357
-217 -455 l-41 -68 42 6 c23 3 101 12 172 20 229 26 587 112 872 209 452 155
718 329 824 537 56 113 60 153 57 698 -3 479 -4 493 -20 457z m-88 -151 c-24
-25 -46 -45 -49 -45 -3 0 15 20 39 45 24 25 46 45 49 45 3 0 -15 -20 -39 -45z
m-80 -69 c0 -2 -8 -10 -17 -17 -16 -13 -17 -12 -4 4 13 16 21 21 21 13z m-50
-40 c0 -3 -15 -14 -32 -26 l-33 -22 30 26 c31 27 35 29 35 22z m-345 -196 c-3
-5 -12 -10 -18 -10 -7 0 -6 4 3 10 19 12 23 12 15 0z m-45 -20 c-8 -5 -19 -10
-25 -10 -5 0 -3 5 5 10 8 5 20 10 25 10 6 0 3 -5 -5 -10z m607 -107 c-3 -10
-5 -4 -5 12 0 17 2 24 5 18 2 -7 2 -21 0 -30z m-1350 -99 c-3 -3 -12 -4 -19
-1 -8 3 -5 6 6 6 11 1 17 -2 13 -5z m-120 -20 c-3 -3 -12 -4 -19 -1 -8 3 -5 6
6 6 11 1 17 -2 13 -5z m-50 -41 c-3 -10 -5 -4 -5 12 0 17 2 24 5 18 2 -7 2
-21 0 -30z m-10 -105 c-3 -7 -5 -2 -5 12 0 14 2 19 5 13 2 -7 2 -19 0 -25z
m-10 -80 c-3 -7 -5 -2 -5 12 0 14 2 19 5 13 2 -7 2 -19 0 -25z m1540 -55 c-3
-10 -5 -4 -5 12 0 17 2 24 5 18 2 -7 2 -21 0 -30z m-1560 -45 c-3 -8 -6 -5 -6
6 -1 11 2 17 5 13 3 -3 4 -12 1 -19z m1540 -50 c-3 -8 -6 -5 -6 6 -1 11 2 17
5 13 3 -3 4 -12 1 -19z m-16 -45 c-12 -20 -14 -14 -5 12 4 9 9 14 11 11 3 -2
0 -13 -6 -23z m-18 -38 c-3 -9 -8 -14 -10 -11 -3 3 -2 9 2 15 9 16 15 13 8 -4z
m-33 -55 c-12 -16 -24 -30 -26 -30 -3 0 4 14 16 30 12 17 24 30 26 30 3 0 -4
-13 -16 -30z m-40 -53 c0 -2 -19 -21 -42 -42 l-43 -40 40 43 c36 39 45 47 45
39z m-130 -111 c0 -2 -8 -10 -17 -17 -16 -13 -17 -12 -4 4 13 16 21 21 21 13z
m-1419 -53 c-12 -20 -14 -14 -5 12 4 9 9 14 11 11 3 -2 0 -13 -6 -23z m-80
-190 c-12 -20 -14 -14 -5 12 4 9 9 14 11 11 3 -2 0 -13 -6 -23z m286 -219 c-3
-3 -12 -4 -19 -1 -8 3 -5 6 6 6 11 1 17 -2 13 -5z m-220 -40 c-3 -3 -12 -4
-19 -1 -8 3 -5 6 6 6 11 1 17 -2 13 -5z m-207 -14 c0 -5 -5 -10 -11 -10 -5 0
-7 5 -4 10 3 6 8 10 11 10 2 0 4 -4 4 -10z m113 3 c-7 -2 -19 -2 -25 0 -7 3
-2 5 12 5 14 0 19 -2 13 -5z"/>
<path d="M2368 5593 c2 -621 3 -647 23 -706 30 -90 84 -172 164 -252 124 -125
297 -223 606 -345 270 -106 531 -177 852 -230 262 -44 307 -50 457 -65 621
-59 1206 -37 1773 66 401 72 731 175 1054 329 305 145 490 321 552 524 20 66
21 88 21 700 l0 631 -30 -52 c-16 -28 -34 -54 -40 -58 -5 -3 -10 -11 -10 -17
0 -6 10 -3 23 8 l22 19 -19 -23 c-11 -12 -21 -20 -24 -17 -3 2 -34 -22 -69
-55 -230 -210 -634 -390 -1130 -504 -193 -44 -565 -100 -848 -127 l-130 -12
-55 -60 c-70 -76 -77 -95 -14 -37 48 44 48 43 -6 -13 -54 -57 -75 -73 -49 -39
7 9 -37 -32 -99 -92 l-111 -110 -3 -271 -3 -272 -28 -36 c-41 -54 -78 -70
-151 -65 -75 5 -116 30 -145 91 -20 40 -21 60 -21 296 l0 253 -151 159 c-83
87 -154 157 -158 155 -3 -2 -15 2 -26 10 -10 8 -14 14 -9 14 6 0 15 -5 22 -12
8 -8 12 -8 12 -1 0 23 -32 31 -195 47 -816 81 -1424 260 -1800 530 -95 68
-245 230 -245 265 0 5 -3 12 -7 14 -5 3 -7 -285 -5 -640z m30 566 c9 -13 9
-16 -3 -16 -8 0 -15 9 -15 20 0 11 1 18 3 16 1 -2 8 -11 15 -20z m-11 -492
c-1 -84 -3 -12 -3 158 0 171 2 239 3 152 2 -87 2 -227 0 -310z m69 421 l29
-33 -32 29 c-18 17 -33 31 -33 33 0 8 8 1 36 -29z m5334 -1 c0 -2 -15 -16 -32
-33 l-33 -29 29 33 c28 30 36 37 36 29z m-5254 -79 l29 -33 -32 29 c-18 17
-33 31 -33 33 0 8 8 1 36 -29z m5164 -1 c0 -2 -10 -12 -22 -23 l-23 -19 19 23
c18 21 26 27 26 19z m-50 -41 c0 -2 -8 -10 -17 -17 -16 -13 -17 -12 -4 4 13
16 21 21 21 13z m-40 -30 c0 -2 -8 -10 -17 -17 -16 -13 -17 -12 -4 4 13 16 21
21 21 13z m-4945 -26 c3 -6 -1 -7 -9 -4 -18 7 -21 14 -7 14 6 0 13 -4 16 -10z
m4890 -16 c-26 -20 -55 -36 -55 -30 0 5 63 46 70 46 3 -1 -4 -8 -15 -16z m-65
-39 c0 -2 -10 -9 -22 -15 -22 -11 -22 -10 -4 4 21 17 26 19 26 11z m-4113
-261 c-3 -3 -12 -4 -19 -1 -8 3 -5 6 6 6 11 1 17 -2 13 -5z m40 -10 c-3 -3
-12 -4 -19 -1 -8 3 -5 6 6 6 11 1 17 -2 13 -5z m3380 -10 c-3 -3 -12 -4 -19
-1 -8 3 -5 6 6 6 11 1 17 -2 13 -5z m-3140 -50 c-3 -3 -12 -4 -19 -1 -8 3 -5
6 6 6 11 1 17 -2 13 -5z m2940 0 c-3 -3 -12 -4 -19 -1 -8 3 -5 6 6 6 11 1 17
-2 13 -5z m-2850 -20 c-3 -3 -12 -4 -19 -1 -8 3 -5 6 6 6 11 1 17 -2 13 -5z
m2760 0 c-3 -3 -12 -4 -19 -1 -8 3 -5 6 6 6 11 1 17 -2 13 -5z m-4120 -406
c-1 -73 -3 -14 -3 132 0 146 2 205 3 133 2 -73 2 -193 0 -265z m1470 386 c-3
-3 -12 -4 -19 -1 -8 3 -5 6 6 6 11 1 17 -2 13 -5z m2540 0 c-3 -3 -12 -4 -19
-1 -8 3 -5 6 6 6 11 1 17 -2 13 -5z m-60 -10 c-3 -3 -12 -4 -19 -1 -8 3 -5 6
6 6 11 1 17 -2 13 -5z m-140 -20 c-3 -3 -12 -4 -19 -1 -8 3 -5 6 6 6 11 1 17
-2 13 -5z m-2089 -11 c-10 -2 -26 -2 -35 0 -10 3 -2 5 17 5 19 0 27 -2 18 -5z
m2035 0 c-7 -2 -21 -2 -30 0 -10 3 -4 5 12 5 17 0 24 -2 18 -5z m-80 -10 c-7
-2 -19 -2 -25 0 -7 3 -2 5 12 5 14 0 19 -2 13 -5z m-1810 -10 c-7 -2 -21 -2
-30 0 -10 3 -4 5 12 5 17 0 24 -2 18 -5z m1730 0 c-7 -2 -21 -2 -30 0 -10 3
-4 5 12 5 17 0 24 -2 18 -5z m-1636 -9 c-3 -3 -12 -4 -19 -1 -8 3 -5 6 6 6 11
1 17 -2 13 -5z m1556 -1 c-7 -2 -21 -2 -30 0 -10 3 -4 5 12 5 17 0 24 -2 18
-5z m-1460 -10 c-7 -2 -21 -2 -30 0 -10 3 -4 5 12 5 17 0 24 -2 18 -5z m1370
0 c-7 -2 -19 -2 -25 0 -7 3 -2 5 12 5 14 0 19 -2 13 -5z m-1270 -10 c-7 -2
-21 -2 -30 0 -10 3 -4 5 12 5 17 0 24 -2 18 -5z m1150 0 c-7 -2 -21 -2 -30 0
-10 3 -4 5 12 5 17 0 24 -2 18 -5z m-978 -133 c27 -27 47 -50 44 -50 -3 0 -27
23 -54 50 -27 28 -47 50 -44 50 3 0 27 -22 54 -50z m3132 -2 c-3 -8 -6 -5 -6
6 -1 11 2 17 5 13 3 -3 4 -12 1 -19z m-2387 -51 c0 -1 -37 -38 -82 -82 l-83
-80 80 83 c74 76 85 87 85 79z m-550 -160 c-3 -2 -25 20 -50 47 l-44 51 49
-47 c27 -26 47 -49 45 -51z m2937 -79 c-3 -8 -6 -5 -6 6 -1 11 2 17 5 13 3 -3
4 -12 1 -19z m-5450 -40 c-3 -8 -6 -5 -6 6 -1 11 2 17 5 13 3 -3 4 -12 1 -19z
m2910 -180 c-2 -29 -3 -6 -3 52 0 58 1 81 3 53 2 -29 2 -77 0 -105z m2473 42
c-6 -11 -13 -20 -16 -20 -2 0 0 9 6 20 6 11 13 20 16 20 2 0 0 -9 -6 -20z
m-5285 -55 c17 -23 21 -33 9 -23 -10 9 -28 32 -38 50 -22 39 -11 29 29 -27z
m5245 -8 c0 -2 -10 -12 -22 -23 l-23 -19 19 23 c18 21 26 27 26 19z m-5130
-124 c0 -8 -9 0 -50 45 l-45 47 48 -45 c26 -24 47 -45 47 -47z m2697 55 c-3
-8 -6 -5 -6 6 -1 11 2 17 5 13 3 -3 4 -12 1 -19z m2378 2 c-10 -11 -22 -20
-28 -20 -5 0 1 9 14 20 31 25 37 25 14 0z m-2378 -82 c-2 -13 -4 -5 -4 17 -1
22 1 32 4 23 2 -10 2 -28 0 -40z m2323 38 c0 -2 -8 -10 -17 -17 -16 -13 -17
-12 -4 4 13 16 21 21 21 13z m-4985 -36 c10 -11 16 -20 13 -20 -3 0 -13 9 -23
20 -10 11 -16 20 -13 20 3 0 13 -9 23 -20z m75 -56 c0 -2 -9 0 -20 6 -11 6
-20 13 -20 16 0 2 9 0 20 -6 11 -6 20 -13 20 -16z m45 -24 c3 -6 -1 -7 -9 -4
-18 7 -21 14 -7 14 6 0 13 -4 16 -10z m4715 5 c0 -2 -10 -9 -22 -15 -22 -11
-22 -10 -4 4 21 17 26 19 26 11z m-4660 -41 c0 -2 -9 0 -20 6 -11 6 -20 13
-20 16 0 2 9 0 20 -6 11 -6 20 -13 20 -16z m2231 -72 c-7 -2 -18 1 -23 6 -8 8
-4 9 13 5 13 -4 18 -8 10 -11z m62 -9 c-7 -2 -19 -2 -25 0 -7 3 -2 5 12 5 14
0 19 -2 13 -5z m-2043 -33 c8 -5 11 -10 5 -10 -5 0 -17 5 -25 10 -8 5 -10 10
-5 10 6 0 17 -5 25 -10z m467 -166 c-3 -3 -12 -4 -19 -1 -8 3 -5 6 6 6 11 1
17 -2 13 -5z m150 -40 c-3 -3 -12 -4 -19 -1 -8 3 -5 6 6 6 11 1 17 -2 13 -5z
m250 -50 c-3 -3 -12 -4 -19 -1 -8 3 -5 6 6 6 11 1 17 -2 13 -5z m2400 0 c-3
-3 -12 -4 -19 -1 -8 3 -5 6 6 6 11 1 17 -2 13 -5z m-2344 -11 c-7 -2 -21 -2
-30 0 -10 3 -4 5 12 5 17 0 24 -2 18 -5z m2290 0 c-7 -2 -19 -2 -25 0 -7 3 -2
5 12 5 14 0 19 -2 13 -5z m-2226 -9 c-3 -3 -12 -4 -19 -1 -8 3 -5 6 6 6 11 1
17 -2 13 -5z m2116 -11 c-7 -2 -19 -2 -25 0 -7 3 -2 5 12 5 14 0 19 -2 13 -5z
m-2006 -9 c-3 -3 -12 -4 -19 -1 -8 3 -5 6 6 6 11 1 17 -2 13 -5z m1946 -1 c-7
-2 -21 -2 -30 0 -10 3 -4 5 12 5 17 0 24 -2 18 -5z m-136 -19 c-3 -3 -12 -4
-19 -1 -8 3 -5 6 6 6 11 1 17 -2 13 -5z m-1610 -10 c-3 -3 -12 -4 -19 -1 -8 3
-5 6 6 6 11 1 17 -2 13 -5z m1546 -1 c-7 -2 -21 -2 -30 0 -10 3 -4 5 12 5 17
0 24 -2 18 -5z m-1445 -10 c-10 -2 -26 -2 -35 0 -10 3 -2 5 17 5 19 0 27 -2
18 -5z m1350 0 c-10 -2 -26 -2 -35 0 -10 3 -2 5 17 5 19 0 27 -2 18 -5z
m-1225 -10 c-13 -2 -33 -2 -45 0 -13 2 -3 4 22 4 25 0 35 -2 23 -4z m1130 0
c-13 -2 -33 -2 -45 0 -13 2 -3 4 22 4 25 0 35 -2 23 -4z m-1000 -10 c-13 -2
-33 -2 -45 0 -13 2 -3 4 22 4 25 0 35 -2 23 -4z m860 0 c-13 -2 -33 -2 -45 0
-13 2 -3 4 22 4 25 0 35 -2 23 -4z m-605 -10 c-21 -2 -57 -2 -80 0 -24 2 -7 4
37 4 44 0 63 -2 43 -4z"/>
<path d="M6980 2424 l0 -705 288 3 287 3 77 37 c186 88 259 213 294 507 17
148 17 240 -1 371 -40 297 -141 426 -375 479 -25 6 -163 11 -307 11 l-263 0 0
-706z m501 485 c83 -25 144 -105 175 -231 24 -101 29 -325 10 -437 -26 -150
-69 -223 -165 -279 -41 -24 -58 -27 -153 -31 l-108 -3 0 496 0 496 101 0 c56
0 119 -5 140 -11z"/>
<path d="M8160 2425 l0 -705 280 0 c358 0 420 13 519 105 74 70 94 124 99 272
5 142 -9 197 -64 261 -19 22 -59 53 -89 67 l-54 27 49 39 c100 79 133 148 133
279 -1 148 -49 239 -160 297 -110 59 -140 63 -440 63 l-273 0 0 -705z m527
478 c94 -44 122 -208 52 -297 -40 -51 -87 -66 -209 -66 l-110 0 0 190 0 190
116 0 c87 0 125 -4 151 -17z m56 -611 c78 -76 76 -245 -4 -319 -39 -35 -74
-43 -200 -43 l-119 0 0 203 0 202 144 -5 145 -5 34 -33z"/>
<path d="M1537 2764 c-46 -14 -116 -72 -144 -119 -10 -17 -12 -9 -12 48 l-1
67 -115 0 -115 0 0 -520 0 -520 124 0 125 0 3 368 c3 351 4 369 25 414 37 80
114 108 191 69 64 -32 65 -43 69 -473 l4 -378 119 0 119 0 3 363 3 362 25 50
c48 95 137 123 204 64 20 -17 40 -47 46 -67 6 -22 10 -186 10 -404 l0 -368
125 0 125 0 0 398 c0 408 -4 453 -43 527 -19 38 -72 88 -115 109 -18 9 -61 19
-95 23 -119 11 -215 -36 -278 -135 l-28 -44 -20 40 c-59 115 -212 170 -354
126z"/>
<path d="M2955 2767 c-161 -42 -257 -150 -284 -317 -16 -97 -13 -392 4 -474
34 -162 134 -247 326 -277 88 -14 211 2 284 35 96 44 162 134 185 252 19 97 9
485 -14 549 -56 153 -175 233 -361 241 -55 2 -110 -1 -140 -9z m202 -197 c69
-42 86 -123 81 -375 -3 -121 -9 -202 -17 -223 -19 -47 -79 -76 -158 -77 -70 0
-104 19 -138 76 -18 31 -20 51 -19 244 0 221 7 271 46 320 43 55 144 73 205
35z"/>
<path d="M4100 2767 c-26 -7 -62 -23 -82 -35 -39 -24 -98 -86 -98 -102 0 -6
-4 -10 -10 -10 -6 0 -10 30 -10 70 l0 71 -112 -3 -113 -3 -3 -517 -2 -518 124
0 125 0 3 333 c5 384 9 406 88 489 42 44 50 48 94 48 54 0 100 -20 118 -53 10
-17 14 -120 16 -419 l3 -398 125 0 124 0 0 354 c0 200 -5 389 -11 433 -19 135
-66 212 -153 248 -53 22 -169 28 -226 12z"/>
<path d="M4953 2770 c-92 -19 -173 -79 -216 -158 -47 -87 -61 -169 -60 -352 1
-321 60 -443 242 -500 120 -38 206 -21 304 61 l47 41 -4 -39 c-3 -21 -8 -67
-11 -103 -7 -71 -36 -149 -66 -176 -16 -14 -34 -16 -126 -11 -126 6 -158 15
-237 62 -33 19 -60 34 -60 33 -24 -42 -84 -193 -80 -199 11 -18 107 -61 182
-81 62 -17 107 -21 227 -22 133 0 156 2 206 22 71 28 141 89 168 146 46 95 51
161 51 732 l0 534 -110 0 -110 0 0 -46 0 -46 -41 36 c-23 19 -62 42 -88 51
-57 20 -162 27 -218 15z m228 -203 c19 -12 44 -42 57 -67 47 -96 48 -383 1
-477 -33 -65 -68 -88 -133 -88 -69 1 -117 31 -148 93 -20 42 -23 64 -26 204
-5 218 18 291 106 338 50 26 101 25 143 -3z"/>
<path d="M5995 2761 c-143 -42 -223 -119 -262 -253 -20 -72 -30 -411 -14 -503
30 -173 124 -264 307 -302 64 -13 94 -14 166 -5 145 18 233 70 286 170 43 80
52 148 52 371 0 267 -22 352 -112 438 -94 90 -277 127 -423 84z m236 -209 c42
-47 51 -91 56 -285 5 -184 -4 -280 -33 -324 -20 -32 -109 -58 -170 -48 -58 8
-108 54 -118 108 -11 60 -9 392 4 450 20 100 72 140 174 134 51 -3 63 -8 87
-35z"/>
</g>
</svg>
