<?xml version="1.0" standalone="no"?>
<!DOCTYPE svg PUBLIC "-//W3C//DTD SVG 20010904//EN"
 "http://www.w3.org/TR/2001/REC-SVG-20010904/DTD/svg10.dtd">
<svg version="1.0" xmlns="http://www.w3.org/2000/svg"
 width="1024.000000pt" height="1024.000000pt" viewBox="0 0 1024.000000 1024.000000"
 preserveAspectRatio="xMidYMid meet">

<g transform="translate(0.000000,1024.000000) scale(0.100000,-0.100000)"
fill="#000000" stroke="none">
<path d="M6956 8277 l-24 -24 1 -717 c0 -477 -3 -720 -10 -727 -7 -7 -59 16
-164 72 -85 45 -170 91 -189 101 -44 23 -96 23 -140 0 -107 -57 -630 -355
-780 -444 -120 -72 -182 -116 -199 -139 l-23 -34 6 -275 c3 -151 6 -413 6
-581 0 -301 0 -307 23 -339 15 -23 73 -62 192 -129 94 -54 284 -164 424 -245
298 -173 401 -226 437 -226 40 0 374 184 841 462 161 96 205 127 216 152 12
26 15 241 21 1377 l6 1346 -23 33 c-14 21 -89 75 -212 152 -367 229 -365 229
-409 185z m-236 -2146 c96 -56 181 -109 188 -118 17 -24 17 -408 -1 -442 -17
-34 -356 -221 -400 -221 -40 0 -363 176 -389 211 -14 21 -17 54 -20 232 -2
195 -1 208 17 227 11 10 99 64 195 120 140 80 181 99 205 96 17 -3 109 -50
205 -105z"/>
<path d="M3570 7016 c-102 -62 -342 -207 -535 -322 -287 -172 -353 -215 -370
-244 -20 -34 -20 -46 -16 -660 2 -344 7 -633 12 -642 9 -17 85 -62 329 -193
157 -85 488 -276 639 -370 126 -78 153 -79 271 -11 537 307 963 562 969 580 5
12 12 251 17 531 13 720 12 736 -8 767 -11 17 -141 100 -340 219 -178 105
-419 250 -536 321 -116 71 -220 132 -230 134 -9 2 -98 -46 -202 -110z m204 33
c31 -113 250 -530 458 -871 52 -86 86 -152 82 -159 -4 -7 -3 -9 4 -5 11 7 51
-57 192 -304 97 -170 220 -376 263 -440 17 -25 23 -39 14 -31 -9 7 -43 55 -74
106 -32 52 -61 91 -65 89 -4 -3 -5 1 -3 9 3 7 -6 25 -19 40 -14 15 -26 30 -26
32 0 3 0 10 0 15 0 6 -5 9 -12 8 -7 -2 -13 6 -14 18 -2 31 -55 124 -67 117 -6
-3 -7 -1 -3 5 4 7 1 12 -9 12 -12 0 -15 -5 -10 -17 4 -13 3 -15 -5 -7 -13 13
-2 47 12 38 6 -4 5 3 -1 15 -7 11 -14 21 -17 21 -3 0 -3 -4 1 -9 3 -5 0 -13
-6 -16 -7 -5 -10 1 -9 16 4 41 1 48 -21 44 -17 -4 -19 -2 -8 11 6 8 8 18 4 22
-4 4 -10 2 -12 -5 -3 -8 -12 -9 -29 -3 -15 6 -24 6 -24 0 0 -6 9 -10 20 -10
11 0 20 -7 20 -16 0 -8 -4 -12 -10 -9 -5 3 -10 1 -10 -4 0 -6 -4 -11 -10 -11
-5 0 -8 6 -6 13 1 6 1 9 -1 4 -3 -4 -9 -5 -14 -1 -5 3 -12 -2 -15 -10 -9 -23
-26 -8 -19 17 5 20 5 20 -6 3 -9 -14 -8 -21 5 -34 14 -14 16 -14 22 1 5 15 8
15 21 1 11 -10 19 -12 28 -4 9 8 14 6 19 -6 9 -23 7 -34 -5 -34 -5 0 -8 4 -4
9 3 5 0 13 -6 17 -7 4 -9 3 -5 -4 3 -6 2 -13 -4 -17 -5 -3 -10 1 -10 9 0 9 -5
16 -11 16 -5 0 -7 -5 -3 -12 5 -7 2 -9 -8 -6 -19 8 -39 -4 -42 -24 -3 -22 -26
-49 -37 -43 -4 3 -7 -4 -6 -15 1 -15 10 -23 29 -27 31 -6 49 -23 25 -23 -14 0
-32 -27 -29 -42 1 -5 -3 -8 -8 -8 -14 0 -13 13 3 29 10 11 9 13 -5 8 -11 -4
-18 0 -21 11 -3 9 -4 4 -4 -11 2 -42 23 -55 48 -29 11 12 24 22 29 22 5 0 11
10 13 23 l4 22 2 -23 c0 -12 -6 -25 -14 -28 -8 -4 -12 -11 -8 -17 4 -6 1 -7
-7 -2 -9 6 -10 2 -5 -15 5 -15 4 -20 -4 -16 -6 4 -11 5 -11 2 0 -2 -3 -11 -6
-20 -4 -11 -1 -16 10 -16 9 0 16 -4 16 -10 0 -5 -4 -10 -9 -10 -14 0 -33 28
-26 40 3 5 1 10 -4 10 -14 0 -14 -11 -1 -45 7 -18 15 -25 26 -21 9 3 12 2 9
-4 -4 -6 -12 -10 -18 -9 -26 3 -37 -2 -37 -16 0 -9 -6 -12 -16 -8 -9 3 -20 0
-25 -8 -14 -22 -10 -35 4 -14 15 20 23 12 31 -28 6 -36 -14 -51 -48 -36 -21
10 -29 10 -39 0 -10 -11 -7 -12 12 -6 16 5 21 4 17 -4 -4 -6 -18 -11 -30 -11
-13 0 -29 -7 -36 -16 -11 -12 -10 -18 5 -32 16 -16 17 -16 5 7 -11 21 -10 23
4 18 11 -4 15 -3 10 4 -4 7 2 9 17 7 13 -2 23 -9 21 -16 -4 -22 16 -13 24 11
7 22 7 22 16 -5 8 -24 13 -26 29 -17 11 5 17 14 14 18 -2 5 2 14 10 21 13 11
13 14 -2 26 -17 13 -17 14 0 8 9 -3 17 -1 17 5 0 6 -6 11 -12 11 -10 0 -10 2
0 9 8 4 14 12 14 16 0 4 -6 12 -14 17 -10 8 -10 9 2 5 8 -2 14 -10 12 -17 -2
-8 4 -11 18 -7 11 3 23 0 27 -6 3 -7 3 -9 -2 -5 -11 11 -38 -20 -31 -37 3 -8
0 -15 -5 -15 -7 0 -9 -11 -7 -25 3 -14 1 -28 -5 -32 -6 -3 -7 -1 -3 5 4 7 5
12 2 12 -16 0 -14 -21 3 -28 13 -4 17 -12 12 -20 -5 -9 -12 -7 -27 7 -18 16
-24 17 -44 6 -13 -7 -30 -11 -37 -8 -8 3 -13 0 -11 -7 2 -8 -15 -18 -42 -25
-39 -9 -42 -12 -22 -17 18 -5 22 -11 17 -27 -5 -16 -2 -19 14 -16 11 2 24 -1
27 -7 4 -7 2 -8 -5 -4 -6 4 -14 0 -17 -8 -6 -17 -26 -23 -22 -7 2 5 -9 20 -24
34 -22 21 -28 22 -33 9 -6 -16 10 -32 33 -32 6 0 12 -4 12 -10 0 -5 -7 -6 -17
-3 -11 4 -14 3 -9 -5 4 -7 2 -12 -5 -12 -9 0 -9 -3 1 -15 6 -8 9 -23 5 -35 -8
-25 3 -26 21 -2 12 16 13 15 11 -5 0 -12 -4 -21 -7 -21 -20 2 -30 -4 -24 -14
4 -6 3 -8 -4 -4 -6 3 -12 0 -14 -7 -2 -11 -8 -9 -23 6 -11 11 -15 17 -8 13 7
-4 17 2 22 13 9 16 7 20 -7 24 -13 4 -11 5 6 6 22 1 30 15 13 25 -5 4 -11 1
-13 -6 -3 -7 -7 -5 -11 6 -4 10 -3 15 3 11 11 -7 26 22 16 32 -3 4 -12 1 -18
-5 -9 -9 -15 -9 -25 0 -7 6 -16 8 -19 5 -9 -9 6 -48 17 -42 5 3 6 -1 3 -10 -4
-8 0 -23 7 -33 13 -15 12 -16 -3 -3 -10 7 -18 20 -18 27 0 8 -9 22 -19 31 -11
9 -17 21 -14 27 3 6 2 7 -3 3 -4 -4 -9 -18 -9 -30 0 -15 -6 -22 -17 -21 -10 1
-15 -2 -12 -7 3 -5 11 -9 19 -9 17 0 27 -27 12 -34 -7 -3 0 -3 14 0 20 4 28 0
37 -21 7 -14 17 -23 22 -20 6 4 9 1 8 -7 -2 -7 2 -12 8 -11 6 1 11 -5 11 -13
0 -20 -10 -17 -25 7 -13 20 -14 20 -28 2 -13 -17 -14 -16 -10 9 5 30 -14 43
-47 32 -11 -3 -17 -2 -14 3 4 5 0 10 -8 10 -8 0 -16 -6 -19 -14 -3 -7 -15 -13
-26 -13 -14 0 -19 4 -14 13 4 6 4 9 -1 5 -4 -4 -17 -3 -29 3 -17 8 -16 6 4
-10 14 -11 21 -23 17 -27 -4 -4 -7 -1 -7 6 0 8 -16 -3 -35 -23 -34 -36 -47
-73 -22 -64 6 2 11 14 10 25 -2 12 5 26 16 31 16 9 19 7 19 -14 0 -15 -5 -22
-12 -19 -6 3 -2 -2 8 -10 23 -18 21 -19 30 19 5 22 4 26 -4 15 -7 -11 -10 -12
-10 -2 0 7 7 20 15 28 8 9 15 12 15 8 0 -4 9 1 19 10 11 10 22 13 25 8 7 -12
24 -10 46 3 13 8 13 7 0 -9 -8 -10 -15 -26 -15 -35 -4 -48 -6 -55 -13 -45 -4
7 -15 8 -27 3 -11 -4 -14 -8 -6 -8 8 -1 11 -4 8 -8 -4 -3 -2 -11 3 -18 12 -14
-15 -55 -36 -55 -8 0 -12 -4 -9 -10 3 -6 -1 -7 -10 -4 -10 4 -15 2 -13 -7 2
-9 -4 -13 -14 -11 -10 2 -18 -2 -18 -8 0 -5 6 -10 13 -10 7 0 18 -9 25 -20 8
-13 8 -20 1 -20 -5 0 -7 -5 -3 -12 4 -7 3 -8 -4 -4 -7 4 -17 4 -23 0 -8 -4 -7
-9 2 -15 11 -7 10 -9 -4 -9 -15 0 -16 -3 -6 -21 6 -13 7 -19 1 -15 -15 9 -21
-16 -9 -35 8 -14 15 -15 33 -7 13 6 21 15 17 21 -3 6 -1 7 5 3 16 -10 54 12
46 26 -4 7 -3 8 4 4 12 -7 136 57 127 66 -3 2 1 5 7 5 7 0 75 37 150 81 146
86 209 121 193 104 -10 -10 -213 -129 -476 -279 -118 -67 -154 -83 -185 -82
-38 1 -37 1 15 12 35 8 55 17 56 27 4 23 -32 22 -48 -1 -16 -21 -29 -15 -19 9
5 14 4 15 -10 2 -11 -11 -12 -17 -4 -22 7 -5 6 -8 -4 -8 -9 0 -28 24 -44 58
-69 142 -380 712 -566 1037 -53 94 -111 195 -127 225 -17 30 -83 150 -148 265
-120 212 -179 300 -196 290 -5 -4 -9 -2 -9 4 0 19 64 61 381 250 178 107 407
244 509 307 102 62 188 113 191 114 3 0 13 -27 23 -61z m176 -45 c0 -2 -9 0
-20 6 -11 6 -20 13 -20 16 0 2 9 0 20 -6 11 -6 20 -13 20 -16z m65 -42 c-3 -3
-11 0 -18 7 -9 10 -8 11 6 5 10 -3 15 -9 12 -12z m215 -128 c0 -2 -9 0 -20 6
-11 6 -20 13 -20 16 0 2 9 0 20 -6 11 -6 20 -13 20 -16z m70 -40 c0 -2 -9 0
-20 6 -11 6 -20 13 -20 16 0 2 9 0 20 -6 11 -6 20 -13 20 -16z m50 -30 c0 -2
-9 0 -20 6 -11 6 -20 13 -20 16 0 2 9 0 20 -6 11 -6 20 -13 20 -16z m60 -34
c8 -5 11 -10 5 -10 -5 0 -21 10 -35 21 -24 20 -5 13 30 -11z m190 -116 c0 -7
-58 25 -65 36 -3 5 10 1 29 -11 20 -12 36 -23 36 -25z m115 -67 c6 -6 -12 2
-40 18 -27 15 -54 32 -60 38 -5 6 13 -2 40 -18 28 -15 55 -32 60 -38z m55 -33
c0 -2 -9 0 -20 6 -11 6 -20 13 -20 16 0 2 9 0 20 -6 11 -6 20 -13 20 -16z m83
-52 c12 -13 15 -22 8 -27 -6 -3 -11 1 -11 9 0 9 -13 22 -29 31 -17 8 -33 20
-36 26 -11 17 48 -16 68 -39z m-2186 -599 c-1 -104 -2 -19 -2 187 0 206 1 291
2 188 2 -104 2 -272 0 -375z m2173 542 c-7 -9 -15 -13 -19 -10 -3 3 1 10 9 15
21 14 24 12 10 -5z m-40 -49 c0 -2 -8 -10 -17 -17 -16 -13 -17 -12 -4 4 13 16
21 21 21 13z m-60 -76 c-17 -22 -34 -40 -37 -40 -2 0 10 18 27 40 17 22 34 40
37 40 2 0 -10 -18 -27 -40z m-1660 -524 c0 -2 -8 -10 -17 -17 -16 -13 -17 -12
-4 4 13 16 21 21 21 13z m-86 -122 c-53 -78 -73 -101 -53 -63 19 35 93 138 97
134 2 -1 -18 -34 -44 -71z m1355 59 c-3 -34 1 -41 21 -36 25 7 27 22 3 18 -10
-1 -12 0 -4 2 12 4 12 6 0 14 -10 6 -6 8 11 5 14 -3 28 -5 33 -5 4 -1 7 -6 7
-12 0 -5 -4 -7 -10 -4 -5 3 -10 -1 -10 -9 0 -10 6 -13 15 -10 8 4 15 1 15 -5
0 -6 -3 -10 -7 -10 -23 4 -31 -4 -35 -32 -4 -22 0 -33 14 -40 20 -11 24 -34 6
-45 -7 -4 -8 -3 -4 4 5 8 -2 12 -21 12 -25 1 -26 2 -11 14 10 7 15 16 11 20
-12 12 -13 48 -2 62 7 9 8 14 1 14 -5 0 -13 -7 -16 -16 -5 -14 -9 -14 -23 -3
-10 8 -14 9 -10 2 12 -19 -11 -25 -23 -6 -11 17 -11 17 -6 1 3 -10 1 -18 -4
-18 -16 0 -12 26 6 41 9 7 20 23 25 36 10 27 21 30 18 6z m126 -52 c3 -5 2
-12 -3 -15 -5 -3 -9 1 -9 9 0 17 3 19 12 6z m-15 -51 c0 -5 -2 -10 -4 -10 -3
0 -8 5 -11 10 -3 6 -1 10 4 10 6 0 11 -4 11 -10z m-1781 -385 c2 6 2 14 1 20
-1 5 2 7 5 3 11 -11 48 40 39 53 -4 7 -3 9 4 5 17 -10 92 106 85 133 -4 18 -1
21 21 21 16 0 25 -4 21 -10 -4 -6 -10 -8 -15 -5 -5 3 -12 0 -16 -6 -4 -8 -3
-9 4 -5 7 4 12 4 12 1 0 -12 -162 -235 -171 -235 -5 0 -8 81 -7 198 l2 197 6
-190 c3 -104 7 -185 9 -180z m1831 345 c0 -5 -7 -7 -15 -4 -8 4 -15 8 -15 10
0 2 7 4 15 4 8 0 15 -4 15 -10z m-60 -10 c0 -5 -4 -10 -10 -10 -5 0 -10 5 -10
10 0 6 5 10 10 10 6 0 10 -4 10 -10z m-1540 -30 c-12 -16 -24 -30 -26 -30 -7
0 5 20 24 43 24 27 25 20 2 -13z m1453 -7 c-4 -10 -2 -14 4 -10 6 4 14 0 17
-9 6 -16 -19 -44 -39 -43 -5 0 -4 3 3 6 6 2 12 9 12 14 0 6 -3 8 -7 6 -5 -3
-8 8 -8 24 0 16 5 29 12 29 7 0 10 -7 6 -17z m63 -29 c1 -9 0 -13 -4 -10 -3 4
-7 14 -8 22 -1 9 0 13 4 10 3 -4 7 -14 8 -22z m-31 -44 c-3 -5 -12 -10 -18
-10 -7 0 -6 4 3 10 19 12 23 12 15 0z m28 -25 c4 -8 2 -17 -3 -20 -6 -4 -10 3
-10 14 0 25 6 27 13 6z m-33 -54 c0 -5 -7 -14 -15 -21 -10 -9 -15 -9 -15 -1 0
6 5 11 11 11 5 0 7 5 4 10 -3 6 -1 10 4 10 6 0 11 -4 11 -9z m0 -81 c0 -5 -5
-10 -11 -10 -5 0 -7 5 -4 10 3 6 8 10 11 10 2 0 4 -4 4 -10z m47 -22 c-3 -7
-5 -2 -5 12 0 14 2 19 5 13 2 -7 2 -19 0 -25z m40 15 c0 -7 -4 -13 -8 -13 -4
0 -9 6 -12 13 -3 8 0 14 7 14 7 0 13 -6 13 -14z m-86 -40 c13 -17 13 -17 -7 0
-11 9 -26 17 -32 17 -7 0 -12 5 -12 10 0 14 32 -3 51 -27z m466 -63 c-2 -16
-287 -191 -287 -176 0 4 28 22 170 104 102 59 116 72 97 87 -6 6 -19 19 -27
30 -12 15 -8 14 17 -5 18 -14 31 -32 30 -40z m-617 20 c0 -5 10 -6 23 -4 13 2
16 1 7 -3 -8 -3 -21 -13 -28 -22 -8 -9 -11 -11 -8 -4 4 7 -1 11 -13 10 -15 -1
-17 -4 -9 -14 9 -11 6 -12 -12 -5 -13 5 -24 16 -26 24 -1 12 5 15 30 12 17 -2
25 -1 19 2 -18 8 -16 25 2 18 8 -4 15 -10 15 -14z m149 6 c9 -11 9 -16 -1 -22
-7 -4 -10 -4 -6 1 4 4 3 14 -3 22 -6 7 -9 13 -6 13 2 0 10 -6 16 -14z m-25
-25 c-4 -3 -9 -1 -11 6 -2 7 -11 9 -19 6 -7 -3 -11 -9 -8 -14 10 -16 -13 -9
-27 8 -9 11 -10 14 -2 9 7 -4 21 -3 30 3 18 10 50 -6 37 -18z m-59 -31 c3 -6
-1 -7 -9 -4 -18 7 -21 14 -7 14 6 0 13 -4 16 -10z m-25 -26 c0 -8 -19 -13 -24
-6 -3 5 1 9 9 9 8 0 15 -2 15 -3z m-47 -18 c8 3 18 1 22 -5 4 -7 -5 -11 -24
-11 -17 0 -31 5 -31 11 0 5 -5 7 -12 3 -7 -4 -8 -3 -4 5 6 9 11 9 21 1 7 -6
19 -8 28 -4z m87 -6 c0 -5 -5 -10 -11 -10 -5 0 -7 5 -4 10 3 6 8 10 11 10 2 0
4 -4 4 -10z m20 -25 c0 -9 -9 -15 -22 -14 -17 1 -19 2 -5 6 9 2 17 9 17 14 0
5 2 9 5 9 3 0 5 -7 5 -15z m-315 -5 c3 -5 1 -10 -4 -10 -6 0 -11 5 -11 10 0 6
2 10 4 10 3 0 8 -4 11 -10z m165 0 c20 10 20 5 6 -37 -4 -13 -12 -23 -17 -23
-6 0 -8 4 -5 9 4 5 0 12 -6 14 -7 3 -4 6 7 7 18 1 19 1 3 11 -10 5 -18 15 -17
22 0 9 2 9 6 0 3 -9 10 -10 23 -3z m53 -7 c-3 -7 -6 -13 -8 -13 -2 0 -5 6 -8
13 -3 8 1 14 8 14 7 0 11 -6 8 -14z m-3 -47 c0 -2 -6 -9 -14 -15 -11 -9 -16
-9 -22 0 -4 7 -3 9 4 5 6 -3 13 -2 17 4 6 10 15 14 15 6z m-61 -32 c-7 -8 -6
-14 3 -17 9 -4 10 -6 1 -6 -7 -1 -17 7 -22 17 -7 14 -6 18 9 18 14 0 16 -4 9
-12z m376 8 c-17 -15 -105 -63 -105 -58 0 3 24 19 53 36 52 30 69 37 52 22z
m-438 -24 c-3 -8 -6 -5 -6 6 -1 11 2 17 5 13 3 -3 4 -12 1 -19z m-7 -48 c0 -5
-2 -10 -4 -10 -3 0 -8 5 -11 10 -3 6 -1 10 4 10 6 0 11 -4 11 -10z m-67 -23
c-5 -8 -8 -7 -11 1 -2 7 -9 9 -14 6 -7 -4 -8 -2 -4 4 4 6 13 9 21 6 8 -4 12
-11 8 -17z m-47 -42 c1 -19 -3 -32 -7 -29 -14 8 -9 64 5 64 1 0 2 -16 2 -35z
m68 27 c3 -5 -1 -9 -9 -9 -8 0 -12 4 -9 9 3 4 7 8 9 8 2 0 6 -4 9 -8z m-237
-288 c-3 -3 -12 -4 -19 -1 -8 3 -5 6 6 6 11 1 17 -2 13 -5z"/>
<path d="M4368 5862 c-16 -17 -16 -18 2 -18 10 0 16 4 14 8 -3 4 0 8 5 8 6 0
11 -4 11 -10 0 -5 5 -10 10 -10 7 0 7 6 0 20 -13 24 -20 24 -42 2z"/>
<path d="M4299 5823 c-13 -15 -12 -15 9 -4 23 12 28 21 13 21 -5 0 -15 -7 -22
-17z"/>
<path d="M4345 5820 c3 -5 8 -10 11 -10 2 0 4 5 4 10 0 6 -5 10 -11 10 -5 0
-7 -4 -4 -10z"/>
<path d="M4220 5747 c0 -2 6 -10 14 -16 11 -9 16 -9 22 1 4 7 4 10 -1 6 -4 -4
-14 -3 -22 3 -7 6 -13 9 -13 6z"/>
<path d="M4281 5718 c-1 -20 14 -24 25 -6 4 6 3 8 -4 4 -5 -3 -13 0 -15 6 -3
8 -6 6 -6 -4z"/>
<path d="M4200 5714 c0 -13 18 -39 24 -34 2 3 -2 14 -10 24 -8 11 -14 16 -14
10z"/>
<path d="M4240 5696 c0 -8 4 -17 9 -20 5 -4 7 3 4 14 -6 23 -13 26 -13 6z"/>
<path d="M4190 5635 c0 -15 6 -25 14 -25 19 0 30 32 14 42 -21 13 -28 9 -28
-17z m17 -7 c-3 -8 -6 -5 -6 6 -1 11 2 17 5 13 3 -3 4 -12 1 -19z"/>
<path d="M4236 5585 c4 -8 8 -15 10 -15 2 0 4 7 4 15 0 8 -4 15 -10 15 -5 0
-7 -7 -4 -15z"/>
<path d="M4196 5547 c3 -10 9 -15 12 -12 3 3 0 11 -7 18 -10 9 -11 8 -5 -6z"/>
<path d="M4240 5530 c0 -5 5 -10 11 -10 5 0 7 5 4 10 -3 6 -8 10 -11 10 -2 0
-4 -4 -4 -10z"/>
<path d="M4250 5490 c0 -5 5 -10 11 -10 5 0 7 5 4 10 -3 6 -8 10 -11 10 -2 0
-4 -4 -4 -10z"/>
<path d="M4190 5468 c0 -4 6 -8 14 -8 8 0 17 4 20 8 2 4 -4 8 -15 8 -10 0 -19
-4 -19 -8z"/>
<path d="M4253 5463 c4 -6 -2 -18 -15 -27 -12 -9 -17 -16 -10 -16 6 0 15 0 20
0 4 0 8 5 8 10 3 23 5 24 14 10 5 -8 11 -12 15 -9 3 3 -5 14 -17 25 -12 10
-18 14 -15 7z"/>
<path d="M4186 5412 c-4 -23 -11 -40 -16 -37 -4 3 -10 -2 -13 -10 -5 -11 -1
-12 19 -5 22 9 25 8 19 -9 -4 -15 0 -18 22 -17 22 1 28 6 29 24 1 18 1 19 -3
2 -6 -26 -33 -26 -33 0 0 11 -4 20 -10 20 -10 0 -10 21 1 30 4 3 3 14 -1 25
-6 16 -9 11 -14 -23z"/>
<path d="M4006 5413 c-6 -14 -5 -15 5 -6 7 7 10 15 7 18 -3 3 -9 -2 -12 -12z"/>
<path d="M4146 5332 c-3 -5 1 -9 9 -9 8 0 12 4 9 9 -3 4 -7 8 -9 8 -2 0 -6 -4
-9 -8z"/>
<path d="M4050 5297 c0 -2 6 -10 14 -16 11 -9 16 -9 22 1 4 7 4 10 -1 6 -4 -4
-14 -3 -22 3 -7 6 -13 9 -13 6z"/>
<path d="M4113 5283 c0 -9 4 -10 14 -2 7 6 13 12 13 14 0 1 -6 2 -13 2 -8 0
-14 -6 -14 -14z"/>
<path d="M4031 5233 c16 -27 26 -29 26 -8 0 8 -3 13 -5 10 -3 -3 -12 1 -20 8
-13 11 -14 9 -1 -10z"/>
<path d="M4174 5238 c3 -10 -1 -18 -12 -21 -12 -3 -11 -5 6 -6 24 -1 27 6 11
29 -9 13 -10 13 -5 -2z"/>
<path d="M4218 5233 c7 -3 16 -2 19 1 4 3 -2 6 -13 5 -11 0 -14 -3 -6 -6z"/>
<path d="M4095 5209 c4 -5 11 -7 16 -4 5 4 9 1 9 -5 0 -6 5 -8 11 -5 13 9 7
15 -20 20 -12 2 -19 0 -16 -6z"/>
<path d="M3970 5189 c0 -5 5 -7 10 -4 6 3 10 8 10 11 0 2 -4 4 -10 4 -5 0 -10
-5 -10 -11z"/>
<path d="M4030 5179 c0 -4 -8 -6 -17 -2 -10 3 -15 2 -10 -2 6 -7 19 -10 61
-14 5 -1 3 -7 -3 -14 -11 -14 -5 -27 11 -27 5 0 7 4 4 9 -4 5 0 11 6 14 10 3
10 7 0 19 -15 18 -52 30 -52 17z"/>
<path d="M4000 5145 c-11 -13 -9 -15 13 -13 20 2 23 5 15 15 -13 16 -13 16
-28 -2z"/>
<path d="M3956 5142 c-3 -5 1 -9 9 -9 8 0 12 4 9 9 -3 4 -7 8 -9 8 -2 0 -6 -4
-9 -8z"/>
<path d="M3806 5093 c-6 -14 -5 -15 5 -6 7 7 10 15 7 18 -3 3 -9 -2 -12 -12z"/>
<path d="M3969 5108 c-7 -23 -4 -35 7 -35 9 0 11 4 4 12 -5 7 -7 15 -3 18 3 4
3 7 0 7 -4 0 -7 -1 -8 -2z"/>
<path d="M3921 5076 c-9 -10 -8 -16 3 -25 8 -7 14 -18 12 -24 -1 -7 -1 -9 1
-4 3 4 9 7 14 7 6 0 7 -4 4 -10 -3 -5 -1 -10 4 -10 18 0 12 19 -8 30 -12 6
-18 18 -16 30 5 24 2 25 -14 6z"/>
<path d="M3866 5025 c6 -16 42 -30 51 -21 4 3 -1 6 -9 6 -9 0 -18 7 -22 15 -3
8 -10 15 -15 15 -6 0 -8 -7 -5 -15z"/>
<path d="M3834 4971 c0 -11 5 -17 13 -14 10 4 11 9 2 19 -15 18 -15 18 -15 -5z"/>
<path d="M3938 4936 c-14 -10 -14 -13 0 -26 14 -13 15 -12 9 3 -4 11 -1 17 8
17 8 0 15 -4 15 -10 0 -5 4 -10 9 -10 15 0 5 33 -10 35 -8 2 -22 -3 -31 -9z"/>
<path d="M3775 4910 c3 -5 8 -10 11 -10 2 0 4 5 4 10 0 6 -5 10 -11 10 -5 0
-7 -4 -4 -10z"/>
<path d="M3914 4876 c-5 -23 -27 -28 -52 -12 -5 3 -9 -1 -9 -9 0 -8 4 -15 9
-15 5 0 7 -4 3 -9 -3 -5 0 -13 6 -17 9 -5 10 0 6 17 -6 23 -5 23 8 5 8 -10 12
-23 9 -27 -3 -5 0 -9 6 -9 7 0 9 8 5 19 -3 11 -1 22 5 26 6 3 10 -4 11 -17 0
-13 3 -17 6 -10 2 6 8 10 12 8 4 -3 8 1 8 9 0 8 -7 15 -15 15 -10 0 -12 7 -8
25 4 14 4 25 1 25 -2 0 -7 -11 -11 -24z"/>
<path d="M3818 4853 c6 -2 12 -9 12 -14 0 -6 -5 -7 -12 -3 -7 5 -8 3 -3 -5 5
-9 11 -9 17 -3 12 12 2 32 -15 31 -9 0 -9 -2 1 -6z"/>
<path d="M3755 4800 c-3 -5 -1 -10 4 -10 6 0 11 5 11 10 0 6 -2 10 -4 10 -3 0
-8 -4 -11 -10z"/>
<path d="M3841 4807 c2 -1 15 -11 29 -22 l25 -20 -19 23 c-11 12 -24 22 -29
22 -6 0 -8 -1 -6 -3z"/>
<path d="M3817 4781 c-3 -12 -1 -21 3 -21 15 0 23 21 12 32 -6 6 -11 2 -15
-11z"/>
<path d="M3835 4750 c-3 -5 -4 -10 0 -10 3 0 1 -9 -5 -20 -6 -11 -15 -18 -21
-14 -6 4 -6 11 2 20 10 12 9 13 -5 8 -17 -6 -20 -61 -4 -70 5 -3 5 -11 2 -17
-5 -9 -4 -9 6 0 7 6 20 9 29 6 14 -4 14 -3 1 6 -10 7 -11 11 -2 11 6 0 12 5
12 12 0 6 -7 4 -18 -5 -10 -10 -21 -14 -24 -11 -8 7 23 44 32 39 4 -2 7 9 8
25 1 31 -3 37 -13 20z"/>
<path d="M3874 4733 c3 -6 0 -13 -6 -16 -7 -2 -11 -7 -8 -10 3 -3 12 -2 20 3
13 8 13 11 1 22 -8 8 -11 8 -7 1z"/>
<path d="M3765 4650 c3 -5 11 -10 16 -10 6 0 7 5 4 10 -3 6 -11 10 -16 10 -6
0 -7 -4 -4 -10z"/>
<path d="M3812 4633 c-6 -2 -9 -10 -5 -16 4 -7 0 -8 -13 -3 -14 5 -16 4 -8 -4
9 -9 17 -9 33 -1 33 18 27 38 -7 24z"/>
<path d="M935 6884 c-737 -426 -757 -438 -771 -471 -11 -26 -14 -171 -14 -776
0 -708 1 -745 18 -760 10 -10 29 -17 42 -17 25 0 540 299 580 337 l25 23 3
388 c1 213 4 397 7 409 4 15 34 39 93 74 140 83 247 139 266 139 21 0 337
-178 353 -199 9 -12 12 -115 13 -403 0 -278 3 -394 12 -413 15 -34 547 -355
588 -355 15 0 34 8 43 18 16 17 17 85 17 775 l0 755 -25 30 c-14 17 -159 105
-352 214 -623 352 -616 348 -659 348 -31 0 -78 -23 -239 -116z"/>
<path d="M8659 6777 c-624 -372 -602 -358 -621 -397 -17 -32 -18 -82 -18 -590
0 -528 1 -557 19 -586 20 -32 59 -56 699 -424 254 -146 287 -162 318 -157 43
7 560 321 581 353 16 25 9 47 -24 76 -16 14 -342 196 -713 398 -74 40 -151 84
-171 96 l-36 22 -6 210 c-4 132 -3 222 4 239 8 24 39 45 178 121 97 53 180 92
196 92 40 0 344 -186 356 -217 5 -13 9 -80 9 -147 0 -106 2 -125 18 -139 10
-10 29 -17 41 -17 12 0 120 60 239 133 119 74 238 146 263 160 77 45 77 45 84
212 7 171 4 183 -60 226 -22 15 -238 147 -480 293 -326 197 -447 266 -471 266
-22 0 -131 -60 -405 -223z"/>
<path d="M8960 6026 c-63 -36 -120 -69 -126 -74 -14 -12 -6 -251 8 -269 5 -7
62 -40 125 -73 l115 -60 130 67 130 67 -7 130 c-4 77 -11 136 -18 143 -10 10
-232 133 -240 133 -1 0 -54 -29 -117 -64z"/>
<path d="M5036 4689 c-21 -11 -123 -69 -225 -128 -589 -340 -768 -446 -790
-465 -13 -11 -31 -38 -41 -59 -16 -35 -17 -83 -13 -615 3 -358 9 -590 15 -612
26 -86 69 -119 322 -249 172 -87 183 -91 245 -91 113 0 186 53 234 170 22 55
22 58 22 670 0 703 12 627 -101 615 l-63 -7 -3 -586 c-3 -534 -5 -590 -20
-619 -23 -41 -64 -73 -95 -73 -28 0 -341 170 -365 198 -13 14 -16 97 -22 568
-5 433 -3 553 7 565 20 26 952 559 975 559 12 0 116 -52 230 -116 293 -165
563 -313 660 -364 46 -24 89 -52 97 -64 19 -31 30 -1103 11 -1128 -7 -10 -163
-105 -347 -211 -184 -107 -396 -231 -473 -276 -76 -44 -145 -81 -153 -81 -8 0
-78 36 -157 80 -78 44 -150 80 -159 80 -18 0 -167 -81 -167 -90 0 -3 94 -57
208 -119 259 -144 273 -146 402 -79 130 69 942 548 968 572 54 48 53 32 51
644 0 312 -5 593 -9 625 -13 91 -33 109 -251 226 -107 58 -297 163 -424 234
-126 71 -274 155 -328 185 -118 66 -176 76 -241 41z"/>
<path d="M6594 4152 c-123 -58 -136 -224 -24 -298 55 -37 145 -37 199 -1 96
64 95 218 -3 285 -47 32 -120 38 -172 14z m117 -13 c167 -56 130 -289 -46
-289 -91 0 -148 58 -149 151 -1 81 50 130 155 148 3 1 21 -4 40 -10z"/>
<path d="M6580 4010 c0 -67 3 -80 16 -80 14 0 16 10 12 60 l-4 61 71 -71 c65
-64 95 -84 95 -61 0 12 -25 39 -102 110 -37 33 -72 61 -78 61 -6 0 -10 -32
-10 -80z"/>
<path d="M6740 4066 c0 -16 -6 -26 -15 -26 -17 0 -20 -16 -5 -25 20 -12 51 15
48 42 -4 36 -28 43 -28 9z"/>
<path d="M5213 3925 c-71 -19 -126 -48 -174 -92 -59 -53 -82 -104 -86 -193 -4
-67 -2 -81 24 -130 34 -67 101 -120 188 -149 34 -11 137 -34 229 -51 252 -46
320 -79 320 -154 0 -50 -26 -81 -101 -118 -66 -32 -70 -33 -203 -33 -156 0
-205 13 -260 70 -30 31 -35 43 -38 100 l-4 65 -74 0 c-41 0 -77 -1 -81 -2 -5
-2 -8 -37 -7 -78 3 -191 145 -305 407 -326 224 -17 429 70 498 212 33 69 31
163 -4 236 -57 116 -141 151 -516 218 -139 25 -221 72 -221 127 0 84 96 144
242 151 166 8 279 -50 309 -160 6 -24 13 -49 15 -55 2 -8 25 -14 64 -15 33 -1
68 -2 78 -2 15 -1 17 7 14 59 -7 151 -121 274 -297 320 -74 19 -251 19 -322 0z"/>
</g>
</svg>
