<?xml version="1.0" standalone="no"?>
<!DOCTYPE svg PUBLIC "-//W3C//DTD SVG 20010904//EN"
 "http://www.w3.org/TR/2001/REC-SVG-20010904/DTD/svg10.dtd">
<svg version="1.0" xmlns="http://www.w3.org/2000/svg"
 width="1024.000000pt" height="1024.000000pt" viewBox="0 0 1024.000000 1024.000000"
 preserveAspectRatio="xMidYMid meet">

<g transform="translate(0.000000,1024.000000) scale(0.100000,-0.100000)"
fill="#000000" stroke="none">
<path d="M3490 9495 c-84 -14 -177 -47 -230 -80 -46 -29 -158 -149 -209 -223
-48 -72 -71 -137 -105 -302 -47 -233 -51 -503 -11 -770 24 -153 79 -392 113
-492 17 -48 28 -90 24 -92 -4 -2 -44 -14 -88 -25 -108 -28 -262 -81 -409 -143
-362 -151 -648 -353 -781 -551 -69 -101 -140 -252 -153 -322 -15 -81 -14 -171
4 -256 20 -93 41 -141 112 -245 144 -215 324 -361 653 -532 231 -120 431 -197
603 -232 62 -12 66 -20 47 -76 -31 -88 -114 -535 -134 -721 -20 -179 -20 -263
0 -405 41 -299 108 -468 237 -605 87 -92 138 -126 237 -157 228 -72 481 -27
806 145 83 44 173 96 200 115 27 19 93 63 146 98 104 69 352 276 369 307 6 11
15 17 22 13 7 -4 9 -3 4 1 -4 5 25 41 65 81 l72 73 76 -77 c83 -86 280 -262
350 -314 25 -19 81 -61 125 -94 118 -89 220 -151 405 -242 228 -113 307 -135
480 -135 257 0 393 57 525 223 105 131 150 240 185 445 38 221 36 414 -6 710
-38 267 -117 585 -145 585 -5 0 -9 4 -9 9 0 5 26 12 57 16 118 15 216 46 477
153 213 87 504 279 663 438 108 108 114 116 177 245 36 74 72 164 80 199 31
131 12 287 -52 423 -96 206 -214 322 -508 500 -167 101 -295 167 -418 214
-110 42 -380 123 -409 123 -51 1 -53 11 -19 122 133 440 171 873 107 1237 -35
201 -95 324 -219 447 -68 67 -94 86 -158 112 -123 51 -192 66 -308 67 -172 0
-263 -27 -523 -157 -352 -176 -543 -313 -829 -595 l-97 -96 -108 103 c-278
264 -582 476 -899 626 -148 71 -207 91 -319 109 -107 18 -173 18 -275 0z m350
-321 c253 -84 662 -356 965 -642 l84 -80 -92 -98 c-159 -170 -379 -438 -439
-535 -33 -55 -22 -52 -228 -69 -217 -19 -562 -81 -637 -116 -43 -20 -135 -36
-145 -26 -5 5 -24 74 -43 153 -89 369 -110 533 -102 794 6 186 20 272 67 397
22 60 93 159 138 194 26 20 97 47 152 58 61 12 198 -3 280 -30z m2868 6 c96
-41 172 -157 228 -345 51 -168 44 -560 -13 -835 -14 -69 -38 -183 -53 -255
-31 -152 -29 -150 -152 -116 -108 29 -468 98 -583 111 -55 6 -136 21 -180 32
-44 11 -90 22 -103 25 -13 3 -33 20 -45 37 -94 129 -179 236 -245 307 -95 104
-252 309 -252 332 0 32 489 429 648 525 115 70 344 171 437 193 108 25 239 21
313 -11z m-3521 -552 c-3 -7 -5 -2 -5 12 0 14 2 19 5 13 2 -7 2 -19 0 -25z m0
-40 c-3 -8 -6 -5 -6 6 -1 11 2 17 5 13 3 -3 4 -12 1 -19z m1954 -385 c20 -21
84 -96 141 -168 58 -71 120 -143 137 -159 18 -17 31 -40 31 -54 0 -22 -3 -24
-37 -18 -87 14 -499 18 -587 7 -48 -7 -91 -10 -94 -7 -7 8 35 66 118 165 39
46 99 120 132 165 93 123 103 128 159 69z m-118 -400 c-7 -2 -19 -2 -25 0 -7
3 -2 5 12 5 14 0 19 -2 13 -5z m577 -292 c19 -5 52 -12 72 -15 41 -7 64 -37
143 -181 21 -38 71 -117 111 -175 125 -183 180 -276 380 -643 30 -54 54 -107
54 -118 0 -11 -20 -54 -45 -94 -25 -41 -58 -101 -73 -132 -75 -155 -287 -505
-438 -723 -39 -58 -78 -121 -86 -140 -13 -32 -18 -35 -84 -47 -108 -20 -701
-29 -914 -13 -208 16 -237 25 -281 96 -17 27 -42 60 -54 74 -13 14 -61 84
-106 155 -45 72 -108 171 -139 220 -31 50 -88 149 -125 220 -37 72 -81 150
-98 175 -62 89 -108 183 -101 204 25 79 373 677 532 915 75 112 140 209 144
215 4 7 59 13 140 17 188 9 926 2 968 -10z m735 -91 c55 -11 143 -26 195 -35
135 -22 224 -49 228 -68 2 -9 -4 -27 -12 -39 -9 -12 -16 -29 -16 -37 0 -8 -38
-109 -85 -225 -46 -116 -90 -232 -96 -258 -12 -43 -14 -45 -32 -33 -23 16 -89
118 -169 263 -35 62 -112 190 -172 285 -60 95 -110 177 -113 183 -5 12 89 0
272 -36z m-2238 18 c-101 -148 -317 -512 -392 -662 -17 -33 -35 -61 -41 -63
-18 -6 -241 585 -230 612 3 8 20 20 38 28 54 22 516 103 607 106 33 1 33 0 18
-21z m-903 -316 c69 -196 247 -622 257 -616 5 3 6 -2 3 -10 -3 -9 -1 -16 6
-16 6 0 9 -4 6 -9 -3 -5 1 -14 9 -21 8 -7 21 -25 29 -40 12 -26 12 -33 -9 -77
-12 -27 -33 -67 -47 -89 -51 -82 -266 -635 -284 -730 -5 -28 -11 -34 -31 -34
-43 0 -423 148 -543 212 -269 142 -351 199 -485 336 -79 81 -138 173 -160 246
-19 62 -19 169 -2 227 29 96 191 298 272 339 16 8 90 52 164 98 74 45 138 82
142 82 5 0 73 30 151 66 219 102 406 172 458 173 10 1 30 -42 64 -137z m3966
107 c63 -17 157 -49 209 -70 171 -74 505 -247 571 -297 128 -97 269 -268 296
-360 18 -60 18 -166 -1 -230 -9 -29 -40 -84 -74 -129 -97 -131 -219 -234 -409
-349 -114 -70 -417 -224 -438 -224 -7 0 -67 -20 -133 -45 -66 -25 -129 -45
-139 -45 -15 0 -27 25 -61 128 -52 158 -137 370 -242 604 l-80 177 55 103 c56
106 209 460 241 558 30 94 76 210 83 210 4 0 59 -14 122 -31z m-3464 -1241
c47 -92 204 -359 289 -488 45 -69 94 -146 109 -172 l28 -48 -28 0 c-15 0 -87
9 -158 20 -72 11 -166 25 -209 31 -43 6 -126 24 -185 38 -87 22 -108 31 -110
47 -7 49 205 624 230 624 4 0 20 -24 34 -52z m2906 -138 c82 -207 148 -395
148 -421 0 -24 -18 -31 -146 -59 -121 -26 -537 -89 -544 -82 -3 2 1 7 8 9 7 3
23 26 36 51 25 50 104 177 172 277 22 33 67 110 99 170 75 143 135 237 147
233 6 -2 41 -82 80 -178z m-1499 -647 c-13 -2 -33 -2 -45 0 -13 2 -3 4 22 4
25 0 35 -2 23 -4z m144 1 c-3 -3 -12 -4 -19 -1 -8 3 -5 6 6 6 11 1 17 -2 13
-5z m-1691 -113 c115 -27 236 -52 269 -56 33 -4 148 -20 255 -36 107 -17 208
-30 223 -31 24 -1 44 -23 139 -147 62 -80 145 -186 186 -236 40 -49 94 -115
119 -145 24 -30 68 -79 96 -109 l51 -53 -28 -22 c-16 -11 -57 -49 -90 -82 -75
-76 -167 -149 -367 -291 -200 -143 -264 -182 -434 -264 -179 -87 -241 -103
-362 -96 -112 7 -165 28 -232 95 -62 62 -93 123 -130 257 -76 269 -61 640 41
1040 17 66 35 144 40 173 6 28 11 52 12 52 1 0 97 -22 212 -49z m3284 27 c16
-40 80 -358 101 -503 29 -200 36 -501 15 -625 -58 -332 -154 -447 -391 -466
-83 -7 -145 7 -309 70 -147 57 -216 93 -333 172 -168 114 -346 260 -571 470
-55 51 -55 51 -35 70 81 76 366 434 473 592 19 28 42 52 51 52 9 0 35 7 58 15
23 8 87 19 143 25 136 14 561 93 693 129 92 25 94 25 105 -1z m-1745 -182
c154 0 301 4 328 8 l47 7 -76 -101 c-41 -56 -122 -154 -180 -218 -57 -64 -104
-126 -104 -137 0 -34 -103 76 -323 347 l-87 107 58 -6 c31 -4 183 -7 337 -7z
m1882 -478 c-3 -7 -5 -2 -5 12 0 14 2 19 5 13 2 -7 2 -19 0 -25z m-3790 -130
c-3 -8 -6 -5 -6 6 -1 11 2 17 5 13 3 -3 4 -12 1 -19z m3350 -824 c-3 -3 -12
-4 -19 -1 -8 3 -5 6 6 6 11 1 17 -2 13 -5z"/>
<path d="M4965 6999 c-95 -19 -210 -84 -297 -167 -69 -66 -86 -90 -128 -177
-63 -131 -84 -218 -76 -312 10 -106 31 -177 81 -278 90 -181 227 -283 440
-326 109 -22 142 -21 265 12 109 30 201 82 265 151 56 61 119 147 149 206 44
85 59 302 30 416 -24 95 -109 248 -168 304 -60 57 -173 125 -254 153 -67 24
-230 33 -307 18z"/>
<path d="M7848 2524 c-128 -30 -228 -106 -279 -210 -28 -56 -32 -75 -32 -148
-1 -70 3 -91 26 -138 56 -115 149 -168 399 -229 232 -57 278 -89 278 -197 0
-64 -29 -108 -95 -141 -43 -23 -62 -26 -145 -26 -150 1 -216 43 -243 155 -11
48 -13 50 -42 45 -16 -3 -70 -10 -120 -16 -49 -5 -91 -12 -93 -13 -1 -2 2 -25
8 -50 33 -147 150 -256 325 -301 69 -18 231 -20 307 -4 145 30 274 130 317
244 31 82 29 212 -3 280 -54 114 -155 174 -389 230 -81 19 -164 42 -185 50
-109 46 -141 150 -71 230 51 58 173 82 274 54 56 -16 113 -75 121 -127 l6 -41
62 5 c173 17 171 17 168 48 -6 56 -44 136 -88 185 -51 56 -135 102 -222 120
-71 15 -214 13 -284 -5z"/>
<path d="M1710 1890 l0 -630 120 0 120 0 0 256 0 257 82 -6 c160 -13 190 -44
323 -334 l79 -173 134 0 c103 0 133 3 129 13 -29 70 -174 367 -201 414 -35 60
-86 113 -109 113 -7 0 20 16 60 35 152 74 226 220 193 381 -25 122 -88 201
-204 255 -92 43 -145 49 -447 49 l-279 0 0 -630z m551 430 c163 -46 200 -243
61 -331 -54 -34 -100 -42 -252 -43 l-115 -1 0 192 0 193 135 0 c74 0 151 -5
171 -10z"/>
<path d="M7095 2037 c0 -468 -1 -483 -21 -517 -32 -55 -77 -80 -143 -80 -36 0
-69 7 -91 19 -40 21 -80 83 -80 124 0 15 -6 27 -12 27 -21 0 -221 -30 -224
-33 -8 -8 30 -137 51 -174 33 -56 97 -108 164 -135 48 -19 75 -22 191 -23 127
0 138 2 196 28 74 34 145 104 176 172 23 50 23 52 26 563 l3 512 -118 0 -118
0 0 -483z"/>
<path d="M5910 2450 c-19 -4 -61 -13 -92 -20 l-58 -11 0 -120 0 -119 -60 0
-60 0 0 -90 0 -90 59 0 59 0 4 -302 c3 -256 6 -309 21 -339 36 -79 107 -109
260 -109 132 0 127 -3 127 104 l0 91 -53 1 c-135 2 -137 7 -137 319 l0 235 85
0 85 0 0 90 0 90 -85 0 -85 0 0 140 c0 155 4 147 -70 130z"/>
<path d="M3060 2185 c-186 -53 -300 -229 -300 -467 0 -220 79 -361 248 -441
65 -31 71 -32 202 -32 116 1 143 4 192 23 104 42 184 135 203 235 l7 37 -111
0 c-87 0 -111 -3 -111 -14 0 -7 -10 -26 -22 -41 -51 -66 -185 -86 -269 -42
-53 28 -95 92 -105 160 l-6 47 311 0 311 0 0 98 c0 210 -76 350 -229 420 -46
21 -74 26 -161 29 -72 2 -122 -2 -160 -12z m240 -177 c51 -26 85 -78 96 -146
l7 -42 -206 0 -205 0 10 42 c25 112 91 168 198 168 38 0 70 -7 100 -22z"/>
<path d="M4000 2184 c-114 -31 -178 -90 -220 -200 -11 -30 -20 -59 -20 -63 0
-5 30 -14 68 -20 37 -7 81 -14 97 -17 29 -5 32 -2 51 44 17 40 29 53 66 70 85
41 226 22 264 -35 9 -15 19 -55 22 -90 l5 -63 -119 0 c-150 0 -233 -13 -309
-49 -113 -54 -164 -129 -165 -241 0 -111 61 -208 160 -254 37 -17 64 -21 150
-21 140 1 186 24 245 122 l22 36 13 -39 c27 -83 81 -114 203 -114 l67 0 0 90
c0 72 -3 90 -15 90 -29 0 -35 39 -35 247 0 237 -13 324 -57 387 -32 45 -108
100 -161 117 -60 19 -268 21 -332 3z m330 -573 c0 -113 -79 -180 -222 -189
-75 -4 -78 -4 -108 26 -25 26 -30 38 -30 80 0 95 50 121 238 122 l122 0 0 -39z"/>
<path d="M5010 2186 c-75 -20 -138 -57 -189 -111 -91 -96 -121 -187 -121 -367
0 -93 4 -132 21 -181 68 -205 219 -298 463 -285 113 6 196 40 263 107 46 47
91 128 99 183 l6 35 -68 6 c-38 4 -88 7 -110 7 -40 0 -42 -2 -48 -35 -9 -45
-61 -97 -113 -113 -123 -37 -234 15 -272 127 -17 52 -14 279 4 332 31 87 94
129 193 129 113 0 159 -35 195 -151 5 -15 14 -15 104 1 l98 16 -3 29 c-5 44
-44 126 -82 168 -43 49 -108 87 -179 103 -69 17 -201 17 -261 0z"/>
</g>
</svg>
